<svg width="70" height="70" viewBox="0 0 70 70" fill="none" xmlns="http://www.w3.org/2000/svg">
<rect width="70" height="70" rx="16" fill="#1D1D1B"/>
<g clip-path="url(#clip0_247_784)">
<path fill-rule="evenodd" clip-rule="evenodd" d="M47.8126 42.0109C47.113 43.5702 46.7764 44.267 45.875 45.6481C44.6178 47.5761 42.845 49.9768 40.6463 49.9946C38.6947 50.0157 38.1915 48.7156 35.5421 48.7316C32.8928 48.7456 32.3403 50.0192 30.3854 49.9998C28.1884 49.9803 26.5086 47.8142 25.2514 45.8862C21.7342 40.4991 21.3641 34.1752 23.533 30.8112C25.0759 28.4227 27.5096 27.0259 29.7962 27.0259C32.1231 27.0259 33.587 28.31 35.514 28.31C37.3831 28.31 38.521 27.0223 41.2126 27.0223C43.25 27.0223 45.4086 28.1389 46.9445 30.0652C41.9087 32.8416 42.7241 40.0756 47.8126 42.0109ZM39.1717 24.8703C40.1502 23.6073 40.8917 21.8223 40.6236 20C39.0245 20.1111 37.1553 21.1341 36.0648 22.4677C35.0706 23.6759 34.2535 25.4736 34.5725 27.218C36.3207 27.2729 38.1249 26.225 39.1717 24.8703Z" fill="#E7E4DE"/>
</g>
<defs>
<clipPath id="clip0_247_784">
<rect width="30" height="30" fill="white" transform="translate(20 20)"/>
</clipPath>
</defs>
</svg>
