<svg width="377" height="296" viewBox="0 0 377 296" fill="none" xmlns="http://www.w3.org/2000/svg">
<path d="M52.0357 1.48278C52.1488 1.46564 52.262 1.45536 52.3819 1.44508C79.1097 -0.906498 113.43 15.5305 130.351 39.18C145.845 60.8378 141.553 81.2821 121.596 88.3368C121.253 88.4568 120.89 88.5425 120.516 88.5973C117.468 89.0258 113.65 87.2707 113.499 85.0837C112.971 77.7136 107.935 63.3127 81.3173 46.0701C49.3653 25.3756 48.5152 8.77404 49.2316 3.5087C49.3688 2.47346 50.4451 1.7056 52.0357 1.48278Z" fill="#C2F530" stroke="#1D1D1B" stroke-miterlimit="10"/>
<mask id="mask0_247_1336" style="mask-type:luminance" maskUnits="userSpaceOnUse" x="43" y="3" width="97" height="114">
<path d="M139.133 69.9047L133.059 98.0036C131.249 106.385 125.243 113.001 115.521 116.436C115.179 116.556 114.815 116.641 114.442 116.696C111.394 117.125 107.575 115.37 107.425 113.183C106.897 105.812 101.861 91.4117 75.2429 74.1691C43.291 53.4745 42.4409 36.8729 43.1573 31.6076C43.1642 31.5631 43.171 31.5185 43.1813 31.4739L49.2556 3.37501C49.2453 3.41957 49.2385 3.46414 49.2316 3.5087C48.5152 8.77403 49.3653 25.3756 81.3173 46.0701C107.935 63.3127 112.968 77.7136 113.499 85.0837C113.653 87.2673 117.468 89.0224 120.516 88.5973C120.89 88.5459 121.253 88.4602 121.596 88.3368C131.317 84.8985 137.323 78.286 139.133 69.9047Z" fill="white"/>
</mask>
<g mask="url(#mask0_247_1336)">
<path d="M139.133 69.9047L133.059 98.0036C132.85 98.9703 132.586 99.913 132.267 100.828L138.341 72.7293C138.66 71.8106 138.924 70.8679 139.133 69.9047Z" stroke="#1D1D1B" stroke-miterlimit="10"/>
<path d="M138.341 72.7293L132.267 100.828C131.722 102.391 131.019 103.879 130.159 105.285L136.233 77.1857C137.093 75.7836 137.796 74.2925 138.341 72.7293Z" stroke="#1D1D1B" stroke-miterlimit="10"/>
<path d="M136.233 77.1857L130.159 105.285C129.363 106.58 128.434 107.804 127.379 108.949L133.453 80.8501C134.512 79.7086 135.441 78.4848 136.233 77.1857Z" stroke="#1D1D1B" stroke-miterlimit="10"/>
<path d="M133.45 80.8467L127.375 108.946C126.323 110.08 125.14 111.136 123.834 112.106L129.908 84.0073C131.215 83.0406 132.397 81.9848 133.45 80.8467Z" stroke="#1D1D1B" stroke-miterlimit="10"/>
<path d="M129.908 84.0073L123.834 112.106C122.353 113.203 120.711 114.184 118.912 115.041L124.986 86.9416C126.786 86.0846 128.428 85.1042 129.908 84.0073Z" stroke="#1D1D1B" stroke-miterlimit="10"/>
<path d="M124.986 86.9416L118.912 115.041C117.839 115.551 116.707 116.017 115.521 116.436C115.179 116.556 114.815 116.641 114.442 116.696C113.982 116.761 113.506 116.775 113.029 116.748L119.104 88.6487C119.58 88.6761 120.057 88.6624 120.516 88.5973C120.89 88.5459 121.253 88.4602 121.596 88.3368C122.782 87.9186 123.913 87.4524 124.986 86.9416Z" stroke="#1D1D1B" stroke-miterlimit="10"/>
<path d="M119.107 88.6453L113.033 116.744C112.755 116.727 112.474 116.696 112.196 116.652L118.271 88.5527C118.548 88.5973 118.829 88.6282 119.107 88.6453Z" stroke="#1D1D1B" stroke-miterlimit="10"/>
<path d="M118.271 88.5527L112.196 116.652C111.963 116.614 111.73 116.566 111.5 116.511L117.575 88.4122C117.804 88.467 118.037 88.515 118.271 88.5527Z" stroke="#1D1D1B" stroke-miterlimit="10"/>
<path d="M117.575 88.4122L111.5 116.511C111.284 116.46 111.075 116.398 110.866 116.329L116.94 88.2305C117.15 88.2991 117.359 88.3608 117.575 88.4122Z" stroke="#1D1D1B" stroke-miterlimit="10"/>
<path d="M116.941 88.2305L110.866 116.329C110.661 116.261 110.455 116.185 110.259 116.103L116.334 88.0043C116.529 88.0866 116.735 88.162 116.941 88.2305Z" stroke="#1D1D1B" stroke-miterlimit="10"/>
<path d="M116.334 88.0043L110.259 116.103C110.047 116.014 109.845 115.918 109.649 115.819L115.724 87.7198C115.919 87.8226 116.125 87.9186 116.334 88.0043Z" stroke="#1D1D1B" stroke-miterlimit="10"/>
<path d="M115.724 87.7198L109.649 115.819C109.42 115.699 109.204 115.568 109.001 115.431L115.076 87.3324C115.278 87.4695 115.494 87.5998 115.724 87.7198Z" stroke="#1D1D1B" stroke-miterlimit="10"/>
<path d="M115.076 87.3324L109.001 115.431C108.096 114.814 107.486 114.033 107.428 113.183C106.917 106.087 102.231 92.464 78.1087 76.0682L84.183 47.9692C108.306 64.3651 112.992 77.9878 113.502 85.0837C113.561 85.9304 114.174 86.7154 115.076 87.3324Z" stroke="#1D1D1B" stroke-miterlimit="10"/>
<path d="M84.183 47.9692L78.1087 76.0681C77.1831 75.4408 76.2301 74.8067 75.2463 74.1691C74.2556 73.528 73.2924 72.8904 72.36 72.2563L78.4343 44.1573C79.3667 44.7915 80.3265 45.4291 81.3207 46.0701C82.3045 46.7077 83.2574 47.3385 84.183 47.9692Z" stroke="#1D1D1B" stroke-miterlimit="10"/>
<path d="M78.4342 44.1573L72.3599 72.2563C43.2428 52.4564 42.4647 36.7118 43.1571 31.6076C43.164 31.5631 43.1709 31.5185 43.1811 31.4739L49.2555 3.37501C49.2452 3.41957 49.2383 3.46414 49.2315 3.5087C48.539 8.60949 49.3137 24.3575 78.4342 44.1573Z" stroke="#1D1D1B" stroke-miterlimit="10"/>
</g>
<path d="M139.133 69.9047L133.059 98.0036C131.249 106.385 125.243 113.001 115.521 116.436C115.179 116.556 114.815 116.641 114.442 116.696C111.394 117.125 107.575 115.37 107.425 113.183C106.897 105.812 101.861 91.4117 75.2429 74.1691C43.291 53.4745 42.4409 36.8729 43.1573 31.6076C43.1642 31.5631 43.171 31.5185 43.1813 31.4739L49.2556 3.37501C49.2453 3.41957 49.2385 3.46414 49.2316 3.5087C48.5152 8.77403 49.3653 25.3756 81.3173 46.0701C107.935 63.3127 112.968 77.7136 113.499 85.0837C113.653 87.2673 117.468 89.0224 120.516 88.5973C120.89 88.5459 121.253 88.4602 121.596 88.3368C131.317 84.8985 137.323 78.286 139.133 69.9047Z" stroke="#1D1D1B" stroke-miterlimit="10"/>
<mask id="mask1_247_1336" style="mask-type:luminance" maskUnits="userSpaceOnUse" x="1" y="24" width="97" height="98">
<path d="M97.5417 90.99L91.4674 119.089C91.2583 120.059 90.2093 120.772 88.6839 120.985C88.5708 121.002 88.4577 121.012 88.3377 121.022C61.6099 123.374 27.2859 106.933 10.3655 83.284C2.41607 72.174 -0.326287 61.3862 1.58308 52.5593L7.65741 24.4603C5.74804 33.2873 8.49383 44.0785 16.4398 55.1851C33.3602 78.8345 67.6843 95.275 94.412 92.9234C94.5286 92.9131 94.6451 92.8994 94.7582 92.8857C96.2802 92.6732 97.3292 91.9601 97.5417 90.99Z" fill="white"/>
</mask>
<g mask="url(#mask1_247_1336)">
<path d="M97.5417 90.99L91.4674 119.089C91.4537 119.157 91.4331 119.223 91.4125 119.288L97.4869 91.1888C97.5109 91.1237 97.528 91.0552 97.5417 90.99Z" stroke="#1D1D1B" stroke-miterlimit="10"/>
<path d="M97.4869 91.1923L91.4125 119.291C91.3714 119.411 91.3165 119.524 91.248 119.634L97.3223 91.5351C97.3909 91.4254 97.4457 91.3122 97.4869 91.1923Z" stroke="#1D1D1B" stroke-miterlimit="10"/>
<path d="M97.3223 91.5316L91.248 119.631C91.1795 119.74 91.1006 119.847 91.0046 119.946L97.079 91.847C97.1715 91.7476 97.2538 91.6413 97.3223 91.5316Z" stroke="#1D1D1B" stroke-miterlimit="10"/>
<path d="M97.0789 91.8504L91.0046 119.949C90.9018 120.059 90.7886 120.162 90.6584 120.258L96.7327 92.1589C96.863 92.063 96.9761 91.9601 97.0789 91.8504Z" stroke="#1D1D1B" stroke-miterlimit="10"/>
<path d="M96.7362 92.1555L90.6618 120.254C90.5041 120.371 90.3259 120.477 90.1271 120.573L96.2014 92.4743C96.3968 92.3818 96.5751 92.2755 96.7362 92.1555Z" stroke="#1D1D1B" stroke-miterlimit="10"/>
<path d="M96.2014 92.4743L90.127 120.573C89.7191 120.769 89.2323 120.909 88.6873 120.985C88.5742 121.002 88.4611 121.012 88.3411 121.022C85.3999 121.279 82.3696 121.314 79.281 121.132L85.3553 93.0331C88.4439 93.2148 91.4777 93.1805 94.4154 92.9234C94.532 92.9131 94.6485 92.8994 94.7616 92.8857C95.3101 92.8103 95.7935 92.6663 96.2014 92.4743Z" stroke="#1D1D1B" stroke-miterlimit="10"/>
<path d="M85.3553 93.0365L79.281 121.135C76.7786 120.988 74.2351 120.703 71.6744 120.289L77.7487 92.1898C80.3128 92.6046 82.8529 92.8925 85.3553 93.0365Z" stroke="#1D1D1B" stroke-miterlimit="10"/>
<path d="M77.7453 92.1898L71.671 120.289C69.4359 119.925 67.1838 119.463 64.9247 118.904L70.9991 90.8049C73.2547 91.3637 75.5068 91.8265 77.7453 92.1898Z" stroke="#1D1D1B" stroke-miterlimit="10"/>
<path d="M71.0025 90.8049L64.9282 118.904C62.6658 118.345 60.3999 117.694 58.1409 116.95L64.2152 88.851C66.4742 89.5948 68.7401 90.2462 71.0025 90.8049Z" stroke="#1D1D1B" stroke-miterlimit="10"/>
<path d="M64.2151 88.851L58.1408 116.95C55.6933 116.144 53.256 115.236 50.8427 114.228L56.917 86.1292C59.3303 87.137 61.7676 88.0454 64.2151 88.851Z" stroke="#1D1D1B" stroke-miterlimit="10"/>
<path d="M56.9171 86.1292L50.8427 114.228C48.0318 113.056 45.2552 111.753 42.5368 110.327L48.6111 82.2282C51.3329 83.6542 54.1096 84.9603 56.9171 86.1292Z" stroke="#1D1D1B" stroke-miterlimit="10"/>
<path d="M48.6111 82.2282L42.5368 110.327C38.9923 108.469 35.5438 106.406 32.2427 104.157L38.317 76.0579C41.6181 78.3032 45.0666 80.3702 48.6111 82.2282Z" stroke="#1D1D1B" stroke-miterlimit="10"/>
<path d="M38.3134 76.0577L32.2391 104.157C23.6246 98.2948 16.0248 91.1921 10.3687 83.2873C2.41931 72.1773 -0.323053 61.3895 1.58632 52.5625L7.66065 24.4636C5.75128 33.2906 8.49364 44.0818 16.4431 55.1883C22.0992 63.0932 29.7024 70.1959 38.3134 76.0577Z" stroke="#1D1D1B" stroke-miterlimit="10"/>
</g>
<path d="M97.5417 90.99L91.4674 119.089C91.2583 120.059 90.2093 120.772 88.6839 120.985C88.5708 121.002 88.4577 121.012 88.3377 121.022C61.6099 123.374 27.2859 106.933 10.3655 83.284C2.41607 72.174 -0.326287 61.3862 1.58308 52.5593L7.65741 24.4603C5.74804 33.2873 8.49383 44.0785 16.4398 55.1851C33.3602 78.8345 67.6843 95.275 94.412 92.9234C94.5286 92.9131 94.6451 92.8994 94.7582 92.8857C96.2802 92.6732 97.3292 91.9601 97.5417 90.99Z" stroke="#1D1D1B" stroke-miterlimit="10"/>
<path d="M26.2678 5.77458C29.3186 5.34608 33.1374 7.09777 33.2985 9.28823C33.823 16.6583 38.8518 31.0591 65.4698 48.2983C97.4252 68.9963 98.2753 85.5978 97.5657 90.8632C97.4252 91.8984 96.3488 92.6663 94.7616 92.8891C94.6485 92.9062 94.5354 92.9165 94.4154 92.9268C67.6877 95.2784 33.3636 78.8379 16.4432 55.1885C0.948907 33.5307 5.23727 13.0898 25.1948 6.03167C25.5376 5.91169 25.8975 5.826 26.2678 5.77458Z" fill="#C2F530" stroke="#1D1D1B" stroke-miterlimit="10"/>
<path d="M228.853 221.814L237.508 233.768C237.526 233.788 237.539 233.812 237.553 233.833L228.897 221.879C228.884 221.855 228.87 221.835 228.853 221.814Z" fill="#C2F530"/>
<mask id="mask2_247_1336" style="mask-type:luminance" maskUnits="userSpaceOnUse" x="228" y="221" width="10" height="13">
<path d="M228.853 221.814L237.508 233.768C237.526 233.788 237.539 233.812 237.553 233.833L228.897 221.879C228.884 221.855 228.87 221.835 228.853 221.814Z" fill="white"/>
</mask>
<g mask="url(#mask2_247_1336)">
<path d="M228.853 221.814L237.508 233.768C237.508 233.768 237.526 233.792 237.532 233.805L228.877 221.852C228.877 221.852 228.86 221.828 228.853 221.814Z" fill="#C2F530" stroke="#1D1D1B" stroke-miterlimit="10"/>
<path d="M228.877 221.849L237.532 233.802C237.532 233.802 237.546 233.822 237.55 233.833L228.894 221.879C228.894 221.879 228.88 221.859 228.877 221.849Z" fill="#C2F530" stroke="#1D1D1B" stroke-miterlimit="10"/>
</g>
<path d="M228.853 221.814L237.508 233.768C237.526 233.788 237.539 233.812 237.553 233.833L228.897 221.879C228.884 221.855 228.87 221.835 228.853 221.814Z" stroke="#1D1D1B" stroke-miterlimit="10"/>
<mask id="mask3_247_1336" style="mask-type:luminance" maskUnits="userSpaceOnUse" x="160" y="221" width="78" height="63">
<path d="M169.604 283.024L160.948 271.071C161.308 271.568 162.042 271.753 162.906 271.54C167.475 270.426 181.592 265.716 196.253 248.062C208.47 233.356 220.307 227.632 226.559 225.489C228.414 224.851 229.552 222.932 228.897 221.879L237.553 233.833C238.211 234.885 237.073 236.805 235.215 237.442C228.962 239.588 217.126 245.31 204.909 260.015C190.247 277.669 176.131 282.376 171.561 283.493C170.698 283.706 169.967 283.521 169.604 283.024Z" fill="white"/>
</mask>
<g mask="url(#mask3_247_1336)">
<path d="M228.897 221.879L237.553 233.833C237.567 233.853 237.58 233.874 237.591 233.898L228.935 221.945C228.925 221.924 228.911 221.9 228.897 221.879Z" stroke="#1D1D1B" stroke-miterlimit="10"/>
<path d="M228.935 221.945L237.591 233.898C237.608 233.929 237.625 233.963 237.639 233.997L228.983 222.044C228.969 222.01 228.952 221.979 228.935 221.945Z" stroke="#1D1D1B" stroke-miterlimit="10"/>
<path d="M228.98 222.041L237.635 233.994C237.649 234.028 237.663 234.062 237.673 234.1L229.017 222.147C229.007 222.113 228.993 222.075 228.98 222.041Z" stroke="#1D1D1B" stroke-miterlimit="10"/>
<path d="M229.021 222.147L237.676 234.1C237.687 234.138 237.697 234.176 237.707 234.213L229.052 222.26C229.045 222.222 229.034 222.185 229.021 222.147Z" stroke="#1D1D1B" stroke-miterlimit="10"/>
<path d="M229.048 222.257L237.704 234.21C237.714 234.251 237.721 234.289 237.724 234.33L229.069 222.377C229.062 222.335 229.055 222.294 229.048 222.257Z" stroke="#1D1D1B" stroke-miterlimit="10"/>
<path d="M229.072 222.38L237.728 234.333C237.735 234.378 237.738 234.426 237.738 234.47L229.082 222.517C229.082 222.469 229.076 222.425 229.072 222.38Z" stroke="#1D1D1B" stroke-miterlimit="10"/>
<path d="M229.082 222.517L237.738 234.47C237.738 234.522 237.738 234.577 237.738 234.628L229.082 222.675C229.082 222.62 229.086 222.568 229.082 222.517Z" stroke="#1D1D1B" stroke-miterlimit="10"/>
<path d="M229.079 222.675L237.735 234.628C237.731 234.693 237.724 234.758 237.714 234.823L229.058 222.87C229.069 222.805 229.076 222.74 229.079 222.675Z" stroke="#1D1D1B" stroke-miterlimit="10"/>
<path d="M229.059 222.87L237.714 234.823C237.7 234.916 237.676 235.009 237.649 235.101L228.993 223.148C229.021 223.055 229.045 222.963 229.059 222.87Z" stroke="#1D1D1B" stroke-miterlimit="10"/>
<path d="M228.993 223.148L237.649 235.101C237.563 235.379 237.423 235.663 237.231 235.938L228.575 223.984C228.767 223.71 228.908 223.425 228.993 223.148Z" stroke="#1D1D1B" stroke-miterlimit="10"/>
<path d="M228.575 223.984L237.231 235.937C237.166 236.03 237.097 236.123 237.022 236.212L228.366 224.258C228.441 224.169 228.513 224.077 228.575 223.984Z" stroke="#1D1D1B" stroke-miterlimit="10"/>
<path d="M228.363 224.255L237.018 236.208C236.967 236.27 236.912 236.332 236.854 236.393L228.198 224.44C228.256 224.378 228.311 224.32 228.363 224.255Z" stroke="#1D1D1B" stroke-miterlimit="10"/>
<path d="M228.198 224.44L236.854 236.393C236.806 236.441 236.758 236.489 236.71 236.537L228.054 224.584C228.105 224.536 228.153 224.488 228.198 224.44Z" stroke="#1D1D1B" stroke-miterlimit="10"/>
<path d="M228.051 224.584L236.706 236.537C236.662 236.579 236.614 236.623 236.566 236.664L227.91 224.711C227.958 224.67 228.006 224.629 228.051 224.584Z" stroke="#1D1D1B" stroke-miterlimit="10"/>
<path d="M227.914 224.711L236.569 236.664C236.525 236.702 236.477 236.74 236.432 236.777L227.776 224.824C227.824 224.786 227.869 224.749 227.914 224.711Z" stroke="#1D1D1B" stroke-miterlimit="10"/>
<path d="M227.773 224.824L236.429 236.777C236.384 236.812 236.34 236.846 236.295 236.88L227.639 224.927C227.684 224.893 227.729 224.862 227.773 224.824Z" stroke="#1D1D1B" stroke-miterlimit="10"/>
<path d="M227.639 224.923L236.295 236.877C236.25 236.908 236.206 236.942 236.158 236.973L227.502 225.019C227.547 224.989 227.595 224.958 227.639 224.923Z" stroke="#1D1D1B" stroke-miterlimit="10"/>
<path d="M227.506 225.019L236.161 236.973C236.117 237.004 236.069 237.031 236.024 237.062L227.369 225.109C227.417 225.081 227.461 225.05 227.506 225.019Z" stroke="#1D1D1B" stroke-miterlimit="10"/>
<path d="M227.365 225.109L236.021 237.062C235.973 237.089 235.925 237.12 235.877 237.144L227.221 225.191C227.269 225.163 227.317 225.136 227.365 225.109Z" stroke="#1D1D1B" stroke-miterlimit="10"/>
<path d="M227.225 225.191L235.88 237.144C235.832 237.172 235.781 237.199 235.733 237.223L227.077 225.27C227.129 225.246 227.177 225.218 227.225 225.191Z" stroke="#1D1D1B" stroke-miterlimit="10"/>
<path d="M227.074 225.27L235.729 237.223C235.678 237.25 235.623 237.274 235.568 237.302L226.912 225.349C226.967 225.325 227.022 225.297 227.074 225.27Z" stroke="#1D1D1B" stroke-miterlimit="10"/>
<path d="M226.913 225.349L235.568 237.302C235.51 237.329 235.452 237.353 235.393 237.377L226.738 225.424C226.796 225.4 226.854 225.376 226.913 225.349Z" stroke="#1D1D1B" stroke-miterlimit="10"/>
<path d="M226.738 225.421L235.393 237.374C235.335 237.398 235.277 237.418 235.215 237.439C234.588 237.655 233.906 237.905 233.175 238.197L224.52 226.243C225.253 225.952 225.936 225.702 226.559 225.486C226.621 225.465 226.679 225.445 226.738 225.421Z" stroke="#1D1D1B" stroke-miterlimit="10"/>
<path d="M224.52 226.247L233.175 238.2C232.5 238.467 231.784 238.772 231.026 239.115L222.37 227.162C223.128 226.819 223.845 226.514 224.52 226.247Z" stroke="#1D1D1B" stroke-miterlimit="10"/>
<path d="M222.367 227.162L231.023 239.115C230.344 239.424 229.638 239.76 228.901 240.133L220.245 228.18C220.982 227.806 221.688 227.47 222.367 227.162Z" stroke="#1D1D1B" stroke-miterlimit="10"/>
<path d="M220.245 228.18L228.901 240.133C228.219 240.48 227.509 240.853 226.779 241.261L218.123 229.308C218.854 228.9 219.56 228.523 220.245 228.18Z" stroke="#1D1D1B" stroke-miterlimit="10"/>
<path d="M218.127 229.308L226.782 241.261C226.093 241.645 225.387 242.06 224.66 242.502L216.005 230.549C216.732 230.107 217.438 229.692 218.127 229.308Z" stroke="#1D1D1B" stroke-miterlimit="10"/>
<path d="M216.005 230.549L224.66 242.502C223.954 242.934 223.231 243.393 222.494 243.887L213.838 231.934C214.575 231.443 215.299 230.981 216.005 230.549Z" stroke="#1D1D1B" stroke-miterlimit="10"/>
<path d="M213.838 231.934L222.494 243.887C221.764 244.374 221.016 244.891 220.259 245.44L211.603 233.487C212.361 232.938 213.108 232.42 213.838 231.934Z" stroke="#1D1D1B" stroke-miterlimit="10"/>
<path d="M211.603 233.487L220.259 245.44C219.491 245.995 218.709 246.585 217.918 247.209L209.262 235.255C210.054 234.631 210.835 234.042 211.603 233.487Z" stroke="#1D1D1B" stroke-miterlimit="10"/>
<path d="M209.262 235.255L217.918 247.209C217.095 247.856 216.255 248.545 215.408 249.272L206.753 237.319C207.6 236.592 208.436 235.907 209.262 235.255Z" stroke="#1D1D1B" stroke-miterlimit="10"/>
<path d="M206.756 237.319L215.412 249.272C214.5 250.054 213.574 250.883 212.642 251.761L203.986 239.808C204.919 238.93 205.844 238.101 206.756 237.319Z" stroke="#1D1D1B" stroke-miterlimit="10"/>
<path d="M203.986 239.808L212.642 251.761C211.59 252.748 210.527 253.801 209.457 254.915L200.802 242.961C201.871 241.844 202.934 240.795 203.986 239.808Z" stroke="#1D1D1B" stroke-miterlimit="10"/>
<path d="M200.802 242.961L209.457 254.915C208.158 256.269 206.849 257.719 205.532 259.272L196.877 247.318C198.193 245.765 199.503 244.315 200.802 242.961Z" stroke="#1D1D1B" stroke-miterlimit="10"/>
<path d="M196.877 247.318L205.532 259.272C205.323 259.518 205.118 259.765 204.909 260.015C204.703 260.262 204.497 260.509 204.292 260.752L195.636 248.799C195.842 248.556 196.047 248.309 196.253 248.062C196.462 247.812 196.668 247.565 196.877 247.318Z" stroke="#1D1D1B" stroke-miterlimit="10"/>
<path d="M195.632 248.799L204.288 260.752C202.965 262.316 201.645 263.776 200.339 265.137L191.683 253.184C192.99 251.823 194.309 250.362 195.632 248.799Z" stroke="#1D1D1B" stroke-miterlimit="10"/>
<path d="M191.684 253.184L200.339 265.137C199.276 266.244 198.221 267.286 197.179 268.267L188.523 256.313C189.565 255.333 190.621 254.291 191.684 253.184Z" stroke="#1D1D1B" stroke-miterlimit="10"/>
<path d="M188.523 256.313L197.179 268.266C196.243 269.147 195.317 269.977 194.402 270.762L185.746 258.809C186.662 258.024 187.587 257.194 188.523 256.313Z" stroke="#1D1D1B" stroke-miterlimit="10"/>
<path d="M185.75 258.809L194.405 270.762C193.559 271.489 192.719 272.178 191.896 272.826L183.24 260.872C184.067 260.221 184.903 259.536 185.75 258.809Z" stroke="#1D1D1B" stroke-miterlimit="10"/>
<path d="M183.237 260.872L191.893 272.826C191.101 273.45 190.319 274.039 189.555 274.594L180.899 262.641C181.667 262.086 182.449 261.496 183.237 260.872Z" stroke="#1D1D1B" stroke-miterlimit="10"/>
<path d="M180.899 262.641L189.555 274.594C188.797 275.143 188.053 275.661 187.323 276.147L178.667 264.194C179.398 263.707 180.142 263.19 180.899 262.641Z" stroke="#1D1D1B" stroke-miterlimit="10"/>
<path d="M178.668 264.194L187.323 276.147C186.586 276.638 185.863 277.1 185.157 277.532L176.501 265.579C177.207 265.147 177.931 264.688 178.668 264.194Z" stroke="#1D1D1B" stroke-miterlimit="10"/>
<path d="M176.501 265.576L185.157 277.529C184.43 277.974 183.72 278.386 183.031 278.773L174.376 266.82C175.065 266.436 175.774 266.021 176.501 265.576Z" stroke="#1D1D1B" stroke-miterlimit="10"/>
<path d="M174.376 266.82L183.031 278.773C182.305 279.178 181.602 279.551 180.92 279.898L172.264 267.944C172.946 267.598 173.649 267.224 174.376 266.82Z" stroke="#1D1D1B" stroke-miterlimit="10"/>
<path d="M172.264 267.944L180.92 279.898C180.179 280.275 179.466 280.614 178.784 280.923L170.129 268.969C170.811 268.661 171.524 268.321 172.264 267.944Z" stroke="#1D1D1B" stroke-miterlimit="10"/>
<path d="M170.129 268.969L178.784 280.923C178.03 281.265 177.314 281.567 176.642 281.834L167.986 269.881C168.658 269.614 169.374 269.309 170.129 268.969Z" stroke="#1D1D1B" stroke-miterlimit="10"/>
<path d="M167.986 269.881L176.642 281.834C175.846 282.153 175.109 282.421 174.438 282.647L165.782 270.694C166.45 270.467 167.187 270.2 167.986 269.881Z" stroke="#1D1D1B" stroke-miterlimit="10"/>
<path d="M165.782 270.693L174.437 282.647C173.601 282.931 172.871 283.147 172.254 283.315L163.598 271.362C164.212 271.194 164.945 270.978 165.782 270.693Z" stroke="#1D1D1B" stroke-miterlimit="10"/>
<path d="M163.602 271.362L172.257 283.315C172.004 283.384 171.774 283.442 171.561 283.493C171.496 283.511 171.431 283.524 171.369 283.535L162.714 271.581C162.776 271.571 162.841 271.557 162.906 271.54C163.118 271.489 163.351 271.43 163.602 271.362Z" stroke="#1D1D1B" stroke-miterlimit="10"/>
<path d="M162.71 271.581L171.366 283.535C170.588 283.675 169.937 283.483 169.601 283.024L160.945 271.071C161.278 271.53 161.929 271.722 162.71 271.581Z" stroke="#1D1D1B" stroke-miterlimit="10"/>
</g>
<path d="M169.604 283.024L160.948 271.071C161.308 271.568 162.042 271.753 162.906 271.54C167.475 270.426 181.592 265.716 196.253 248.062C208.47 233.356 220.307 227.632 226.559 225.489C228.414 224.851 229.552 222.932 228.897 221.879L237.553 233.833C238.211 234.885 237.073 236.805 235.215 237.442C228.962 239.588 217.126 245.31 204.909 260.015C190.247 277.669 176.131 282.376 171.561 283.493C170.698 283.706 169.967 283.521 169.604 283.024Z" stroke="#1D1D1B" stroke-miterlimit="10"/>
<path d="M228.897 221.879C229.556 222.932 228.417 224.851 226.56 225.489C220.307 227.635 208.47 233.356 196.253 248.062C181.592 265.716 167.475 270.423 162.906 271.54C162.004 271.76 161.247 271.55 160.904 271.005C160.88 270.968 160.859 270.927 160.839 270.889C156.287 261.315 167.085 243.877 185.702 231.179C202.752 219.548 220.643 215.791 228.575 221.54C228.712 221.639 228.819 221.753 228.897 221.883V221.879Z" fill="#C2F530" stroke="#1D1D1B" stroke-miterlimit="10"/>
<path d="M234.972 230.511L243.627 242.464C243.644 242.485 243.658 242.509 243.672 242.529L235.016 230.576C235.003 230.552 234.989 230.532 234.972 230.511Z" fill="#C2F530"/>
<mask id="mask4_247_1336" style="mask-type:luminance" maskUnits="userSpaceOnUse" x="234" y="230" width="10" height="13">
<path d="M234.972 230.511L243.627 242.464C243.644 242.485 243.658 242.509 243.672 242.529L235.016 230.576C235.003 230.552 234.989 230.532 234.972 230.511Z" fill="white"/>
</mask>
<g mask="url(#mask4_247_1336)">
<path d="M234.972 230.511L243.627 242.464C243.627 242.464 243.644 242.488 243.651 242.502L234.996 230.549C234.996 230.549 234.979 230.525 234.972 230.511Z" fill="#C2F530" stroke="#1D1D1B" stroke-miterlimit="10"/>
<path d="M234.996 230.549L243.651 242.502C243.651 242.502 243.665 242.523 243.672 242.533L235.016 230.58C235.016 230.58 235.002 230.559 234.996 230.549Z" fill="#C2F530" stroke="#1D1D1B" stroke-miterlimit="10"/>
</g>
<path d="M234.972 230.511L243.627 242.464C243.644 242.485 243.658 242.509 243.672 242.529L235.016 230.576C235.003 230.552 234.989 230.532 234.972 230.511Z" stroke="#1D1D1B" stroke-miterlimit="10"/>
<path d="M235.016 230.58C235.04 230.617 235.061 230.658 235.081 230.696C239.634 240.27 228.832 257.705 210.215 270.406C193.168 282.033 175.277 285.794 167.345 280.045C167.208 279.946 167.102 279.832 167.023 279.702C166.365 278.65 167.503 276.73 169.361 276.093C175.613 273.947 187.45 268.225 199.664 253.519C214.329 235.865 228.448 231.155 233.014 230.038C233.916 229.819 234.674 230.028 235.016 230.576V230.58Z" fill="#C2F530" stroke="#1D1D1B" stroke-miterlimit="10"/>
<mask id="mask5_247_1336" style="mask-type:luminance" maskUnits="userSpaceOnUse" x="167" y="230" width="78" height="65">
<path d="M175.723 291.724L167.068 279.771C167.143 279.874 167.235 279.966 167.345 280.048C175.277 285.797 193.168 282.037 210.215 270.409C228.832 257.708 239.634 240.274 235.081 230.7C235.061 230.658 235.04 230.621 235.016 230.583L243.672 242.536C243.696 242.574 243.716 242.615 243.737 242.653C248.289 252.227 237.488 269.662 218.871 282.362C201.824 293.99 183.933 297.75 176.001 292.002C175.888 291.919 175.795 291.827 175.723 291.724Z" fill="white"/>
</mask>
<g mask="url(#mask5_247_1336)">
<path d="M235.016 230.58L243.672 242.533C243.686 242.553 243.699 242.577 243.71 242.598L235.054 230.645C235.04 230.621 235.03 230.6 235.016 230.58Z" stroke="#1D1D1B" stroke-miterlimit="10"/>
<path d="M235.054 230.645L243.71 242.598C243.72 242.615 243.727 242.632 243.737 242.649C243.795 242.773 243.854 242.9 243.908 243.03L235.253 231.077C235.198 230.95 235.143 230.823 235.081 230.696C235.075 230.679 235.064 230.662 235.054 230.645Z" stroke="#1D1D1B" stroke-miterlimit="10"/>
<path d="M235.249 231.077L243.905 243.03C244.025 243.311 244.131 243.599 244.227 243.894L235.572 231.941C235.476 231.646 235.369 231.358 235.249 231.077Z" stroke="#1D1D1B" stroke-miterlimit="10"/>
<path d="M235.572 231.941L244.227 243.894C244.327 244.206 244.412 244.521 244.484 244.847L235.829 232.894C235.757 232.568 235.671 232.252 235.572 231.941Z" stroke="#1D1D1B" stroke-miterlimit="10"/>
<path d="M235.829 232.893L244.484 244.847C244.56 245.183 244.618 245.525 244.666 245.875L236.01 233.922C235.966 233.572 235.904 233.229 235.829 232.893Z" stroke="#1D1D1B" stroke-miterlimit="10"/>
<path d="M236.01 233.918L244.666 245.872C244.717 246.262 244.752 246.664 244.765 247.071L236.11 235.118C236.096 234.71 236.062 234.309 236.01 233.918Z" stroke="#1D1D1B" stroke-miterlimit="10"/>
<path d="M236.11 235.118L244.765 247.071C244.783 247.538 244.776 248.018 244.748 248.501L236.093 236.548C236.124 236.061 236.127 235.584 236.11 235.118Z" stroke="#1D1D1B" stroke-miterlimit="10"/>
<path d="M236.089 236.551L244.745 248.504C244.711 249.097 244.639 249.704 244.536 250.325L235.88 238.371C235.983 237.751 236.055 237.144 236.089 236.551Z" stroke="#1D1D1B" stroke-miterlimit="10"/>
<path d="M235.88 238.368L244.536 250.321C244.392 251.192 244.179 252.087 243.905 253.002L235.249 241.049C235.524 240.133 235.736 239.239 235.88 238.368Z" stroke="#1D1D1B" stroke-miterlimit="10"/>
<path d="M235.249 241.049L243.905 253.002C242.894 256.365 241.025 259.995 238.427 263.683L229.771 251.73C232.37 248.042 234.238 244.411 235.249 241.049Z" stroke="#1D1D1B" stroke-miterlimit="10"/>
<path d="M229.772 251.733L238.427 263.687C237.436 265.092 236.339 266.508 235.143 267.917L226.488 255.964C227.684 254.551 228.781 253.139 229.772 251.733Z" stroke="#1D1D1B" stroke-miterlimit="10"/>
<path d="M226.488 255.964L235.143 267.917C234.238 268.986 233.275 270.052 232.257 271.112L223.601 259.158C224.619 258.099 225.583 257.033 226.488 255.964Z" stroke="#1D1D1B" stroke-miterlimit="10"/>
<path d="M223.605 259.158L232.26 271.112C231.362 272.048 230.423 272.977 229.442 273.899L220.787 261.945C221.767 261.023 222.707 260.094 223.605 259.158Z" stroke="#1D1D1B" stroke-miterlimit="10"/>
<path d="M220.787 261.945L229.442 273.899C228.544 274.745 227.612 275.582 226.645 276.408L217.99 264.455C218.953 263.629 219.885 262.789 220.787 261.945Z" stroke="#1D1D1B" stroke-miterlimit="10"/>
<path d="M217.99 264.458L226.645 276.411C225.737 277.189 224.804 277.957 223.841 278.715L215.186 266.762C216.149 266.004 217.085 265.236 217.99 264.458Z" stroke="#1D1D1B" stroke-miterlimit="10"/>
<path d="M215.186 266.762L223.841 278.715C222.912 279.445 221.963 280.165 220.986 280.874L212.33 268.921C213.307 268.215 214.26 267.495 215.186 266.762Z" stroke="#1D1D1B" stroke-miterlimit="10"/>
<path d="M212.327 268.921L220.982 280.874C220.29 281.375 219.584 281.872 218.867 282.362C218.596 282.547 218.326 282.729 218.055 282.911L209.399 270.957C209.67 270.776 209.941 270.594 210.212 270.409C210.928 269.919 211.634 269.425 212.327 268.921Z" stroke="#1D1D1B" stroke-miterlimit="10"/>
<path d="M209.403 270.954L218.058 282.907C217.078 283.559 216.097 284.186 215.117 284.786L206.461 272.833C207.442 272.233 208.426 271.605 209.403 270.954Z" stroke="#1D1D1B" stroke-miterlimit="10"/>
<path d="M206.458 272.836L215.114 284.789C214.13 285.389 213.146 285.965 212.166 286.513L203.51 274.56C204.49 274.012 205.474 273.436 206.458 272.836Z" stroke="#1D1D1B" stroke-miterlimit="10"/>
<path d="M203.513 274.56L212.169 286.514C211.175 287.069 210.184 287.597 209.197 288.097L200.541 276.144C201.529 275.643 202.519 275.116 203.513 274.56Z" stroke="#1D1D1B" stroke-miterlimit="10"/>
<path d="M200.541 276.141L209.197 288.094C208.186 288.605 207.178 289.088 206.18 289.544L197.525 277.591C198.526 277.138 199.53 276.655 200.541 276.141Z" stroke="#1D1D1B" stroke-miterlimit="10"/>
<path d="M197.521 277.591L206.177 289.544C205.131 290.017 204.093 290.459 203.064 290.87L194.409 278.917C195.437 278.506 196.476 278.064 197.521 277.591Z" stroke="#1D1D1B" stroke-miterlimit="10"/>
<path d="M194.409 278.917L203.064 290.87C201.967 291.306 200.884 291.707 199.815 292.067L191.159 280.114C192.229 279.75 193.315 279.353 194.409 278.917Z" stroke="#1D1D1B" stroke-miterlimit="10"/>
<path d="M191.159 280.113L199.815 292.067C198.642 292.464 197.487 292.814 196.356 293.123L187.7 281.169C188.835 280.864 189.987 280.511 191.159 280.113Z" stroke="#1D1D1B" stroke-miterlimit="10"/>
<path d="M187.7 281.169L196.356 293.123C194.978 293.496 193.634 293.801 192.325 294.038L183.669 282.085C184.975 281.848 186.322 281.543 187.7 281.169Z" stroke="#1D1D1B" stroke-miterlimit="10"/>
<path d="M183.669 282.085L192.325 294.038C185.465 295.282 179.669 294.658 176.001 292.002C175.888 291.919 175.795 291.827 175.723 291.724L167.068 279.771C167.143 279.874 167.235 279.966 167.345 280.048C171.013 282.705 176.81 283.332 183.669 282.085Z" stroke="#1D1D1B" stroke-miterlimit="10"/>
</g>
<path d="M175.723 291.724L167.068 279.771C167.143 279.874 167.235 279.966 167.345 280.048C175.277 285.797 193.168 282.037 210.215 270.409C228.832 257.708 239.634 240.274 235.081 230.7C235.061 230.658 235.04 230.621 235.016 230.583L243.672 242.536C243.696 242.574 243.716 242.615 243.737 242.653C248.289 252.227 237.488 269.662 218.871 282.362C201.824 293.99 183.933 297.75 176.001 292.002C175.888 291.919 175.795 291.827 175.723 291.724Z" stroke="#1D1D1B" stroke-miterlimit="10"/>
<mask id="mask6_247_1336" style="mask-type:luminance" maskUnits="userSpaceOnUse" x="91" y="209" width="21" height="20">
<path d="M102.156 223.497L91.0834 209.241C93.195 211.959 96.2562 213.663 100.15 214.091C100.356 214.115 100.569 214.108 100.784 214.077L111.857 228.334C111.641 228.365 111.425 228.372 111.223 228.348C107.328 227.923 104.267 226.216 102.156 223.497Z" fill="white"/>
</mask>
<g mask="url(#mask6_247_1336)">
<path d="M102.156 223.497L91.0834 209.241C93.195 211.959 96.2562 213.663 100.15 214.091C100.356 214.115 100.569 214.108 100.784 214.077L111.857 228.334C111.641 228.365 111.425 228.372 111.223 228.348C107.328 227.923 104.267 226.216 102.156 223.497Z" stroke="#1D1D1B" stroke-miterlimit="10"/>
</g>
<path d="M102.156 223.497L91.0834 209.241C93.195 211.959 96.2562 213.663 100.15 214.091C100.356 214.115 100.569 214.108 100.784 214.077L111.857 228.334C111.641 228.365 111.425 228.372 111.223 228.348C107.328 227.923 104.267 226.216 102.156 223.497Z" stroke="#1D1D1B" stroke-miterlimit="10"/>
<path d="M100.785 214.074C100.569 214.105 100.353 214.112 100.15 214.088C88.1799 212.778 84.0904 199.399 91.2102 181.632C98.9848 162.237 117.28 144.706 132.74 141.545C132.805 141.532 132.874 141.521 132.935 141.511C133.861 141.381 134.54 141.72 134.704 142.409C135.534 145.926 136.377 157.571 119.779 177.614C105.95 194.315 104.226 205.185 104.514 210.382C104.6 211.921 102.56 213.82 100.781 214.071L100.785 214.074Z" fill="#C2F530" stroke="#1D1D1B" stroke-miterlimit="10"/>
<path d="M134.498 141.974L145.571 156.231C145.667 156.354 145.739 156.502 145.776 156.67C146.606 160.187 147.449 171.831 130.851 191.875C117.023 208.576 115.298 219.446 115.586 224.642C115.672 226.182 113.632 228.081 111.853 228.331L100.781 214.074C102.56 213.824 104.6 211.925 104.514 210.386C104.226 205.189 105.947 194.319 119.779 177.618C136.377 157.571 135.534 145.926 134.704 142.413C134.663 142.245 134.594 142.097 134.498 141.974Z" stroke="#1D1D1B" stroke-miterlimit="10"/>
<path d="M111.857 228.331L100.785 214.074C100.86 214.064 100.932 214.05 101.007 214.033L112.08 228.29C112.004 228.307 111.929 228.321 111.857 228.331Z" fill="#C2F530" stroke="#1D1D1B" stroke-miterlimit="10"/>
<path d="M112.083 228.293L101.011 214.036C101.1 214.016 101.192 213.995 101.282 213.968L112.354 228.225C112.265 228.252 112.172 228.276 112.083 228.293Z" fill="#C2F530" stroke="#1D1D1B" stroke-miterlimit="10"/>
<path d="M112.354 228.221L101.282 213.964C101.354 213.944 101.426 213.92 101.498 213.892L112.57 228.149C112.498 228.173 112.426 228.197 112.354 228.221Z" fill="#C2F530" stroke="#1D1D1B" stroke-miterlimit="10"/>
<path d="M112.566 228.153L101.494 213.896C101.559 213.872 101.621 213.848 101.686 213.82L112.758 228.077C112.693 228.105 112.632 228.129 112.566 228.153Z" fill="#C2F530" stroke="#1D1D1B" stroke-miterlimit="10"/>
<path d="M112.758 228.077L101.686 213.82C101.744 213.796 101.806 213.769 101.864 213.742L112.937 227.998C112.878 228.026 112.82 228.053 112.758 228.077Z" fill="#C2F530" stroke="#1D1D1B" stroke-miterlimit="10"/>
<path d="M112.937 228.002L101.864 213.745C101.919 213.721 101.974 213.694 102.025 213.666L113.098 227.923C113.043 227.95 112.991 227.978 112.937 228.002Z" fill="#C2F530" stroke="#1D1D1B" stroke-miterlimit="10"/>
<path d="M113.098 227.923L102.025 213.666C102.077 213.639 102.132 213.611 102.183 213.58L113.255 227.837C113.204 227.865 113.149 227.896 113.098 227.923Z" fill="#C2F530" stroke="#1D1D1B" stroke-miterlimit="10"/>
<path d="M113.255 227.837L102.183 213.58C102.235 213.553 102.286 213.522 102.334 213.491L113.406 227.748C113.355 227.779 113.303 227.806 113.255 227.837Z" fill="#C2F530" stroke="#1D1D1B" stroke-miterlimit="10"/>
<path d="M113.41 227.752L102.337 213.495C102.389 213.464 102.437 213.433 102.488 213.402L113.56 227.659C113.512 227.69 113.461 227.721 113.41 227.752Z" fill="#C2F530" stroke="#1D1D1B" stroke-miterlimit="10"/>
<path d="M113.557 227.656L102.485 213.399C102.533 213.368 102.584 213.334 102.632 213.303L113.704 227.56C113.656 227.594 113.609 227.625 113.557 227.656Z" fill="#C2F530" stroke="#1D1D1B" stroke-miterlimit="10"/>
<path d="M113.704 227.56L102.632 213.303C102.68 213.268 102.732 213.234 102.78 213.2L113.852 227.457C113.804 227.491 113.756 227.529 113.704 227.56Z" fill="#C2F530" stroke="#1D1D1B" stroke-miterlimit="10"/>
<path d="M113.852 227.457L102.78 213.2C102.828 213.162 102.876 213.128 102.924 213.09L113.996 227.347C113.948 227.385 113.9 227.422 113.852 227.457Z" fill="#C2F530" stroke="#1D1D1B" stroke-miterlimit="10"/>
<path d="M113.996 227.344L102.924 213.087C102.972 213.049 103.023 213.008 103.071 212.967L114.143 227.224C114.095 227.265 114.047 227.302 113.996 227.344Z" fill="#C2F530" stroke="#1D1D1B" stroke-miterlimit="10"/>
<path d="M114.143 227.224L103.071 212.967C103.122 212.926 103.17 212.881 103.222 212.837L114.294 227.093C114.246 227.138 114.195 227.183 114.143 227.224Z" fill="#C2F530" stroke="#1D1D1B" stroke-miterlimit="10"/>
<path d="M114.291 227.093L103.218 212.837C103.27 212.789 103.321 212.744 103.369 212.696L114.441 226.953C114.394 227.001 114.342 227.049 114.291 227.093Z" fill="#C2F530" stroke="#1D1D1B" stroke-miterlimit="10"/>
<path d="M114.441 226.953L103.369 212.696C103.424 212.641 103.479 212.586 103.53 212.531L114.603 226.788C114.551 226.843 114.496 226.898 114.441 226.953Z" fill="#C2F530" stroke="#1D1D1B" stroke-miterlimit="10"/>
<path d="M114.603 226.788L103.53 212.531C103.592 212.463 103.654 212.394 103.712 212.326L114.784 226.583C114.726 226.651 114.664 226.72 114.603 226.788Z" fill="#C2F530" stroke="#1D1D1B" stroke-miterlimit="10"/>
<path d="M114.784 226.583L103.712 212.326C103.794 212.226 103.873 212.123 103.949 212.021L115.021 226.278C114.949 226.38 114.87 226.483 114.784 226.583Z" fill="#C2F530" stroke="#1D1D1B" stroke-miterlimit="10"/>
<path d="M115.021 226.278L103.949 212.021C104.113 211.788 104.247 211.548 104.346 211.304L115.418 225.561C115.322 225.801 115.185 226.044 115.021 226.278Z" fill="#C2F530" stroke="#1D1D1B" stroke-miterlimit="10"/>
<path d="M115.418 225.565L104.346 211.308C104.387 211.208 104.422 211.105 104.449 211.006L115.521 225.263C115.494 225.362 115.46 225.465 115.418 225.565Z" fill="#C2F530" stroke="#1D1D1B" stroke-miterlimit="10"/>
<path d="M115.521 225.263L104.449 211.006C104.47 210.934 104.483 210.865 104.494 210.797L115.566 225.054C115.556 225.122 115.538 225.194 115.521 225.263Z" fill="#C2F530" stroke="#1D1D1B" stroke-miterlimit="10"/>
<path d="M115.566 225.05L104.494 210.793C104.504 210.735 104.511 210.677 104.514 210.619L115.586 224.875C115.583 224.934 115.576 224.992 115.566 225.05Z" fill="#C2F530" stroke="#1D1D1B" stroke-miterlimit="10"/>
<path d="M115.586 224.875L104.514 210.619C104.518 210.567 104.521 210.519 104.521 210.471L115.593 224.728C115.593 224.776 115.593 224.827 115.586 224.875Z" fill="#C2F530" stroke="#1D1D1B" stroke-miterlimit="10"/>
<path d="M115.593 224.728L104.521 210.471C104.521 210.444 104.521 210.416 104.521 210.386C104.507 210.111 104.497 209.82 104.494 209.511L115.566 223.768C115.566 224.077 115.58 224.368 115.593 224.642C115.593 224.67 115.593 224.697 115.593 224.728Z" fill="#C2F530" stroke="#1D1D1B" stroke-miterlimit="10"/>
<path d="M115.562 223.768L104.49 209.511C104.487 208.966 104.504 208.373 104.552 207.725L115.624 221.982C115.576 222.627 115.556 223.223 115.562 223.768Z" fill="#C2F530" stroke="#1D1D1B" stroke-miterlimit="10"/>
<path d="M115.624 221.982L104.552 207.725C104.603 207.047 104.689 206.31 104.819 205.518L115.891 219.775C115.761 220.567 115.676 221.3 115.624 221.982Z" stroke="#1D1D1B" stroke-miterlimit="10"/>
<path d="M115.892 219.778L104.819 205.521C104.967 204.623 105.172 203.653 105.447 202.608L116.519 216.864C116.245 217.906 116.039 218.877 115.892 219.778Z" stroke="#1D1D1B" stroke-miterlimit="10"/>
<path d="M116.519 216.864L105.447 202.607C105.827 201.164 106.345 199.584 107.034 197.863L118.106 212.12C117.417 213.841 116.899 215.421 116.519 216.864Z" stroke="#1D1D1B" stroke-miterlimit="10"/>
<path d="M125.833 198.401L114.76 184.145C116.224 182.078 117.89 179.904 119.779 177.621C121.678 175.328 123.351 173.141 124.818 171.067L135.89 185.324C134.42 187.398 132.75 189.581 130.851 191.878C128.959 194.161 127.296 196.338 125.833 198.401Z" fill="#1D1D1B" stroke="#1D1D1B" stroke-miterlimit="10"/>
<path d="M143.61 171.605L132.538 157.348C133.22 155.645 133.731 154.078 134.111 152.649L145.183 166.905C144.806 168.335 144.292 169.901 143.61 171.605Z" fill="#1D1D1B" stroke="#1D1D1B" stroke-miterlimit="10"/>
<path d="M145.18 166.905L134.108 152.649C134.385 151.603 134.588 150.633 134.735 149.731L145.807 163.988C145.66 164.886 145.454 165.86 145.18 166.905Z" fill="#1D1D1B" stroke="#1D1D1B" stroke-miterlimit="10"/>
<mask id="mask7_247_1336" style="mask-type:luminance" maskUnits="userSpaceOnUse" x="114" y="211" width="13" height="16">
<path d="M125.366 226.226L114.294 211.969C114.596 212.357 115.154 212.528 115.857 212.429L126.929 226.685C126.227 226.785 125.668 226.613 125.366 226.226Z" fill="white"/>
</mask>
<g mask="url(#mask7_247_1336)">
<path d="M125.366 226.226L114.294 211.969C114.596 212.357 115.154 212.528 115.857 212.429L126.929 226.685C126.227 226.785 125.668 226.613 125.366 226.226Z" stroke="#1D1D1B" stroke-miterlimit="10"/>
</g>
<path d="M125.366 226.226L114.294 211.969C114.596 212.357 115.154 212.528 115.857 212.429L126.929 226.685C126.227 226.785 125.668 226.613 125.366 226.226Z" stroke="#1D1D1B" stroke-miterlimit="10"/>
<path d="M157.712 144.703L168.785 158.959C173.159 164.592 173.457 174.581 168.658 186.561C160.883 205.96 142.588 223.491 127.128 226.651C127.063 226.665 126.995 226.675 126.933 226.685L115.861 212.429C115.926 212.418 115.991 212.408 116.056 212.394C131.516 209.234 149.814 191.707 157.586 172.304C162.388 160.324 162.09 150.335 157.712 144.703Z" stroke="#1D1D1B" stroke-miterlimit="10"/>
<path d="M126.93 226.685L115.857 212.429C115.922 212.418 115.988 212.408 116.053 212.394C116.142 212.377 116.227 212.357 116.317 212.339L127.389 226.596C127.3 226.613 127.214 226.634 127.125 226.651C127.06 226.665 126.991 226.675 126.93 226.685Z" stroke="#1D1D1B" stroke-miterlimit="10"/>
<path d="M127.392 226.596L116.32 212.339C117.067 212.178 117.825 211.986 118.582 211.76L129.655 226.017C128.894 226.243 128.14 226.435 127.392 226.596Z" stroke="#1D1D1B" stroke-miterlimit="10"/>
<path d="M129.655 226.017L118.583 211.76C119.186 211.582 119.793 211.38 120.403 211.164L131.475 225.421C130.865 225.64 130.258 225.839 129.655 226.017Z" stroke="#1D1D1B" stroke-miterlimit="10"/>
<path d="M131.472 225.417L120.399 211.16C120.944 210.965 121.489 210.752 122.038 210.526L133.11 224.783C132.562 225.009 132.017 225.222 131.472 225.417Z" stroke="#1D1D1B" stroke-miterlimit="10"/>
<path d="M133.11 224.783L122.038 210.526C122.559 210.31 123.08 210.084 123.601 209.841L134.673 224.097C134.152 224.341 133.628 224.567 133.11 224.783Z" stroke="#1D1D1B" stroke-miterlimit="10"/>
<path d="M134.677 224.097L123.604 209.84C124.101 209.611 124.602 209.367 125.099 209.114L136.171 223.371C135.674 223.624 135.174 223.868 134.677 224.097Z" stroke="#1D1D1B" stroke-miterlimit="10"/>
<path d="M136.171 223.371L125.099 209.114C125.593 208.864 126.086 208.6 126.58 208.325L137.652 222.582C137.158 222.856 136.665 223.117 136.171 223.371Z" stroke="#1D1D1B" stroke-miterlimit="10"/>
<path d="M137.652 222.586L126.58 208.329C127.074 208.055 127.564 207.773 128.054 207.479L139.126 221.736C138.636 222.03 138.142 222.315 137.652 222.586Z" stroke="#1D1D1B" stroke-miterlimit="10"/>
<path d="M139.126 221.735L128.054 207.479C128.558 207.177 129.058 206.865 129.562 206.543L140.635 220.8C140.134 221.122 139.63 221.434 139.126 221.735Z" stroke="#1D1D1B" stroke-miterlimit="10"/>
<path d="M140.634 220.8L129.562 206.543C130.076 206.21 130.591 205.871 131.101 205.514L142.174 219.771C141.663 220.124 141.149 220.467 140.634 220.8Z" stroke="#1D1D1B" stroke-miterlimit="10"/>
<path d="M142.174 219.771L131.101 205.514C131.629 205.151 132.154 204.774 132.678 204.39L143.75 218.647C143.226 219.034 142.702 219.408 142.174 219.771Z" stroke="#1D1D1B" stroke-miterlimit="10"/>
<path d="M143.754 218.647L132.682 204.39C133.247 203.975 133.809 203.543 134.368 203.105L145.44 217.361C144.882 217.804 144.32 218.232 143.754 218.647Z" stroke="#1D1D1B" stroke-miterlimit="10"/>
<path d="M145.44 217.358L134.368 203.101C134.961 202.631 135.554 202.152 136.14 201.655L147.213 215.911C146.626 216.405 146.033 216.888 145.44 217.358Z" stroke="#1D1D1B" stroke-miterlimit="10"/>
<path d="M147.213 215.915L136.14 201.658C136.775 201.123 137.405 200.571 138.033 200.002L149.105 214.259C148.481 214.825 147.85 215.377 147.213 215.915Z" stroke="#1D1D1B" stroke-miterlimit="10"/>
<path d="M149.101 214.259L138.029 200.002C138.728 199.368 139.417 198.72 140.103 198.052L151.175 212.309C150.493 212.977 149.801 213.625 149.101 214.259Z" stroke="#1D1D1B" stroke-miterlimit="10"/>
<path d="M151.175 212.309L140.103 198.052C140.905 197.267 141.694 196.461 142.472 195.635L153.544 209.892C152.766 210.721 151.978 211.527 151.175 212.309Z" stroke="#1D1D1B" stroke-miterlimit="10"/>
<path d="M153.544 209.892L142.472 195.635C143.452 194.59 144.412 193.513 145.344 192.403L156.417 206.659C155.484 207.767 154.524 208.846 153.544 209.892Z" stroke="#1D1D1B" stroke-miterlimit="10"/>
<path d="M156.413 206.659L145.341 192.403C146.781 190.689 148.162 188.906 149.465 187.062L160.537 201.319C159.235 203.159 157.857 204.945 156.413 206.659Z" stroke="#1D1D1B" stroke-miterlimit="10"/>
<path d="M168.675 186.517L157.603 172.26C158.48 170.066 159.187 167.941 159.728 165.898L170.8 180.154C170.259 182.197 169.553 184.326 168.675 186.517Z" stroke="#1D1D1B" stroke-miterlimit="10"/>
<path d="M170.8 180.154L159.728 165.898C160.102 164.485 160.397 163.111 160.616 161.781L171.688 176.037C171.469 177.368 171.174 178.742 170.8 180.154Z" stroke="#1D1D1B" stroke-miterlimit="10"/>
<path d="M171.688 176.037L160.616 161.781C160.794 160.704 160.921 159.655 160.996 158.641L172.069 172.897C171.99 173.916 171.863 174.961 171.688 176.037Z" stroke="#1D1D1B" stroke-miterlimit="10"/>
<path d="M172.072 172.897L161 158.641C161.069 157.749 161.099 156.882 161.093 156.039L172.165 170.296C172.172 171.139 172.141 172.006 172.072 172.897Z" stroke="#1D1D1B" stroke-miterlimit="10"/>
<path d="M172.165 170.296L161.092 156.039C161.086 155.281 161.051 154.544 160.986 153.828L172.058 168.085C172.124 168.801 172.158 169.538 172.165 170.296Z" stroke="#1D1D1B" stroke-miterlimit="10"/>
<path d="M172.058 168.085L160.986 153.828C160.928 153.17 160.842 152.532 160.732 151.912L171.805 166.168C171.914 166.789 172 167.426 172.058 168.085Z" stroke="#1D1D1B" stroke-miterlimit="10"/>
<path d="M171.805 166.168L160.733 151.912C160.63 151.332 160.506 150.77 160.362 150.228L171.435 164.485C171.579 165.03 171.702 165.589 171.805 166.168Z" stroke="#1D1D1B" stroke-miterlimit="10"/>
<path d="M171.435 164.485L160.362 150.228C160.225 149.714 160.071 149.214 159.896 148.734L170.968 162.991C171.143 163.474 171.297 163.971 171.435 164.485Z" stroke="#1D1D1B" stroke-miterlimit="10"/>
<path d="M170.968 162.987L159.896 148.73C159.728 148.268 159.546 147.822 159.344 147.39L170.417 161.647C170.619 162.079 170.8 162.524 170.968 162.987Z" stroke="#1D1D1B" stroke-miterlimit="10"/>
<path d="M170.417 161.647L159.344 147.39C159.149 146.972 158.94 146.567 158.714 146.18L169.786 160.437C170.012 160.824 170.221 161.229 170.417 161.647Z" stroke="#1D1D1B" stroke-miterlimit="10"/>
<path d="M169.782 160.437L158.71 146.18C158.487 145.8 158.251 145.436 158 145.087L169.073 159.343C169.323 159.693 169.56 160.056 169.782 160.437Z" fill="#C2F530" stroke="#1D1D1B" stroke-miterlimit="10"/>
<path d="M169.073 159.343L158 145.086C157.908 144.956 157.812 144.829 157.713 144.703L168.785 158.959C168.884 159.086 168.98 159.213 169.073 159.343Z" fill="#C2F530" stroke="#1D1D1B" stroke-miterlimit="10"/>
<path d="M115.857 212.429C114.932 212.559 114.25 212.219 114.088 211.53C113.259 208.017 112.412 196.372 129.014 176.322C142.842 159.621 144.563 148.754 144.275 143.558C144.189 142.018 146.229 140.119 148.008 139.869C148.224 139.838 148.44 139.831 148.642 139.855C160.613 141.161 164.706 154.541 157.586 172.308C149.811 191.707 131.516 209.237 116.056 212.398C115.991 212.411 115.922 212.422 115.861 212.432L115.857 212.429Z" fill="#C2F530" stroke="#1D1D1B" stroke-miterlimit="10"/>
<path d="M375.885 133.277L371.212 159.419C371.181 159.59 371.144 159.762 371.103 159.93L375.775 133.788C375.819 133.62 375.854 133.449 375.885 133.277Z" fill="#C2F530" stroke="#1D1D1B" stroke-miterlimit="10"/>
<path d="M367.62 140.778L362.947 166.919C362.927 166.926 362.906 166.933 362.886 166.94C362.803 166.967 362.718 166.991 362.632 167.015L367.304 140.874C367.394 140.85 367.476 140.826 367.558 140.798C367.579 140.791 367.599 140.784 367.62 140.778Z" fill="#C2F530" stroke="#1D1D1B" stroke-miterlimit="10"/>
<path d="M367.304 140.874L362.632 167.015C362.526 167.043 362.416 167.067 362.303 167.087L366.975 140.946C367.088 140.925 367.198 140.901 367.304 140.874Z" fill="#C2F530" stroke="#1D1D1B" stroke-miterlimit="10"/>
<path d="M366.975 140.946L362.303 167.087C362.221 167.101 362.138 167.115 362.053 167.128C361.981 167.139 361.905 167.149 361.826 167.156L366.499 141.014C366.574 141.007 366.65 140.997 366.725 140.987C366.811 140.976 366.893 140.963 366.975 140.946Z" fill="#C2F530" stroke="#1D1D1B" stroke-miterlimit="10"/>
<path d="M364.37 140.987L359.698 167.128C359.509 167.108 359.321 167.084 359.132 167.056L363.804 140.915C363.993 140.942 364.182 140.966 364.37 140.987Z" fill="#C2F530" stroke="#1D1D1B" stroke-miterlimit="10"/>
<path d="M363.804 140.915L359.132 167.056C358.985 167.032 358.834 167.008 358.687 166.981L363.359 140.839C363.506 140.867 363.654 140.891 363.804 140.915Z" fill="#C2F530" stroke="#1D1D1B" stroke-miterlimit="10"/>
<path d="M363.359 140.839L358.686 166.981C358.553 166.957 358.422 166.929 358.292 166.902L362.965 140.76C363.095 140.788 363.228 140.815 363.359 140.839Z" fill="#C2F530" stroke="#1D1D1B" stroke-miterlimit="10"/>
<path d="M362.965 140.764L358.292 166.905C358.169 166.878 358.049 166.851 357.926 166.823L362.598 140.682C362.718 140.712 362.841 140.74 362.965 140.764Z" fill="#C2F530" stroke="#1D1D1B" stroke-miterlimit="10"/>
<path d="M362.601 140.678L357.929 166.82C357.812 166.792 357.699 166.761 357.586 166.731L362.258 140.589C362.372 140.62 362.488 140.651 362.601 140.678Z" fill="#C2F530" stroke="#1D1D1B" stroke-miterlimit="10"/>
<path d="M362.255 140.592L357.583 166.734C357.473 166.703 357.363 166.672 357.254 166.641L361.926 140.5C362.032 140.531 362.142 140.562 362.255 140.592Z" fill="#C2F530" stroke="#1D1D1B" stroke-miterlimit="10"/>
<path d="M361.929 140.5L357.257 166.641C357.151 166.611 357.044 166.576 356.942 166.542L361.614 140.4C361.717 140.435 361.823 140.469 361.929 140.5Z" fill="#C2F530" stroke="#1D1D1B" stroke-miterlimit="10"/>
<path d="M361.614 140.401L356.942 166.542C356.839 166.508 356.736 166.474 356.633 166.436L361.305 140.294C361.405 140.332 361.508 140.366 361.614 140.401Z" fill="#C2F530" stroke="#1D1D1B" stroke-miterlimit="10"/>
<path d="M361.309 140.294L356.637 166.436C356.534 166.398 356.431 166.36 356.331 166.319L361.004 140.178C361.103 140.219 361.203 140.257 361.309 140.294Z" fill="#C2F530" stroke="#1D1D1B" stroke-miterlimit="10"/>
<path d="M361.004 140.178L356.331 166.319C356.225 166.278 356.126 166.234 356.026 166.189L360.699 140.047C360.798 140.092 360.901 140.137 361.004 140.178Z" fill="#C2F530" stroke="#1D1D1B" stroke-miterlimit="10"/>
<path d="M360.699 140.044L356.026 166.186C355.917 166.134 355.81 166.083 355.708 166.031L360.38 139.89C360.483 139.941 360.589 139.993 360.699 140.044Z" fill="#C2F530" stroke="#1D1D1B" stroke-miterlimit="10"/>
<path d="M360.38 139.893L355.708 166.035C355.581 165.97 355.461 165.901 355.348 165.832L360.02 139.691C360.133 139.759 360.253 139.828 360.38 139.893Z" fill="#C2F530" stroke="#1D1D1B" stroke-miterlimit="10"/>
<path d="M289.36 105.103L284.687 131.244C282.428 130.086 280.437 128.968 278.685 127.899L283.357 101.757C285.109 102.823 287.097 103.941 289.36 105.103Z" fill="#1D1D1B" stroke="#1D1D1B" stroke-miterlimit="10"/>
<path d="M272.511 89.0155C272.6 89.0018 272.696 88.9915 272.792 88.9812C295.095 86.7942 331.475 96.0154 355.601 110.169C377.691 123.13 382.099 135.886 367.558 140.798C367.308 140.88 367.03 140.946 366.725 140.987C364.24 141.336 360.222 140.356 359.214 139.009C355.828 134.467 345.715 125.701 315.714 115.774C279.7 103.859 272.354 93.6158 270.876 90.3421C270.588 89.6977 271.215 89.1938 272.511 89.0121V89.0155Z" fill="#C2F530" stroke="#1D1D1B" stroke-miterlimit="10"/>
<path d="M347.724 143.417L343.052 169.559C342.973 170.008 342.366 170.347 341.355 170.488C341.266 170.501 341.17 170.512 341.074 170.522C318.775 172.712 282.391 163.488 258.268 149.334C243.761 140.822 236.881 132.4 237.985 126.229L242.657 100.088C241.553 106.258 248.433 114.681 262.94 123.192C287.063 137.346 323.447 146.571 345.746 144.38C345.842 144.37 345.938 144.36 346.027 144.346C347.038 144.206 347.642 143.866 347.724 143.417Z" stroke="#1D1D1B" stroke-miterlimit="10"/>
<path d="M327.266 144.038L322.594 170.179C320.749 169.98 318.871 169.733 316.965 169.449L321.637 143.307C323.543 143.592 325.422 143.839 327.266 144.038Z" fill="#1D1D1B" stroke="#1D1D1B" stroke-miterlimit="10"/>
<path d="M302.468 139.242L297.796 165.383C296.157 164.941 294.519 164.475 292.884 163.985L297.556 137.843C299.191 138.333 300.83 138.8 302.468 139.242Z" stroke="#1D1D1B" stroke-miterlimit="10"/>
<path d="M297.556 137.843L292.884 163.985C291.187 163.477 289.493 162.943 287.807 162.384L292.479 136.242C294.162 136.801 295.856 137.332 297.556 137.843Z" stroke="#1D1D1B" stroke-miterlimit="10"/>
<path d="M287.197 134.405L282.524 160.547C280.632 159.858 278.761 159.138 276.913 158.39L281.585 132.249C283.433 132.996 285.304 133.716 287.197 134.405Z" stroke="#1D1D1B" stroke-miterlimit="10"/>
<path d="M275.613 129.698L270.941 155.84C268.692 154.825 266.495 153.77 264.366 152.676L269.039 126.534C271.167 127.628 273.365 128.684 275.613 129.698Z" stroke="#1D1D1B" stroke-miterlimit="10"/>
<path d="M261.384 122.263L256.712 148.405C243.271 140.212 236.922 132.177 237.985 126.229L242.657 100.088C241.595 106.032 247.943 114.07 261.384 122.263Z" fill="#1D1D1B" stroke="#1D1D1B" stroke-miterlimit="10"/>
<path d="M251.82 92.3749C254.298 92.0253 258.316 93.0057 259.32 94.3528C262.714 98.8949 272.82 107.66 302.825 117.587C338.842 129.503 346.188 139.742 347.662 143.016C347.947 143.66 347.319 144.164 346.024 144.346C345.934 144.36 345.838 144.37 345.743 144.38C323.444 146.571 287.059 137.346 262.937 123.192C240.844 110.228 236.439 97.4723 250.984 92.5634C251.234 92.4777 251.512 92.416 251.817 92.3749H251.82Z" fill="#C2F530" stroke="#1D1D1B" stroke-miterlimit="10"/>
<path d="M346.133 140.565L348.06 129.781C346.312 128.715 344.323 127.601 342.068 126.442L340.501 135.204C343.271 137.319 345.023 139.132 346.13 140.562L346.133 140.565Z" fill="#1D1D1B" stroke="#1D1D1B" stroke-miterlimit="10"/>
<path d="M367.558 140.798C367.308 140.88 367.03 140.946 366.725 140.987C364.24 141.336 360.222 140.356 359.214 139.009C355.828 134.467 345.715 125.701 315.714 115.774C279.7 103.859 272.353 93.6158 270.876 90.3421C270.811 90.2016 270.794 90.0645 270.814 89.9411L268.59 102.388C275.212 106.711 285.822 111.959 302.821 117.584C338.839 129.5 346.185 139.739 347.659 143.013C347.727 143.167 347.738 143.311 347.707 143.445C347.707 143.434 347.714 143.424 347.717 143.414L345.269 157.108C350.336 160.413 353.071 163.176 354.539 165.147C355.546 166.494 359.564 167.474 362.049 167.125C362.351 167.084 362.632 167.019 362.882 166.936C367.873 165.25 370.633 162.641 371.209 159.415L375.881 133.274C375.305 136.499 372.546 139.112 367.555 140.795L367.558 140.798Z" stroke="#1D1D1B" stroke-miterlimit="10"/>
<path d="M334.797 131.368L336.182 123.617C334.273 122.757 332.216 121.876 329.998 120.981L328.737 128.032C331.013 129.188 333.025 130.302 334.794 131.368H334.797Z" fill="#1D1D1B" stroke="#1D1D1B" stroke-miterlimit="10"/>
<path d="M322.097 124.896L323.259 118.393C320.897 117.529 318.384 116.659 315.714 115.774C313.05 114.893 310.541 114.019 308.179 113.159L307.127 119.051C312.889 121.063 317.839 123.021 322.093 124.896H322.097Z" fill="#1D1D1B" stroke="#1D1D1B" stroke-miterlimit="10"/>
</svg>
