<svg width="24" height="24" viewBox="0 0 24 24" fill="none" xmlns="http://www.w3.org/2000/svg">
<g clip-path="url(#clip0_249_662)">
<path d="M12.15 0.674988C9.14995 0.674988 6.33745 1.83749 4.23745 3.93749C0.787451 7.42499 -4.8697e-05 12.7875 2.28745 17.1L0.712451 22.2375C0.637451 22.5375 0.712451 22.875 0.937451 23.1C1.08745 23.25 1.31245 23.325 1.53745 23.325C1.61245 23.325 1.72495 23.325 1.79995 23.2875L6.74995 21.6375C10.1624 23.55 14.2124 23.5125 17.6624 21.5625C21.2249 19.5375 23.3624 15.9 23.3624 11.85C23.3624 5.69999 18.3375 0.674988 12.15 0.674988ZM16.8375 20.1C13.8375 21.825 10.2374 21.75 7.27495 19.9875C7.12495 19.9125 6.97495 19.875 6.82495 19.875C6.74995 19.875 6.63745 19.875 6.56245 19.9125L2.77495 21.15L4.01245 17.25C4.08745 17.025 4.04995 16.8 3.93745 16.575C1.79995 12.8625 2.43745 8.17499 5.47495 5.13749C7.27495 3.33749 9.63745 2.36249 12.1875 2.36249C17.4375 2.36249 21.6749 6.63749 21.6749 11.85C21.6749 15.3 19.8375 18.375 16.8375 20.1Z" fill="#A0A0A0"/>
</g>
<defs>
<clipPath id="clip0_249_662">
<rect width="24" height="24" fill="white"/>
</clipPath>
</defs>
</svg>
