<svg width="19" height="18" viewBox="0 0 19 18" fill="none" xmlns="http://www.w3.org/2000/svg">
<path d="M15.1531 9.0281L16.025 7.31248C16.3062 6.74998 16.2781 6.07498 15.9406 5.5406C15.6031 5.00623 15.0406 4.66873 14.3937 4.66873H11.75V3.54373C11.75 2.7281 11.075 2.08123 10.2875 2.08123H4.0437V1.12498C4.0437 0.787476 3.76245 0.506226 3.42495 0.506226C3.08745 0.506226 2.77808 0.787476 2.77808 1.12498V16.875C2.77808 17.2125 3.05933 17.4937 3.39683 17.4937C3.73433 17.4937 4.01558 17.2125 4.01558 16.875V11.0531H8.71245V11.5594C8.71245 12.5719 9.52808 13.3875 10.5406 13.3875H14.3656C15.0125 13.3875 15.575 13.05 15.9125 12.5156C16.25 11.9812 16.2781 11.3062 15.9968 10.7437L15.1531 9.0281ZM4.0437 3.37498H10.2593C10.3718 3.37498 10.4843 3.45935 10.4843 3.59998V9.61873C10.4843 9.73123 10.4 9.84373 10.2593 9.84373H9.35933H4.0437V3.37498ZM13.8593 9.30935L14.8718 11.3062C14.9843 11.5594 14.9 11.7562 14.8437 11.8406C14.7875 11.925 14.6468 12.0937 14.3656 12.0937H10.5687C10.2593 12.0937 10.0062 11.8406 10.0062 11.5312V11.025H10.2875C11.1031 11.025 11.75 10.35 11.75 9.56248V5.96248H14.3937C14.675 5.96248 14.8156 6.15935 14.8718 6.2156C14.9281 6.29998 15.0125 6.49685 14.9 6.74998L13.8875 8.74685C13.775 8.9156 13.775 9.1406 13.8593 9.30935Z" fill="#EB8052"/>
</svg>
