<svg width="70" height="70" viewBox="0 0 70 70" fill="none" xmlns="http://www.w3.org/2000/svg">
<rect width="70" height="70" rx="16" fill="#F4F4F4"/>
<g clip-path="url(#clip0_247_761)">
<path fill-rule="evenodd" clip-rule="evenodd" d="M26.4652 35C26.4652 34.0257 26.6269 33.0915 26.9159 32.2154L21.8604 28.355C20.8751 30.3554 20.3201 32.6096 20.3201 35C20.3201 37.3885 20.8747 39.6411 21.8583 41.6403L26.911 37.7724C26.6248 36.9003 26.4652 35.9696 26.4652 35Z" fill="#FBBC05"/>
<path fill-rule="evenodd" clip-rule="evenodd" d="M35.3415 26.1364C37.4581 26.1364 39.3699 26.8864 40.872 28.1136L45.2417 23.75C42.579 21.4318 39.1651 20 35.3415 20C29.4052 20 24.3034 23.3947 21.8605 28.355L26.9157 32.2154C28.0806 28.6796 31.4009 26.1364 35.3415 26.1364Z" fill="#EA4335"/>
<path fill-rule="evenodd" clip-rule="evenodd" d="M35.3415 43.8636C31.4012 43.8636 28.0808 41.3204 26.9159 37.7846L21.8605 41.6443C24.3034 46.6053 29.4052 50 35.3415 50C39.0052 50 42.5033 48.699 45.1285 46.2615L40.3299 42.5518C38.9759 43.4047 37.2709 43.8636 35.3415 43.8636Z" fill="#34A853"/>
<path fill-rule="evenodd" clip-rule="evenodd" d="M49.6799 35C49.6799 34.1136 49.5432 33.159 49.3384 32.2728H35.3415V38.0682H43.3984C42.9955 40.0442 41.8991 41.5632 40.3299 42.5518L45.1285 46.2615C47.8862 43.7021 49.6799 39.8893 49.6799 35Z" fill="#4285F4"/>
</g>
<defs>
<clipPath id="clip0_247_761">
<rect width="30" height="30" fill="white" transform="translate(20 20)"/>
</clipPath>
</defs>
</svg>
