<svg width="16" height="16" viewBox="0 0 16 16" fill="none" xmlns="http://www.w3.org/2000/svg">
<g clip-path="url(#clip0_213_787)">
<path d="M14.1467 1.85333C12.8934 0.599994 11.06 0.0866608 9.00002 0.419994C7.01335 0.733327 5.02669 1.79999 3.41335 3.41333C1.80002 5.02666 0.733353 7.01333 0.413353 8.99999C0.0866865 11.0667 0.593353 12.8933 1.84669 14.1467C2.85335 15.1533 4.22669 15.68 5.80002 15.68C6.18669 15.68 6.58669 15.6467 7.00002 15.58C8.98669 15.2667 10.9734 14.2 12.5867 12.5867C14.2 10.9733 15.2667 8.98666 15.58 6.99999C15.9067 4.93333 15.4 3.10666 14.1467 1.85333ZM1.71335 9.20666C1.98669 7.49333 2.92002 5.75999 4.34002 4.33999C5.76002 2.91999 7.48669 1.98666 9.20669 1.71333C9.54669 1.65999 9.87335 1.63333 10.1934 1.63333C11.1267 1.63333 11.9667 1.86666 12.6467 2.31333C12.6267 2.64666 12.5267 3.24666 12.1667 3.93999C11.4267 5.36666 9.90669 6.55333 7.76669 7.37999C3.98669 8.83999 2.52669 10.6533 1.97335 11.98C1.64669 11.18 1.56002 10.2333 1.72002 9.2L1.71335 9.20666ZM14.2867 6.79333C14.0134 8.50666 13.08 10.24 11.66 11.66C10.24 13.08 8.51335 14.0133 6.79335 14.2867C5.25335 14.5333 3.90669 14.2133 2.96002 13.3867C2.97335 13.12 3.05335 12.6133 3.44669 11.9733C4.44002 10.3467 6.60002 9.24666 8.24002 8.62C11.3867 7.40666 12.7734 5.68666 13.38 4.45999C13.5534 4.11333 13.6734 3.77999 13.7667 3.48666C14.3067 4.37999 14.4934 5.52666 14.2867 6.79999V6.79333Z" fill="#EB8052"/>
</g>
<defs>
<clipPath id="clip0_213_787">
<rect width="16" height="16" fill="white"/>
</clipPath>
</defs>
</svg>
