<svg width="19" height="19" viewBox="0 0 19 19" fill="none" xmlns="http://www.w3.org/2000/svg">
<g clip-path="url(#clip0_257_2621)">
<path d="M15.7309 18.0219H13.6817C13.3771 18.0219 13.1001 17.9094 12.8786 17.6844C12.6571 17.4594 12.5463 17.1781 12.5463 16.8688V14.3938C12.5463 14.1125 12.3248 13.8875 12.0478 13.8875H9.08476C8.80784 13.8875 8.5863 14.1125 8.5863 14.3938V16.8688C8.5863 17.1781 8.47553 17.4594 8.25399 17.6844C8.03245 17.9094 7.75553 18.0219 7.45091 18.0219H5.40168C5.26322 18.0219 5.09707 17.9938 4.95861 17.9375C4.82014 17.8813 4.68168 17.7969 4.59861 17.6844C4.48784 17.5719 4.40476 17.4594 4.34937 17.3188C4.29399 17.1781 4.2663 17.0375 4.2663 16.8688V9.86563V9.8375L4.23861 7.98125C4.23861 7.925 4.18322 7.86875 4.12784 7.86875H3.82322C3.49091 7.86875 3.13091 7.8125 2.79861 7.67188C2.4663 7.53125 2.16168 7.33438 1.91245 7.10938C1.66322 6.85625 1.46937 6.575 1.33091 6.2375C1.19245 5.9 1.10938 5.5625 1.10938 5.19688V4.18438C1.10938 4.01563 1.13707 3.875 1.19245 3.73438C1.24784 3.59375 1.33091 3.45313 1.46937 3.36875C1.58014 3.25625 1.71861 3.17188 1.85707 3.11563C1.99553 3.05938 2.16168 3.03125 2.30014 3.03125H3.96168L4.01707 2.91875C4.15553 2.6375 4.37707 2.4125 4.6263 2.24375C4.87553 2.075 5.18014 1.99063 5.48476 1.99063H6.95245L7.64476 1.2875C7.83861 1.175 8.03245 1.0625 8.25399 1.00625C8.47553 0.950004 8.69707 0.978129 8.89091 1.0625C9.08476 1.14688 9.27861 1.2875 9.38937 1.48438C9.52784 1.68125 9.58322 1.90625 9.58322 2.13125V7.53125H15.1771C15.2878 7.53125 15.3986 7.50313 15.454 7.41875C15.5371 7.3625 15.5648 7.25 15.5648 7.16563C15.5648 6.71563 15.7586 6.29375 16.0632 5.98438C16.3678 5.675 16.7832 5.50625 17.2263 5.50625C17.5586 5.50625 17.8632 5.7875 17.8632 6.15313C17.8632 6.51875 17.5863 6.8 17.2263 6.8C17.1155 6.8 17.0048 6.85625 16.9217 6.9125C16.8386 6.99688 16.8109 7.08125 16.8109 7.19375L16.8386 16.8969C16.8386 17.2063 16.7278 17.4875 16.5063 17.7125C16.3125 17.8813 16.0078 18.0219 15.7309 18.0219ZM13.7648 16.7563H15.6201L15.5925 8.74063C15.454 8.76875 15.3155 8.79688 15.1771 8.79688H9.83245L9.22322 9.02188H9.19553L5.51245 10.3156V16.7563H7.36784V14.4219C7.36784 13.4656 8.14322 12.65 9.11245 12.65H12.0478C12.9894 12.65 13.7925 13.4375 13.7925 14.4219V16.7563H13.7648ZM4.12784 6.63125C4.87553 6.63125 5.48476 7.25 5.48476 8.00938V8.99375L8.33707 7.98125V2.4125L7.45091 3.28438H5.45707C5.37399 3.28438 5.29091 3.3125 5.23553 3.34063C5.18014 3.36875 5.12476 3.425 5.09707 3.50938L4.68168 4.29688H2.38322V5.19688C2.38322 5.39375 2.41091 5.5625 2.49399 5.73125C2.57707 5.9 2.66014 6.06875 2.79861 6.18125C2.93707 6.32188 3.10322 6.40625 3.26938 6.49063C3.43553 6.575 3.62938 6.60313 3.82322 6.60313H4.12784V6.63125Z" fill="#1D1D1B"/>
</g>
<defs>
<clipPath id="clip0_257_2621">
<rect width="18" height="18" fill="white" transform="translate(0.5 0.5)"/>
</clipPath>
</defs>
</svg>
