<?xml version="1.0" encoding="UTF-8"?>
<svg id="Camada_1" xmlns="http://www.w3.org/2000/svg" version="1.1" viewBox="0 0 512 512">
  <!-- Generator: Adobe Illustrator 29.7.1, SVG Export Plug-In . SVG Version: 2.1.1 Build 8)  -->
  <defs>
    <style>
      .st0 {
        fill: #e7e4de;
      }

      .st1 {
        fill: #45242d;
      }

      .st2 {
        fill: #eb8052;
      }
    </style>
  </defs>
  <path class="st0" d="M413,193.73c-1.1-5.38-5.85-9.24-11.36-9.24H110.04c-5.51,0-10.26,3.86-11.36,9.24-2.16,10.54-3.26,21.38-3.26,32.22,0,88.2,71.96,159.96,160.42,159.96s160.42-71.76,160.42-159.96c0-10.84-1.1-21.68-3.26-32.22Z"/>
  <rect class="st2" x="3.14" y="3.29" width="505.71" height="505.71" rx="109.77" ry="109.77"/>
  <path class="st0" d="M413,193.73c-1.1-5.38-5.85-9.24-11.36-9.24H110.04c-5.51,0-10.26,3.86-11.36,9.24-2.16,10.54-3.26,21.38-3.26,32.22,0,88.2,71.96,159.96,160.42,159.96s160.42-71.76,160.42-159.96c0-10.84-1.1-21.68-3.26-32.22Z"/>
  <path class="st1" d="M354.23,240.35c-21.86,3.3-58.07,5.4-101.93-4.86-1.36-.32-2.71-.62-4.05-.91-50.63-10.9-86.78-.72-103.11,5.86-1.87.75-2.94,2.72-2.56,4.7.9,4.66,2.05,9.23,3.46,13.67,15.04,47.49,58.36,81.81,109.48,81.81,56.44,0,103.36-41.84,113.22-97.04,0-.02,0-.04.01-.06.52-2.91-2.08-5.42-4.97-4.84-2.77.55-5.96,1.13-9.56,1.67Z"/>
</svg>