<svg width="25" height="25" viewBox="0 0 25 25" fill="none" xmlns="http://www.w3.org/2000/svg">
<path d="M17.1531 2.45918C18.582 2.45918 19.9524 3.02682 20.9628 4.03722C21.9732 5.04762 22.5408 6.41802 22.5408 7.84694V17.1531C22.5408 18.582 21.9732 19.9524 20.9628 20.9628C19.9524 21.9732 18.582 22.5408 17.1531 22.5408H7.84694C6.41802 22.5408 5.04762 21.9732 4.03722 20.9628C3.02682 19.9524 2.45918 18.582 2.45918 17.1531V7.84694C2.45918 6.41802 3.02682 5.04762 4.03722 4.03722C5.04762 3.02682 6.41802 2.45918 7.84694 2.45918H17.1531ZM17.1531 0.5H7.84694C5.9002 0.505814 4.03485 1.28173 2.65829 2.65829C1.28173 4.03485 0.505814 5.9002 0.5 7.84694V17.1531C0.505814 19.0998 1.28173 20.9651 2.65829 22.3417C4.03485 23.7183 5.9002 24.4942 7.84694 24.5H17.1531C19.0998 24.4942 20.9651 23.7183 22.3417 22.3417C23.7183 20.9651 24.4942 19.0998 24.5 17.1531V7.84694C24.4942 5.9002 23.7183 4.03485 22.3417 2.65829C20.9651 1.28173 19.0998 0.505814 17.1531 0.5Z" fill="#EB8052"/>
<path d="M18.9018 4.66327C18.6243 4.66327 18.353 4.74557 18.1222 4.89976C17.8914 5.05395 17.7116 5.27311 17.6054 5.52953C17.4991 5.78594 17.4714 6.06809 17.5255 6.3403C17.5796 6.6125 17.7133 6.86254 17.9095 7.05879C18.1058 7.25504 18.3558 7.38869 18.628 7.44284C18.9002 7.49698 19.1824 7.46919 19.4388 7.36298C19.6952 7.25677 19.9144 7.07691 20.0686 6.84615C20.2228 6.61538 20.3051 6.34407 20.3051 6.06653C20.3051 5.88225 20.2688 5.69978 20.1982 5.52953C20.1277 5.35928 20.0244 5.20458 19.8941 5.07428C19.7638 4.94397 19.6091 4.84061 19.4388 4.77009C19.2686 4.69957 19.0861 4.66327 18.9018 4.66327Z" fill="#EB8052"/>
<path d="M12.5663 8.20694C13.4228 8.20645 14.2603 8.46004 14.9727 8.93562C15.6851 9.4112 16.2405 10.0874 16.5685 10.8787C16.8965 11.6699 16.9824 12.5407 16.8155 13.3808C16.6485 14.221 16.236 14.9927 15.6304 15.5984C15.0247 16.204 14.253 16.6165 13.4128 16.7835C12.5727 16.9504 11.7019 16.8645 10.9107 16.5365C10.1194 16.2085 9.4432 15.6531 8.96762 14.9407C8.49204 14.2283 8.23846 13.3908 8.23894 12.5343C8.24088 11.3872 8.69742 10.2876 9.50854 9.47653C10.3197 8.66542 11.4192 8.20888 12.5663 8.20694ZM12.5663 6.24775C11.3229 6.25017 10.1081 6.62113 9.07541 7.31376C8.04275 8.00638 7.23858 8.98957 6.76453 10.1391C6.29048 11.2886 6.16783 12.5528 6.41207 13.772C6.65631 14.9912 7.25649 16.1107 8.13675 16.9889C9.01701 17.8671 10.1378 18.4647 11.3576 18.706C12.5774 18.9474 13.8413 18.8218 14.9897 18.3451C16.1381 17.8684 17.1195 17.0619 17.8097 16.0276C18.4999 14.9934 18.868 13.7777 18.8675 12.5343C18.8672 11.7076 18.7039 10.889 18.3869 10.1255C18.07 9.36199 17.6056 8.66844 17.0203 8.08455C16.4351 7.50067 15.7404 7.0379 14.9762 6.72272C14.2119 6.40754 13.393 6.24614 12.5663 6.24775Z" fill="#EB8052"/>
</svg>
