<svg width="205" height="60" viewBox="0 0 205 60" fill="none" xmlns="http://www.w3.org/2000/svg">
<g clip-path="url(#clip0_77_104)">
<path d="M48.3833 22.5921C48.2512 21.9551 47.6901 21.4973 47.0431 21.4973H12.6223C11.9754 21.4973 11.4142 21.9551 11.2822 22.5921C11.0247 23.8394 10.8993 25.1266 10.8993 26.4138C10.8993 36.8771 19.3956 45.3898 29.8327 45.3898C40.2699 45.3898 48.7662 36.8771 48.7662 26.4138C48.7662 25.1266 48.6341 23.8394 48.3833 22.5921Z" fill="#E7E4DE"/>
<path d="M46.7394 0H12.959C5.80193 0 0 5.83124 0 13.0244V46.9756C0 54.1688 5.80193 60 12.959 60H46.7394C53.8965 60 59.6984 54.1688 59.6984 46.9756V13.0244C59.6984 5.83124 53.8965 0 46.7394 0Z" fill="#EB8052"/>
<path d="M48.3833 22.5921C48.2512 21.9551 47.6901 21.4973 47.0431 21.4973H12.6223C11.9754 21.4973 11.4142 21.9551 11.2822 22.5921C11.0247 23.8394 10.8993 25.1266 10.8993 26.4138C10.8993 36.8771 19.3956 45.3898 29.8327 45.3898C40.2699 45.3898 48.7662 36.8771 48.7662 26.4138C48.7662 25.1266 48.6341 23.8394 48.3833 22.5921Z" fill="#E7E4DE"/>
<path d="M41.4449 28.1256C38.8637 28.5171 34.5924 28.7692 29.4102 27.5484C29.2517 27.5086 29.0933 27.4754 28.9349 27.4422C22.9604 26.1484 18.6892 27.356 16.7615 28.1389C16.5436 28.2252 16.4116 28.464 16.4578 28.6962C16.5634 29.2469 16.7021 29.791 16.8671 30.3218C18.6429 35.9549 23.7592 40.0288 29.7931 40.0288C36.4541 40.0288 41.9929 35.0658 43.1613 28.5171C43.1613 28.5171 43.1613 28.5171 43.1613 28.5105C43.2208 28.1654 42.9171 27.8669 42.5738 27.9399C42.2305 28.0128 41.8674 28.0725 41.4449 28.1389V28.1256Z" fill="#45242D"/>
<path d="M76.7768 49.4637V12.4936H85.3127V32.8364L92.7461 21.7096H101.44L94.007 32.1995C93.162 33.4004 92.7395 34.462 92.7395 35.3776C92.7395 36.2932 93.0366 37.0563 93.6373 37.6534C94.2315 38.2572 95.0435 38.7017 96.0601 39.0069C97.0768 39.3055 98.166 39.4581 99.3279 39.4581C100.417 39.4581 101.487 39.2989 102.543 38.9804L98.6414 49.4703C98.0406 49.6494 97.5851 49.7755 97.2682 49.8684C96.9513 49.9546 96.443 50.0011 95.7367 50.0011C94.4361 50.0011 93.3271 49.7689 92.416 49.311C91.505 48.8532 90.7722 48.2428 90.2309 47.4864C89.683 46.73 89.3067 45.8609 89.0954 44.8922C88.8842 43.9235 88.8116 42.9415 88.8842 41.9529C88.9568 40.9643 89.1416 40.0088 89.4387 39.0932C89.7358 38.1776 90.1319 37.3814 90.627 36.7112L89.9932 36.4458L85.3061 43.0675V49.4769H76.7702L76.7768 49.4637Z" fill="#E7E4DE"/>
<path d="M122.995 42.842C123.133 44.0429 122.995 45.0912 122.572 45.9936C122.15 46.8959 121.569 47.639 120.836 48.2163C120.103 48.7935 119.265 49.2381 118.334 49.5433C117.403 49.8418 116.479 49.9944 115.568 49.9944C113.389 49.9944 111.475 49.5764 109.825 48.7471C108.174 47.9177 106.801 46.8296 105.712 45.4893C104.622 44.149 103.804 42.6031 103.263 40.8515C102.715 39.1065 102.444 37.3283 102.444 35.5302C102.444 33.7322 102.715 31.9606 103.263 30.2355C103.804 28.5038 104.622 26.9711 105.712 25.6242C106.801 24.284 108.168 23.1958 109.825 22.3665C111.475 21.5371 113.389 21.1191 115.568 21.1191C117.746 21.1191 119.456 21.4376 120.81 22.0745C122.163 22.7115 123.292 23.4546 124.209 24.2972L124.738 21.703H132.699V49.457H124.691L123.688 42.8353H123.001L122.995 42.842ZM111.402 35.5302C111.402 36.4857 111.554 37.3747 111.851 38.2041C112.148 39.0335 112.571 39.7567 113.119 40.3738C113.66 40.9908 114.333 41.4752 115.119 41.8334C115.911 42.1851 116.796 42.3642 117.779 42.3642C118.763 42.3642 119.694 42.1851 120.466 41.8334C121.239 41.4818 121.905 40.9974 122.467 40.3738C123.028 39.7567 123.45 39.0335 123.734 38.2041C124.018 37.3747 124.157 36.4857 124.157 35.5302C124.157 34.5748 124.018 33.6857 123.734 32.8563C123.45 32.027 123.028 31.3038 122.467 30.6867C121.905 30.0696 121.239 29.5853 120.466 29.227C119.694 28.8754 118.796 28.6962 117.779 28.6962C116.763 28.6962 115.911 28.8754 115.119 29.227C114.327 29.5787 113.66 30.063 113.119 30.6867C112.571 31.3038 112.155 32.027 111.851 32.8563C111.554 33.6857 111.402 34.5748 111.402 35.5302Z" fill="#E7E4DE"/>
<path d="M145.552 24.5693H151.507V31.7748H145.552V49.4703H137.017V37.8193C137.017 36.6914 137.076 35.7824 137.201 35.0923C137.327 34.4023 137.492 33.8649 137.703 33.48C137.914 33.0952 138.159 32.8298 138.442 32.6838C138.726 32.5445 139.023 32.4715 139.34 32.4715V31.7815H134.231V24.5759H137.023V22.3532C137.023 20.7276 137.314 19.2613 137.895 17.9542C138.475 16.6471 139.268 15.5457 140.265 14.6434C141.268 13.741 142.443 13.0576 143.796 12.5799C145.15 12.1022 146.615 11.8633 148.2 11.8633H151.256V19.9646H150.094C149.533 19.9646 148.979 20.0376 148.437 20.1769C147.889 20.3163 147.407 20.5286 146.985 20.8139C146.562 21.0992 146.219 21.4774 145.955 21.9551C145.691 22.4328 145.559 23.0233 145.559 23.7266V24.5759L145.552 24.5693Z" fill="#E7E4DE"/>
<path d="M165.687 21.1257C168.11 21.1257 170.236 21.5172 172.065 22.2935C173.893 23.0698 175.392 24.1712 176.573 25.6043C177.749 27.0375 178.574 28.7559 179.049 30.7663C179.524 32.7767 179.604 35.0393 179.287 37.5473H159.891C160.069 38.5359 160.353 39.3653 160.763 40.0354C161.165 40.7055 161.641 41.2562 162.189 41.6809C162.73 42.1055 163.311 42.4041 163.925 42.5832C164.539 42.7624 165.166 42.8486 165.793 42.8486C166.882 42.8486 167.846 42.6429 168.691 42.2382C169.536 41.8335 170.025 41.3624 170.17 40.8316H178.864C178.303 42.5633 177.517 44.0097 176.521 45.1775C175.517 46.3452 174.428 47.2808 173.253 47.9841C172.078 48.694 170.856 49.2049 169.589 49.5234C168.321 49.8419 167.166 50.0011 166.11 50.0011C164.143 50.0011 162.288 49.7158 160.551 49.1518C158.815 48.5879 157.29 47.7187 155.99 46.5576C154.689 45.3898 153.659 43.9036 152.907 42.079C152.147 40.261 151.771 38.0781 151.771 35.5369C151.771 33.208 152.121 31.1512 152.827 29.3664C153.527 27.5816 154.504 26.0821 155.752 24.8612C157 23.6404 158.472 22.7181 160.182 22.0812C161.885 21.4442 163.72 21.1257 165.687 21.1257ZM171.378 32.2459V31.9275C171.378 30.5872 170.85 29.5256 169.794 28.7493C168.737 27.973 167.509 27.5816 166.103 27.5816C162.802 27.5816 160.782 29.1341 160.043 32.2459H171.378Z" fill="#E7E4DE"/>
<path d="M195.778 49.4637L191.823 42.2581H191.137L186.971 49.4637H177.749L186.548 34.6345L178.488 21.7096H187.71L191.295 27.9067H191.982L195.302 21.7096H204.525L196.306 35.5369L205 49.4703H195.778V49.4637Z" fill="#E7E4DE"/>
</g>
<defs>
<clipPath id="clip0_77_104">
<rect width="205" height="60" fill="white"/>
</clipPath>
</defs>
</svg>
