<svg width="34" height="34" viewBox="0 0 34 34" fill="none" xmlns="http://www.w3.org/2000/svg">
<path d="M17 30.6C16.575 30.6 16.15 30.4406 15.8312 30.175C14.6094 29.1125 13.3875 28.1031 12.325 27.2C9.24375 24.5969 6.53438 22.3125 4.675 20.0813C2.55 17.5313 1.59375 15.1938 1.59375 12.5907C1.59375 10.0938 2.44375 7.75627 4.0375 6.05627C5.63125 4.35627 7.80938 3.40002 10.2 3.40002C11.9531 3.40002 13.6 3.9844 15.0344 5.0469C15.6187 5.4719 16.0969 6.00315 16.575 6.58752C16.7875 6.85315 17.1594 6.85315 17.3719 6.58752C17.85 6.00315 18.3812 5.52502 18.9125 5.0469C20.3469 3.93127 21.9938 3.40002 23.7469 3.40002C26.1375 3.40002 28.3156 4.35627 29.9094 6.05627C31.5031 7.75627 32.3531 10.0938 32.3531 12.5907C32.3531 15.1938 31.3969 17.5313 29.2719 20.0282C27.4125 22.2594 24.7031 24.5438 21.6219 27.1469C20.5594 28.05 19.3375 29.0594 18.1156 30.1219C17.85 30.4406 17.425 30.6 17 30.6Z" fill="#C2F530"/>
</svg>
