<svg width="25" height="25" viewBox="0 0 25 25" fill="none" xmlns="http://www.w3.org/2000/svg">
<path d="M12.5 1.17499C7.325 1.17499 3.125 5.22499 3.125 10.2125C3.125 14 8.15 20 11.1125 23.225C11.4875 23.6375 11.975 23.825 12.5 23.825C13.025 23.825 13.5125 23.6 13.8875 23.225C16.85 20 21.875 14 21.875 10.2125C21.875 5.22499 17.675 1.17499 12.5 1.17499ZM12.65 22.1C12.575 22.175 12.4625 22.175 12.35 22.1C8.7125 18.125 4.8125 12.95 4.8125 10.2125C4.8125 6.16249 8.2625 2.86249 12.5 2.86249C16.7375 2.86249 20.1875 6.16249 20.1875 10.2125C20.1875 12.95 16.2875 18.125 12.65 22.1Z" fill="#481009"/>
<path d="M12.5001 6.38751C10.2501 6.38751 8.4126 8.22501 8.4126 10.475C8.4126 12.725 10.2501 14.6 12.5001 14.6C14.7501 14.6 16.5876 12.7625 16.5876 10.5125C16.5876 8.26251 14.7501 6.38751 12.5001 6.38751ZM12.5001 12.9125C11.1501 12.9125 10.1001 11.825 10.1001 10.5125C10.1001 9.20001 11.1876 8.11251 12.5001 8.11251C13.8126 8.11251 14.9001 9.20001 14.9001 10.5125C14.9001 11.825 13.8501 12.9125 12.5001 12.9125Z" fill="#481009"/>
</svg>
