<svg width="33" height="34" viewBox="0 0 33 34" fill="none" xmlns="http://www.w3.org/2000/svg">
<rect width="33" height="34" rx="4" fill="white"/>
<path d="M10.5573 19C10.126 19 9.75867 18.855 9.4552 18.5649C9.15173 18.2748 9 17.9237 9 17.5115C9 17.084 9.15173 16.7252 9.4552 16.4351C9.75867 16.145 10.126 16 10.5573 16C10.9885 16 11.3559 16.145 11.6593 16.4351C11.9628 16.7252 12.1145 17.084 12.1145 17.5115C12.1145 17.9237 11.9628 18.2748 11.6593 18.5649C11.3559 18.855 10.9885 19 10.5573 19Z" fill="#595959"/>
<path d="M16.5 19C16.0688 19 15.7014 18.855 15.3979 18.5649C15.0945 18.2748 14.9427 17.9237 14.9427 17.5115C14.9427 17.084 15.0945 16.7252 15.3979 16.4351C15.7014 16.145 16.0688 16 16.5 16C16.9312 16 17.2986 16.145 17.6021 16.4351C17.9055 16.7252 18.0573 17.084 18.0573 17.5115C18.0573 17.9237 17.9055 18.2748 17.6021 18.5649C17.2986 18.855 16.9312 19 16.5 19Z" fill="#595959"/>
<path d="M22.4427 19C22.0115 19 21.6441 18.855 21.3407 18.5649C21.0372 18.2748 20.8855 17.9237 20.8855 17.5115C20.8855 17.084 21.0372 16.7252 21.3407 16.4351C21.6441 16.145 22.0115 16 22.4427 16C22.874 16 23.2413 16.145 23.5448 16.4351C23.8483 16.7252 24 17.084 24 17.5115C24 17.9237 23.8483 18.2748 23.5448 18.5649C23.2413 18.855 22.874 19 22.4427 19Z" fill="#595959"/>
</svg>
