<svg width="24" height="24" viewBox="0 0 24 24" fill="none" xmlns="http://www.w3.org/2000/svg">
<path d="M19.725 17.025C19.2 15.7125 19.05 14.175 19.05 13.9875V10.2375C19.05 6.6375 16.3125 3.6375 12.825 3.225V1.5C12.825 1.05 12.45 0.675003 12 0.675003C11.55 0.675003 11.175 1.05 11.175 1.5V3.2625C7.68747 3.675 4.94997 6.675 4.94997 10.275V14.025C4.94997 14.2125 4.79997 15.75 4.27497 17.0625C3.97497 17.85 4.04997 18.7125 4.49997 19.3875C4.94997 20.0625 5.73747 20.475 6.56247 20.475H8.62497C8.92497 22.0875 10.3125 23.325 12 23.325C13.6875 23.325 15.1125 22.0875 15.375 20.475H17.4C18.225 20.475 19.0125 20.0625 19.4625 19.3875C19.95 18.675 20.0625 17.8125 19.725 17.025ZM12 21.675C11.25 21.675 10.6125 21.1875 10.35 20.5125H13.65C13.3875 21.15 12.75 21.675 12 21.675ZM18.075 18.45C17.925 18.675 17.6625 18.825 17.4 18.825H6.59997C6.33747 18.825 6.07497 18.7125 5.92497 18.45C5.77497 18.225 5.73747 17.925 5.84997 17.7C6.52497 16.05 6.63747 14.175 6.63747 14.1V14.0625V10.275C6.63747 7.3125 9.03747 4.875 12 4.875C14.9625 4.875 17.3625 7.275 17.3625 10.2375V14.025V14.0625C17.3625 14.1375 17.475 16.0125 18.15 17.6625C18.2625 17.925 18.2625 18.225 18.075 18.45Z" fill="#1D1D1B"/>
</svg>
