<svg width="175" height="89" viewBox="0 0 175 89" fill="none" xmlns="http://www.w3.org/2000/svg">
<g clip-path="url(#clip0_158_1062)">
<path d="M7.83145 31.2436L20.9683 33.7628L33.4201 47.2608L20.2833 44.7416L7.83145 31.2436Z" stroke="#1D1D1B" stroke-width="1.5" stroke-linecap="round" stroke-linejoin="round"/>
<path d="M19.477 61.6534L32.6138 64.1726L19.3806 81.4638L6.24376 78.9445L19.477 61.6534Z" stroke="#1D1D1B" stroke-width="1.5" stroke-linecap="round" stroke-linejoin="round"/>
<path d="M30.8049 19.2629L43.9382 21.7821L40.249 46.2982L27.1122 43.7789L30.8049 19.2629Z" stroke="#1D1D1B" stroke-width="1.5" stroke-linecap="round" stroke-linejoin="round"/>
<path d="M28.0434 84.2693L41.1803 86.7885L29.285 88.4632L16.1481 85.944L28.0434 84.2693Z" stroke="#1D1D1B" stroke-width="1.5" stroke-linecap="round" stroke-linejoin="round"/>
<path d="M26.4271 60.6729L39.564 63.1921L41.1802 86.7885L28.0434 84.2693L26.4271 60.6729Z" stroke="#1D1D1B" stroke-width="1.5" stroke-linecap="round" stroke-linejoin="round"/>
<path d="M45.9576 41.1237L59.0945 43.643L43.3281 54.0921L30.1948 51.5728L45.9576 41.1237Z" stroke="#1D1D1B" stroke-width="1.5" stroke-linecap="round" stroke-linejoin="round"/>
<path d="M40.8056 26.7669L53.9425 29.2861L59.0945 43.6429L45.9576 41.1237L40.8056 26.7669Z" stroke="#1D1D1B" stroke-width="1.5" stroke-linecap="round" stroke-linejoin="round"/>
<path d="M45.2869 57.6705L58.4237 60.1898L51.6626 76.7438L38.5258 74.2245L45.2869 57.6705Z" stroke="#1D1D1B" stroke-width="1.5" stroke-linecap="round" stroke-linejoin="round"/>
<path d="M30.1948 51.5728L43.3281 54.0921L58.4237 60.1898L45.2869 57.6706L30.1948 51.5728Z" stroke="#1D1D1B" stroke-width="1.5" stroke-linecap="round" stroke-linejoin="round"/>
<path d="M30.8049 19.2629L27.1122 43.7789L40.8056 26.7669L45.9576 41.1237L30.1948 51.5728L45.2869 57.6705L38.5258 74.2245L26.4271 60.6729L28.0434 84.2693L16.1481 85.944L19.477 61.6534L6.24376 78.9445L0.535179 63.8076L16.3016 53.3585L1.19523 47.6043L7.83145 31.2436L20.2833 44.7415L18.7884 20.9555L30.8049 19.2629Z" fill="#C2F530" stroke="#1D1D1B" stroke-width="1.5" stroke-linecap="round" stroke-linejoin="round"/>
<path d="M65.4667 23.1205L78.6 25.6397L91.0518 39.1377L77.9149 36.6185L65.4667 23.1205Z" stroke="#1D1D1B" stroke-width="1.5" stroke-linecap="round" stroke-linejoin="round"/>
<path d="M77.1086 53.5303L90.2455 56.0495L77.0158 73.3371L63.879 70.8178L77.1086 53.5303Z" stroke="#1D1D1B" stroke-width="1.5" stroke-linecap="round" stroke-linejoin="round"/>
<path d="M88.4366 11.1398L101.573 13.659L97.8843 38.1751L84.7474 35.6558L88.4366 11.1398Z" stroke="#1D1D1B" stroke-width="1.5" stroke-linecap="round" stroke-linejoin="round"/>
<path d="M85.6786 76.1426L98.8155 78.6618L86.9167 80.3401L73.7798 77.8209L85.6786 76.1426Z" stroke="#1D1D1B" stroke-width="1.5" stroke-linecap="round" stroke-linejoin="round"/>
<path d="M84.0624 52.5498L97.1992 55.069L98.8155 78.6618L85.6786 76.1426L84.0624 52.5498Z" stroke="#1D1D1B" stroke-width="1.5" stroke-linecap="round" stroke-linejoin="round"/>
<path d="M103.593 32.997L116.73 35.5199L100.963 45.969L87.8265 43.4497L103.593 32.997Z" stroke="#1D1D1B" stroke-width="1.5" stroke-linecap="round" stroke-linejoin="round"/>
<path d="M98.4373 18.6402L111.574 21.1595L116.73 35.5198L103.593 32.997L98.4373 18.6402Z" stroke="#1D1D1B" stroke-width="1.5" stroke-linecap="round" stroke-linejoin="round"/>
<path d="M102.922 49.5474L116.055 52.0667L109.294 68.6171L96.1574 66.0978L102.922 49.5474Z" stroke="#1D1D1B" stroke-width="1.5" stroke-linecap="round" stroke-linejoin="round"/>
<path d="M87.8265 43.4497L100.963 45.969L116.055 52.0667L102.922 49.5474L87.8265 43.4497Z" stroke="#1D1D1B" stroke-width="1.5" stroke-linecap="round" stroke-linejoin="round"/>
<path d="M88.4366 11.1398L84.7474 35.6558L98.4373 18.6402L103.593 32.997L87.8265 43.4497L102.922 49.5474L96.1574 66.0978L84.0624 52.5498L85.6786 76.1426L73.7798 77.8209L77.1086 53.5303L63.879 70.8178L58.1704 55.6845L73.9332 45.2354L58.8269 39.4776L65.4667 23.1205L77.9149 36.6184L76.4236 12.8324L88.4366 11.1398Z" fill="#C2F530" stroke="#1D1D1B" stroke-width="1.5" stroke-linecap="round" stroke-linejoin="round"/>
<path d="M123.198 12.5175L136.335 15.0367L148.787 28.5347L135.65 26.0155L123.198 12.5175Z" stroke="#1D1D1B" stroke-width="1.5" stroke-linecap="round" stroke-linejoin="round"/>
<path d="M134.847 42.9273L147.984 45.4465L134.747 62.7377L121.614 60.2184L134.847 42.9273Z" stroke="#1D1D1B" stroke-width="1.5" stroke-linecap="round" stroke-linejoin="round"/>
<path d="M146.172 0.536774L159.309 3.05601L155.619 27.5721L142.483 25.0528L146.172 0.536774Z" stroke="#1D1D1B" stroke-width="1.5" stroke-linecap="round" stroke-linejoin="round"/>
<path d="M143.414 65.5432L156.551 68.0624L144.652 69.7407L131.515 67.2215L143.414 65.5432Z" stroke="#1D1D1B" stroke-width="1.5" stroke-linecap="round" stroke-linejoin="round"/>
<path d="M141.794 41.9468L154.931 44.466L156.551 68.0624L143.414 65.5432L141.794 41.9468Z" stroke="#1D1D1B" stroke-width="1.5" stroke-linecap="round" stroke-linejoin="round"/>
<path d="M161.328 22.3976L174.465 24.9169L158.698 35.366L145.562 32.8467L161.328 22.3976Z" stroke="#1D1D1B" stroke-width="1.5" stroke-linecap="round" stroke-linejoin="round"/>
<path d="M156.172 8.0408L169.309 10.56L174.465 24.9168L161.328 22.3976L156.172 8.0408Z" stroke="#1D1D1B" stroke-width="1.5" stroke-linecap="round" stroke-linejoin="round"/>
<path d="M160.654 38.9444L173.791 41.4637L167.029 58.0141L153.893 55.4948L160.654 38.9444Z" stroke="#1D1D1B" stroke-width="1.5" stroke-linecap="round" stroke-linejoin="round"/>
<path d="M145.562 32.8467L158.698 35.366L173.79 41.4637L160.654 38.9444L145.562 32.8467Z" stroke="#1D1D1B" stroke-width="1.5" stroke-linecap="round" stroke-linejoin="round"/>
<path d="M146.172 0.536774L142.483 25.0528L156.172 8.04081L161.328 22.3976L145.562 32.8467L160.654 38.9444L153.893 55.4948L141.794 41.9468L143.414 65.5432L131.515 67.2215L134.847 42.9273L121.614 60.2184L115.902 45.0815L131.668 34.6324L116.562 28.8782L123.198 12.5175L135.65 26.0154L134.159 2.22939L146.172 0.536774Z" fill="#C2F530" stroke="#1D1D1B" stroke-width="1.5" stroke-linecap="round" stroke-linejoin="round"/>
</g>
<defs>
<clipPath id="clip0_158_1062">
<rect width="175" height="89" fill="white"/>
</clipPath>
</defs>
</svg>
