<svg width="43" height="55" viewBox="0 0 43 55" fill="none" xmlns="http://www.w3.org/2000/svg">
<path d="M21.5 0C9.63102 0.0146591 0.0146591 9.63102 0 21.5C0 39.8972 19.5455 53.7989 20.3761 54.3852C21.0578 54.8397 21.9422 54.8397 22.6239 54.3852C23.4545 53.7989 43 39.8972 43 21.5C42.9853 9.63102 33.369 0.0146591 21.5 0Z" fill="#F7B8B3"/>
<circle cx="21.5" cy="21.7443" r="17.1023" fill="#EB8052"/>
<path d="M33.2322 19.2992C33.1496 18.9039 32.7988 18.6198 32.3944 18.6198H10.8769C10.4725 18.6198 10.1217 18.9039 10.0392 19.2992C9.87822 20.0733 9.7998 20.8721 9.7998 21.6709C9.7998 28.1643 15.1111 33.4471 21.6357 33.4471C28.1602 33.4471 33.4715 28.1643 33.4715 21.6709C33.4715 20.8721 33.389 20.0733 33.2322 19.2992Z" fill="#E7E4DE"/>
<path d="M29.2591 22.7695C27.6258 23.0094 24.9229 23.164 21.6436 22.4157C21.5434 22.3913 21.4431 22.3709 21.3429 22.3506C17.5623 21.5576 14.8595 22.2977 13.6396 22.7776C13.5018 22.8305 13.4182 22.9769 13.4475 23.1192C13.5143 23.4568 13.602 23.7903 13.7065 24.1156C14.8302 27.5684 18.0677 30.0655 21.8859 30.0655C26.101 30.0655 29.6059 27.0235 30.3453 23.0094C30.3453 23.0094 30.3453 23.0094 30.3453 23.0054C30.3829 22.7939 30.1907 22.6109 29.9735 22.6556C29.7563 22.7004 29.5265 22.737 29.2591 22.7776V22.7695Z" fill="#45242D"/>
</svg>
