<svg width="24" height="24" viewBox="0 0 24 24" fill="none" xmlns="http://www.w3.org/2000/svg">
<path d="M21.075 5.475L18.8625 1.725C18.4875 1.0875 17.775 0.675003 17.025 0.675003H7.0125C6.2625 0.675003 5.55 1.0875 5.175 1.725L2.925 5.475C2.85 5.5875 2.8125 5.7375 2.8125 5.8875V8.4375C2.8125 9.3375 3.3 10.125 4.0125 10.575V17.2875C4.0125 18.4875 4.9875 19.425 6.15 19.425H8.85C8.9625 19.575 9.075 19.6875 9.1875 19.8C10.0875 20.7 11.325 21.225 12.6 21.225C13.6125 21.225 14.5875 20.925 15.375 20.3625L18.1125 23.1C18.2625 23.25 18.4875 23.3625 18.7125 23.3625C18.9375 23.3625 19.1625 23.2875 19.3125 23.1C19.65 22.7625 19.65 22.2375 19.3125 21.9L16.8375 19.425H17.85C19.05 19.425 19.9875 18.45 19.9875 17.2875V10.575C20.7 10.125 21.1875 9.3375 21.1875 8.4375V5.8875C21.1875 5.775 21.15 5.625 21.075 5.475ZM17.4 2.5875L19.5 6.15V8.4375C19.5 8.8875 19.125 9.225 18.7125 9.225H17.8125C17.3625 9.225 17.025 8.85 17.025 8.4375V6.375C17.025 6.3 17.025 6.1875 16.9875 6.1125L15.75 2.325H16.9875C17.175 2.325 17.325 2.4375 17.4 2.5875ZM8.6625 6.525L10.0125 2.325H11.1375V8.4375C11.1375 8.8875 10.7625 9.225 10.35 9.225H9.45C9 9.225 8.6625 8.85 8.6625 8.4375V6.525ZM12.825 2.325H13.9875L15.3375 6.525V8.3625C15.3375 8.4 15.3375 8.4 15.3375 8.4375C15.3375 8.8875 14.9625 9.225 14.55 9.225H13.65C13.2 9.225 12.8625 8.85 12.8625 8.4375V2.325H12.825ZM4.5 6.15L6.6 2.5875C6.675 2.4375 6.825 2.3625 7.0125 2.3625H8.25L7.0125 6.15C6.975 6.225 6.975 6.3375 6.975 6.4125V8.475C6.975 8.925 6.6 9.2625 6.1875 9.2625H5.2875C4.8375 9.2625 4.5 8.8875 4.5 8.475V6.15V6.15ZM10.3875 18.6C9.15 17.3625 9.15 15.375 10.3875 14.1375C10.9875 13.5375 11.775 13.2 12.6375 13.2C13.5 13.2 14.2875 13.5375 14.8875 14.1375C15.975 15.225 16.0875 16.875 15.3 18.075C15.3 18.075 15.3 18.075 15.3 18.1125C15.1875 18.3 15.0375 18.45 14.8875 18.6C14.2875 19.2 13.5 19.5375 12.6375 19.5375C11.775 19.5375 10.9875 19.2 10.3875 18.6ZM17.85 17.7375H17.25C17.7375 16.0875 17.325 14.25 16.0125 12.975C15.1125 12.075 13.875 11.55 12.6 11.55C11.2875 11.55 10.0875 12.0375 9.1875 12.975C7.875 14.25 7.5 16.0875 7.95 17.7375H6.15C5.8875 17.7375 5.7 17.5125 5.7 17.2875V10.95H6.1875C6.825 10.95 7.3875 10.725 7.8375 10.3125C8.2875 10.6875 8.85 10.95 9.4875 10.95H10.3875C11.025 10.95 11.5875 10.725 12.0375 10.3125C12.4875 10.6875 13.05 10.95 13.6875 10.95H14.5875C15.225 10.95 15.7875 10.725 16.2375 10.3125C16.6875 10.6875 17.25 10.95 17.8875 10.95H18.375V17.2875C18.3 17.5125 18.1125 17.7375 17.85 17.7375Z" fill="#1D1D1B"/>
</svg>
