<svg width="25" height="25" viewBox="0 0 25 25" fill="none" xmlns="http://www.w3.org/2000/svg">
<path d="M18.5 22.5C17.6667 22.5 16.9583 22.2083 16.375 21.625C15.7917 21.0417 15.5 20.3333 15.5 19.5C15.5 19.3833 15.5083 19.2625 15.525 19.1375C15.5417 19.0125 15.5667 18.9 15.6 18.8L8.55 14.7C8.26667 14.95 7.95 15.1458 7.6 15.2875C7.25 15.4292 6.88333 15.5 6.5 15.5C5.66667 15.5 4.95833 15.2083 4.375 14.625C3.79167 14.0417 3.5 13.3333 3.5 12.5C3.5 11.6667 3.79167 10.9583 4.375 10.375C4.95833 9.79167 5.66667 9.5 6.5 9.5C6.88333 9.5 7.25 9.57083 7.6 9.7125C7.95 9.85417 8.26667 10.05 8.55 10.3L15.6 6.2C15.5667 6.1 15.5417 5.9875 15.525 5.8625C15.5083 5.7375 15.5 5.61667 15.5 5.5C15.5 4.66667 15.7917 3.95833 16.375 3.375C16.9583 2.79167 17.6667 2.5 18.5 2.5C19.3333 2.5 20.0417 2.79167 20.625 3.375C21.2083 3.95833 21.5 4.66667 21.5 5.5C21.5 6.33333 21.2083 7.04167 20.625 7.625C20.0417 8.20833 19.3333 8.5 18.5 8.5C18.1167 8.5 17.75 8.42917 17.4 8.2875C17.05 8.14583 16.7333 7.95 16.45 7.7L9.4 11.8C9.43333 11.9 9.45833 12.0125 9.475 12.1375C9.49167 12.2625 9.5 12.3833 9.5 12.5C9.5 12.6167 9.49167 12.7375 9.475 12.8625C9.45833 12.9875 9.43333 13.1 9.4 13.2L16.45 17.3C16.7333 17.05 17.05 16.8542 17.4 16.7125C17.75 16.5708 18.1167 16.5 18.5 16.5C19.3333 16.5 20.0417 16.7917 20.625 17.375C21.2083 17.9583 21.5 18.6667 21.5 19.5C21.5 20.3333 21.2083 21.0417 20.625 21.625C20.0417 22.2083 19.3333 22.5 18.5 22.5ZM18.5 6.5C18.7833 6.5 19.0208 6.40417 19.2125 6.2125C19.4042 6.02083 19.5 5.78333 19.5 5.5C19.5 5.21667 19.4042 4.97917 19.2125 4.7875C19.0208 4.59583 18.7833 4.5 18.5 4.5C18.2167 4.5 17.9792 4.59583 17.7875 4.7875C17.5958 4.97917 17.5 5.21667 17.5 5.5C17.5 5.78333 17.5958 6.02083 17.7875 6.2125C17.9792 6.40417 18.2167 6.5 18.5 6.5ZM6.5 13.5C6.78333 13.5 7.02083 13.4042 7.2125 13.2125C7.40417 13.0208 7.5 12.7833 7.5 12.5C7.5 12.2167 7.40417 11.9792 7.2125 11.7875C7.02083 11.5958 6.78333 11.5 6.5 11.5C6.21667 11.5 5.97917 11.5958 5.7875 11.7875C5.59583 11.9792 5.5 12.2167 5.5 12.5C5.5 12.7833 5.59583 13.0208 5.7875 13.2125C5.97917 13.4042 6.21667 13.5 6.5 13.5ZM18.5 20.5C18.7833 20.5 19.0208 20.4042 19.2125 20.2125C19.4042 20.0208 19.5 19.7833 19.5 19.5C19.5 19.2167 19.4042 18.9792 19.2125 18.7875C19.0208 18.5958 18.7833 18.5 18.5 18.5C18.2167 18.5 17.9792 18.5958 17.7875 18.7875C17.5958 18.9792 17.5 19.2167 17.5 19.5C17.5 19.7833 17.5958 20.0208 17.7875 20.2125C17.9792 20.4042 18.2167 20.5 18.5 20.5Z" fill="#481009"/>
</svg>
