<svg width="156" height="149" viewBox="0 0 156 149" fill="none" xmlns="http://www.w3.org/2000/svg">
<mask id="mask0_258_2464" style="mask-type:luminance" maskUnits="userSpaceOnUse" x="41" y="33" width="77" height="46">
<path d="M41.9099 67.85L52.8599 51.32C57.9099 43.69 65.1899 38.11 73.5799 35.5C75.4699 34.91 77.3699 34.48 79.2699 34.21C86.9099 33.14 94.5299 34.69 101.17 38.73C109.46 43.78 115.11 52.04 117.11 62L106.16 78.53C104.16 68.57 98.5199 60.31 90.2199 55.26C83.5799 51.22 75.9599 49.66 68.3199 50.74C66.4199 51.01 64.5199 51.44 62.6299 52.03C54.2399 54.63 46.9599 60.22 41.9099 67.85Z" fill="white"/>
</mask>
<g mask="url(#mask0_258_2464)">
<path d="M117.09 62.01L106.14 78.54C104.14 68.58 98.4999 60.32 90.1999 55.27C83.5599 51.23 75.9399 49.67 68.2999 50.75C66.3999 51.02 64.4999 51.45 62.6099 52.04C54.2199 54.64 46.9399 60.23 41.8899 67.86L52.8399 51.33C57.8899 43.7 65.1699 38.12 73.5599 35.51C75.4499 34.92 77.3499 34.49 79.2499 34.22C86.8899 33.15 94.5099 34.7 101.15 38.74C109.44 43.79 115.09 52.05 117.09 62.01Z" stroke="#1D1D1B" stroke-linecap="round" stroke-linejoin="round"/>
</g>
<path d="M41.9099 67.85L52.8599 51.32C57.9099 43.69 65.1899 38.11 73.5799 35.5C75.4699 34.91 77.3699 34.48 79.2699 34.21C86.9099 33.14 94.5299 34.69 101.17 38.73C109.46 43.78 115.11 52.04 117.11 62L106.16 78.53C104.16 68.57 98.5199 60.31 90.2199 55.26C83.5799 51.22 75.9599 49.66 68.3199 50.74C66.4199 51.01 64.5199 51.44 62.6299 52.03C54.2399 54.63 46.9599 60.22 41.9099 67.85Z" stroke="#1D1D1B" stroke-linecap="round" stroke-linejoin="round"/>
<mask id="mask1_258_2464" style="mask-type:luminance" maskUnits="userSpaceOnUse" x="86" y="46" width="17" height="33">
<path d="M97.79 62.33L86.84 78.86C89.47 74.89 90.59 71.14 91 68.08C91.24 66.33 91.25 64.67 91.19 63.23L102.14 46.7C102.19 48.15 102.19 49.8 101.95 51.55C101.54 54.61 100.42 58.37 97.79 62.33Z" fill="white"/>
</mask>
<g mask="url(#mask1_258_2464)">
<path d="M97.79 62.33L86.84 78.86C89.47 74.89 90.59 71.14 91 68.08C91.24 66.33 91.25 64.67 91.19 63.23L102.14 46.7C102.19 48.15 102.19 49.8 101.95 51.55C101.54 54.61 100.42 58.37 97.79 62.33Z" stroke="#1D1D1B" stroke-linecap="round" stroke-linejoin="round"/>
</g>
<path d="M97.79 62.33L86.84 78.86C89.47 74.89 90.59 71.14 91 68.08C91.24 66.33 91.25 64.67 91.19 63.23L102.14 46.7C102.19 48.15 102.19 49.8 101.95 51.55C101.54 54.61 100.42 58.37 97.79 62.33Z" stroke="#1D1D1B" stroke-linecap="round" stroke-linejoin="round"/>
<mask id="mask2_258_2464" style="mask-type:luminance" maskUnits="userSpaceOnUse" x="99" y="62" width="19" height="48">
<path d="M110.9 92.51L99.95 109.04C100.41 108.35 100.84 107.65 101.26 106.93C106.32 98.22 108.07 88.13 106.14 78.55L117.09 62.02C119.02 71.6 117.27 81.7 112.21 90.4C111.79 91.12 111.35 91.83 110.9 92.51Z" fill="white"/>
</mask>
<g mask="url(#mask2_258_2464)">
<path d="M110.9 92.51L99.95 109.04C100.41 108.35 100.84 107.65 101.26 106.93C106.32 98.22 108.07 88.13 106.14 78.55L117.09 62.02C119.02 71.6 117.27 81.7 112.21 90.4C111.79 91.12 111.35 91.83 110.9 92.51Z" stroke="#1D1D1B" stroke-linecap="round" stroke-linejoin="round"/>
</g>
<path d="M110.9 92.51L99.95 109.04C100.41 108.35 100.84 107.65 101.26 106.93C106.32 98.22 108.07 88.13 106.14 78.55L117.09 62.02C119.02 71.6 117.27 81.7 112.21 90.4C111.79 91.12 111.35 91.83 110.9 92.51Z" stroke="#1D1D1B" stroke-linecap="round" stroke-linejoin="round"/>
<mask id="mask3_258_2464" style="mask-type:luminance" maskUnits="userSpaceOnUse" x="130" y="113" width="23" height="24">
<path d="M152.67 113.57L141.72 130.1C139.34 133.7 135.35 136.25 130.2 136.97L141.15 120.44C146.29 119.72 150.29 117.17 152.67 113.57Z" fill="white"/>
</mask>
<g mask="url(#mask3_258_2464)">
<path d="M152.67 113.57L141.72 130.1C139.34 133.7 135.35 136.25 130.2 136.97L141.15 120.44C146.29 119.72 150.29 117.17 152.67 113.57Z" stroke="#1D1D1B" stroke-linecap="round" stroke-linejoin="round"/>
</g>
<path d="M152.67 113.57L141.72 130.1C139.34 133.7 135.35 136.25 130.2 136.97L141.15 120.44C146.29 119.72 150.29 117.17 152.67 113.57Z" stroke="#1D1D1B" stroke-linecap="round" stroke-linejoin="round"/>
<mask id="mask4_258_2464" style="mask-type:luminance" maskUnits="userSpaceOnUse" x="52" y="58" width="40" height="43">
<path d="M91.7999 58.26L80.85 74.79C78.2 78.79 74.11 82.47 68.7 85.69C60.49 90.58 55.46 95.5 52.46 100.02L63.41 83.49C66.41 78.97 71.4299 74.05 79.6499 69.16C85.0599 65.93 89.1499 62.25 91.7999 58.26Z" fill="white"/>
</mask>
<g mask="url(#mask4_258_2464)">
<path d="M91.7999 58.26L80.85 74.79C78.2 78.79 74.11 82.47 68.7 85.69C60.49 90.58 55.46 95.5 52.46 100.02L63.41 83.49C66.41 78.97 71.4299 74.05 79.6499 69.16C85.0599 65.93 89.1499 62.25 91.7999 58.26Z" stroke="#1D1D1B" stroke-linecap="round" stroke-linejoin="round"/>
</g>
<path d="M91.7999 58.26L80.85 74.79C78.2 78.79 74.11 82.47 68.7 85.69C60.49 90.58 55.46 95.5 52.46 100.02L63.41 83.49C66.41 78.97 71.4299 74.05 79.6499 69.16C85.0599 65.93 89.1499 62.25 91.7999 58.26Z" stroke="#1D1D1B" stroke-linecap="round" stroke-linejoin="round"/>
<mask id="mask5_258_2464" style="mask-type:luminance" maskUnits="userSpaceOnUse" x="1" y="40" width="14" height="32">
<path d="M3.74994 56.63L14.6999 40.1C11.9299 44.29 11.4299 49.77 13.4399 55.22L2.48995 71.75C0.479948 66.31 0.969943 60.82 3.74994 56.63Z" fill="white"/>
</mask>
<g mask="url(#mask5_258_2464)">
<path d="M13.4399 55.22L2.48995 71.75C0.479948 66.31 0.969943 60.82 3.74994 56.63L14.6999 40.1C11.9299 44.29 11.4299 49.77 13.4399 55.22Z" stroke="#1D1D1B" stroke-linecap="round" stroke-linejoin="round"/>
</g>
<path d="M3.74994 56.63L14.6999 40.1C11.9299 44.29 11.4299 49.77 13.4399 55.22L2.48995 71.75C0.479948 66.31 0.969943 60.82 3.74994 56.63Z" stroke="#1D1D1B" stroke-linecap="round" stroke-linejoin="round"/>
<path d="M81.4999 40.41C86.0499 39.77 90.5499 40.29 94.6399 41.93C95.1199 43.51 95.6799 46.41 95.1299 49.93C93.9999 57.16 88.6499 63.79 79.6499 69.16C63.7599 78.63 59.7899 88.18 59.3999 94.81C56.4199 91.26 54.3499 86.86 53.3299 81.88C51.6599 73.65 53.1999 64.84 57.6599 57.18C62.1099 49.51 68.9099 43.93 76.8199 41.46C78.3799 40.97 79.9299 40.63 81.4899 40.41H81.4999Z" fill="#C2F530" stroke="#1D1D1B" stroke-linecap="round" stroke-linejoin="round"/>
<mask id="mask6_258_2464" style="mask-type:luminance" maskUnits="userSpaceOnUse" x="41" y="55" width="19" height="57">
<path d="M47.8899 71.81L58.8399 55.28C58.4299 55.9 58.04 56.53 57.66 57.17C53.2 64.84 51.6699 73.65 53.3299 81.87C54.3499 86.85 56.4099 91.25 59.3999 94.8L48.4499 111.33C45.4699 107.78 43.4 103.38 42.38 98.4C40.71 90.17 42.25 81.36 46.71 73.7C47.09 73.05 47.4799 72.42 47.8899 71.81Z" fill="white"/>
</mask>
<g mask="url(#mask6_258_2464)">
<path d="M59.41 94.81L48.46 111.34C45.48 107.79 43.41 103.39 42.39 98.41C40.72 90.18 42.26 81.3701 46.72 73.7101C47.1 73.0601 47.49 72.4301 47.9 71.8201L58.85 55.29C58.44 55.91 58.05 56.54 57.67 57.18C53.21 64.85 51.68 73.6601 53.34 81.8801C54.36 86.8601 56.42 91.26 59.41 94.81Z" stroke="#1D1D1B" stroke-linecap="round" stroke-linejoin="round"/>
</g>
<path d="M47.8899 71.81L58.8399 55.28C58.4299 55.9 58.04 56.53 57.66 57.17C53.2 64.84 51.6699 73.65 53.3299 81.87C54.3499 86.85 56.4099 91.25 59.3999 94.8L48.4499 111.33C45.4699 107.78 43.4 103.38 42.38 98.4C40.71 90.17 42.25 81.36 46.71 73.7C47.09 73.05 47.4799 72.42 47.8899 71.81Z" stroke="#1D1D1B" stroke-linecap="round" stroke-linejoin="round"/>
<mask id="mask7_258_2464" style="mask-type:luminance" maskUnits="userSpaceOnUse" x="55" y="87" width="15" height="31">
<path d="M58.4299 104.1L69.3799 87.57C68.0899 89.51 67.1099 91.58 66.5899 93.77C65.7899 97.05 66.2799 99.5 66.6699 100.76L55.7199 117.29C55.3199 116.02 54.8299 113.58 55.6399 110.3C56.1699 108.11 57.1499 106.04 58.4299 104.1Z" fill="white"/>
</mask>
<g mask="url(#mask7_258_2464)">
<path d="M66.6599 100.76L55.7099 117.29C55.3099 116.02 54.8199 113.58 55.6299 110.3C56.1599 108.11 57.1399 106.04 58.4199 104.1L69.3699 87.57C68.0799 89.51 67.0999 91.58 66.5799 93.77C65.7799 97.05 66.2699 99.5 66.6599 100.76Z" stroke="#1D1D1B" stroke-linecap="round" stroke-linejoin="round"/>
</g>
<path d="M58.4299 104.1L69.3799 87.57C68.0899 89.51 67.1099 91.58 66.5899 93.77C65.7899 97.05 66.2799 99.5 66.6699 100.76L55.7199 117.29C55.3199 116.02 54.8299 113.58 55.6399 110.3C56.1699 108.11 57.1499 106.04 58.4299 104.1Z" stroke="#1D1D1B" stroke-linecap="round" stroke-linejoin="round"/>
<path d="M102.15 46.7C106.33 50.54 109.24 55.82 110.44 61.96C112.07 70.19 110.54 79 106.08 86.67C101.63 94.34 94.83 99.92 86.92 102.39C85.36 102.88 83.8 103.23 82.25 103.45C76.76 104.22 71.39 103.31 66.67 100.78C66.27 99.51 65.78 97.07 66.59 93.79C68.6 85.44 77.23 78.78 84.13 74.7C97.36 66.82 101.14 57.77 101.96 51.57C102.2 49.82 102.21 48.16 102.15 46.72V46.7Z" fill="#C2F530" stroke="#1D1D1B" stroke-linecap="round" stroke-linejoin="round"/>
<mask id="mask8_258_2464" style="mask-type:luminance" maskUnits="userSpaceOnUse" x="55" y="88" width="50" height="33">
<path d="M104.9 88.56L93.95 105.09C89.52 111.78 83.21 116.65 75.97 118.91C74.41 119.4 72.85 119.75 71.3 119.97C65.81 120.74 60.44 119.83 55.72 117.3L66.67 100.77C71.39 103.3 76.76 104.22 82.25 103.44C83.8 103.22 85.36 102.87 86.92 102.38C94.16 100.12 100.47 95.25 104.9 88.56Z" fill="white"/>
</mask>
<g mask="url(#mask8_258_2464)">
<path d="M104.9 88.56L93.95 105.09C89.52 111.78 83.21 116.65 75.97 118.91C74.41 119.4 72.85 119.75 71.3 119.97C65.81 120.74 60.44 119.83 55.72 117.3L66.67 100.77C71.39 103.3 76.76 104.22 82.25 103.44C83.8 103.22 85.36 102.87 86.92 102.38C94.16 100.12 100.47 95.25 104.9 88.56Z" stroke="#1D1D1B" stroke-linecap="round" stroke-linejoin="round"/>
</g>
<path d="M104.9 88.56L93.95 105.09C89.52 111.78 83.21 116.65 75.97 118.91C74.41 119.4 72.85 119.75 71.3 119.97C65.81 120.74 60.44 119.83 55.72 117.3L66.67 100.77C71.39 103.3 76.76 104.22 82.25 103.44C83.8 103.22 85.36 102.87 86.92 102.38C94.16 100.12 100.47 95.25 104.9 88.56Z" stroke="#1D1D1B" stroke-linecap="round" stroke-linejoin="round"/>
<path d="M141.15 120.44L130.21 136.97L51.5099 148.03L62.4599 131.5L141.15 120.44Z" stroke="#1D1D1B" stroke-linecap="round" stroke-linejoin="round"/>
<path d="M35.52 115.1L24.57 131.62L2.48999 71.75L13.44 55.22L35.52 115.1Z" stroke="#1D1D1B" stroke-linecap="round" stroke-linejoin="round"/>
<mask id="mask9_258_2464" style="mask-type:luminance" maskUnits="userSpaceOnUse" x="24" y="115" width="39" height="34">
<path d="M62.4599 131.5L51.5099 148.03C40.5399 149.57 28.4799 142.23 24.5699 131.62L35.5199 115.09C39.4299 125.69 51.4899 133.04 62.4599 131.5Z" fill="white"/>
</mask>
<g mask="url(#mask9_258_2464)">
<path d="M62.4599 131.5L51.5099 148.03C40.5399 149.57 28.4799 142.23 24.5699 131.62L35.5199 115.09C39.4299 125.69 51.4899 133.04 62.4599 131.5Z" stroke="#1D1D1B" stroke-linecap="round" stroke-linejoin="round"/>
</g>
<path d="M62.4599 131.5L51.5099 148.03C40.5399 149.57 28.4799 142.23 24.5699 131.62L35.5199 115.09C39.4299 125.69 51.4899 133.04 62.4599 131.5Z" stroke="#1D1D1B" stroke-linecap="round" stroke-linejoin="round"/>
<path d="M117.4 23.96C124.12 26.78 129.52 32.25 131.85 38.57L153.93 98.44C157.84 109.04 152.12 118.89 141.15 120.43L62.4599 131.49C51.4899 133.03 39.4299 125.69 35.5199 115.08L13.4399 55.21C11.1099 48.89 12.1499 42.51 16.2199 38.17L45.9299 6.51C48.4899 3.78 51.9999 2.11001 55.9299 1.55001C59.8599 1.00001 64.1999 1.57001 68.4199 3.35001L117.4 23.95V23.96ZM117.09 62.01C115.09 52.05 109.45 43.79 101.15 38.74C94.5099 34.7 86.8899 33.14 79.2499 34.22C77.3499 34.49 75.4499 34.92 73.5599 35.51C64.4099 38.35 56.5799 44.74 51.5199 53.45C46.4599 62.16 44.7099 72.26 46.5999 81.84C48.5999 91.81 54.2499 100.07 62.5399 105.11C69.1999 109.17 76.8099 110.71 84.4799 109.63C86.3699 109.37 88.2599 108.93 90.1599 108.34C99.2999 105.5 107.13 99.11 112.2 90.4C117.26 81.69 119.01 71.6 117.08 62.02" fill="#C2F530"/>
<path d="M117.09 62.01C115.09 52.05 109.45 43.79 101.15 38.74C94.5099 34.7 86.8899 33.14 79.2499 34.22C77.3499 34.49 75.4499 34.92 73.5599 35.51C64.4099 38.35 56.5799 44.74 51.5199 53.45C46.4599 62.16 44.7099 72.26 46.5999 81.84C48.5999 91.81 54.2499 100.07 62.5399 105.11C69.1999 109.17 76.8099 110.71 84.4799 109.63C86.3699 109.37 88.2599 108.93 90.1599 108.34C99.2999 105.5 107.13 99.11 112.2 90.4C117.26 81.69 119.01 71.6 117.08 62.02M117.4 23.96C124.12 26.78 129.52 32.25 131.85 38.57L153.93 98.44C157.84 109.04 152.12 118.89 141.15 120.43L62.4599 131.49C51.4899 133.03 39.4299 125.69 35.5199 115.08L13.4399 55.21C11.1099 48.89 12.1499 42.51 16.2199 38.17L45.9299 6.51C48.4899 3.78 51.9999 2.11001 55.9299 1.55001C59.8599 1.00001 64.1999 1.57001 68.4199 3.35001L117.4 23.95V23.96Z" stroke="#1D1D1B" stroke-linecap="round" stroke-linejoin="round"/>
</svg>
