<svg width="50" height="50" viewBox="0 0 50 50" fill="none" xmlns="http://www.w3.org/2000/svg">
<rect width="50" height="50" fill="#F4F4F4"/>
<mask id="mask0_249_960" style="mask-type:luminance" maskUnits="userSpaceOnUse" x="10" y="33" width="9" height="8">
<path d="M14.9108 39.085L10.928 33.9567C11.6876 34.9345 12.7887 35.5473 14.1895 35.7015C14.2635 35.7101 14.3399 35.7076 14.4176 35.6965L18.4004 40.8249C18.3227 40.836 18.2451 40.8385 18.1723 40.8298C16.7715 40.6769 15.6704 40.0629 14.9108 39.085Z" fill="white"/>
</mask>
<g mask="url(#mask0_249_960)">
<path d="M14.9108 39.085L10.928 33.9567C11.6876 34.9345 12.7887 35.5473 14.1895 35.7015C14.2635 35.7101 14.3399 35.7076 14.4176 35.6965L18.4004 40.8249C18.3227 40.836 18.2451 40.8385 18.1723 40.8298C16.7715 40.6769 15.6704 40.0629 14.9108 39.085Z" stroke="#BAA69E" stroke-width="0.5" stroke-miterlimit="10" stroke-linejoin="round"/>
</g>
<path d="M14.9108 39.085L10.928 33.9567C11.6876 34.9345 12.7887 35.5473 14.1895 35.7015C14.2635 35.7101 14.3399 35.7076 14.4176 35.6965L18.4004 40.8249C18.3227 40.836 18.2451 40.8385 18.1723 40.8298C16.7715 40.6769 15.6704 40.0629 14.9108 39.085Z" stroke="#BAA69E" stroke-width="0.5" stroke-miterlimit="10" stroke-linejoin="round"/>
<path d="M14.4176 35.6954C14.3399 35.7065 14.2622 35.7089 14.1895 35.7003C9.88358 35.2293 8.41252 30.4166 10.9736 24.0255C13.7702 17.0488 20.3512 10.7428 25.9123 9.60594C25.9358 9.60101 25.9604 9.59731 25.9826 9.59361C26.3156 9.54675 26.5597 9.66882 26.6189 9.91667C26.9173 11.1818 27.2206 15.3706 21.2501 22.5804C16.2758 28.5879 15.6556 32.498 15.7592 34.3673C15.79 34.921 15.0563 35.6041 14.4164 35.6941L14.4176 35.6954Z" fill="#F4F4F4" stroke="#BAA69E" stroke-width="0.5" stroke-miterlimit="10" stroke-linejoin="round"/>
<path d="M26.5449 9.76001L30.5277 14.8884C30.5622 14.9328 30.5881 14.9858 30.6017 15.0462C30.9001 16.3113 31.2034 20.5001 25.2329 27.7099C20.2587 33.7174 19.6384 37.6275 19.742 39.4969C19.7728 40.0505 19.0392 40.7336 18.3992 40.8237L14.4164 35.6953C15.0563 35.6053 15.79 34.9222 15.7592 34.3685C15.6556 32.4992 16.2746 28.5891 21.2501 22.5815C27.2206 15.3705 26.9173 11.1817 26.6189 9.91784C26.6041 9.85742 26.5794 9.8044 26.5449 9.76001Z" stroke="#BAA69E" stroke-width="0.5" stroke-miterlimit="10" stroke-linejoin="round"/>
<path d="M18.4004 40.8237L14.4176 35.6953C14.4447 35.6916 14.4706 35.6867 14.4978 35.6805L18.4806 40.8089C18.4535 40.8151 18.4263 40.82 18.4004 40.8237Z" fill="#F4F4F4" stroke="#BAA69E" stroke-width="0.5" stroke-miterlimit="10" stroke-linejoin="round"/>
<path d="M18.4818 40.8101L14.499 35.6818C14.5311 35.6744 14.5643 35.667 14.5964 35.6571L18.5792 40.7855C18.5472 40.7953 18.5139 40.804 18.4818 40.8101Z" fill="#F4F4F4" stroke="#BAA69E" stroke-width="0.5" stroke-miterlimit="10" stroke-linejoin="round"/>
<path d="M18.5792 40.7843L14.5964 35.6559C14.6223 35.6485 14.6482 35.6399 14.6741 35.63L18.6569 40.7584C18.631 40.767 18.6051 40.7756 18.5792 40.7843Z" fill="#F4F4F4" stroke="#BAA69E" stroke-width="0.5" stroke-miterlimit="10" stroke-linejoin="round"/>
<path d="M18.6557 40.7596L14.6729 35.6313C14.6963 35.6226 14.7185 35.614 14.7419 35.6041L18.7247 40.7325C18.7013 40.7424 18.6791 40.751 18.6557 40.7596Z" fill="#F4F4F4" stroke="#BAA69E" stroke-width="0.5" stroke-miterlimit="10" stroke-linejoin="round"/>
<path d="M18.7247 40.7324L14.7419 35.604C14.7629 35.5954 14.7851 35.5855 14.806 35.5757L18.7889 40.704C18.7679 40.7139 18.7469 40.7238 18.7247 40.7324Z" fill="#F4F4F4" stroke="#BAA69E" stroke-width="0.5" stroke-miterlimit="10" stroke-linejoin="round"/>
<path d="M18.7889 40.7053L14.806 35.5769C14.8258 35.5683 14.8455 35.5584 14.864 35.5486L18.8468 40.677C18.8271 40.6868 18.8086 40.6967 18.7889 40.7053Z" fill="#F4F4F4" stroke="#BAA69E" stroke-width="0.5" stroke-miterlimit="10" stroke-linejoin="round"/>
<path d="M18.8468 40.677L14.864 35.5486C14.8825 35.5388 14.9022 35.5289 14.9207 35.5178L18.9035 40.6462C18.885 40.6561 18.8653 40.6672 18.8468 40.677Z" fill="#F4F4F4" stroke="#BAA69E" stroke-width="0.5" stroke-miterlimit="10" stroke-linejoin="round"/>
<path d="M18.9036 40.6461L14.9207 35.5178C14.9392 35.5079 14.9577 35.4968 14.975 35.4857L18.9578 40.6141C18.9393 40.6252 18.9208 40.635 18.9036 40.6461Z" fill="#F4F4F4" stroke="#BAA69E" stroke-width="0.5" stroke-miterlimit="10" stroke-linejoin="round"/>
<path d="M18.959 40.6153L14.9762 35.4869C14.9947 35.4758 15.0119 35.4647 15.0304 35.4536L19.0133 40.582C18.996 40.5931 18.9775 40.6042 18.959 40.6153Z" fill="#F4F4F4" stroke="#BAA69E" stroke-width="0.5" stroke-miterlimit="10" stroke-linejoin="round"/>
<path d="M19.012 40.5807L15.0292 35.4524C15.0465 35.4413 15.065 35.4289 15.0822 35.4178L19.0651 40.5462C19.0478 40.5585 19.0305 40.5696 19.012 40.5807Z" fill="#F4F4F4" stroke="#BAA69E" stroke-width="0.5" stroke-miterlimit="10" stroke-linejoin="round"/>
<path d="M19.0651 40.5462L15.0822 35.4179C15.0995 35.4055 15.118 35.3932 15.1353 35.3809L19.1181 40.5092C19.1008 40.5216 19.0836 40.5351 19.0651 40.5462Z" fill="#F4F4F4" stroke="#BAA69E" stroke-width="0.5" stroke-miterlimit="10" stroke-linejoin="round"/>
<path d="M19.1181 40.5093L15.1353 35.3809C15.1525 35.3673 15.1698 35.355 15.187 35.3414L19.1699 40.4698C19.1526 40.4834 19.1354 40.4969 19.1181 40.5093Z" fill="#F4F4F4" stroke="#BAA69E" stroke-width="0.5" stroke-miterlimit="10" stroke-linejoin="round"/>
<path d="M19.1699 40.4685L15.187 35.3402C15.2043 35.3266 15.2228 35.3118 15.2401 35.297L19.2229 40.4254C19.2056 40.4402 19.1884 40.4537 19.1699 40.4685Z" fill="#F4F4F4" stroke="#BAA69E" stroke-width="0.5" stroke-miterlimit="10" stroke-linejoin="round"/>
<path d="M19.2229 40.4253L15.2401 35.297C15.2586 35.2822 15.2758 35.2662 15.2943 35.2501L19.2772 40.3785C19.2599 40.3945 19.2414 40.4105 19.2229 40.4253Z" fill="#F4F4F4" stroke="#BAA69E" stroke-width="0.5" stroke-miterlimit="10" stroke-linejoin="round"/>
<path d="M19.2759 40.3785L15.2931 35.2501C15.3116 35.2329 15.3301 35.2168 15.3473 35.1996L19.3302 40.3279C19.3129 40.3452 19.2944 40.3625 19.2759 40.3785Z" fill="#F4F4F4" stroke="#BAA69E" stroke-width="0.5" stroke-miterlimit="10" stroke-linejoin="round"/>
<path d="M19.3302 40.3279L15.3474 35.1996C15.3671 35.1798 15.3868 35.1601 15.4053 35.1404L19.3881 40.2687C19.3696 40.2885 19.3499 40.3082 19.3302 40.3279Z" fill="#F4F4F4" stroke="#BAA69E" stroke-width="0.5" stroke-miterlimit="10" stroke-linejoin="round"/>
<path d="M19.3881 40.2688L15.4053 35.1404C15.4275 35.1157 15.4497 35.0911 15.4707 35.0664L19.4535 40.1948C19.4325 40.2194 19.4103 40.2441 19.3881 40.2688Z" fill="#F4F4F4" stroke="#BAA69E" stroke-width="0.5" stroke-miterlimit="10" stroke-linejoin="round"/>
<path d="M19.4535 40.1948L15.4706 35.0664C15.5002 35.0307 15.5286 34.9937 15.5557 34.9567L19.5386 40.085C19.5127 40.122 19.4843 40.159 19.4535 40.1948Z" fill="#F4F4F4" stroke="#BAA69E" stroke-width="0.5" stroke-miterlimit="10" stroke-linejoin="round"/>
<path d="M19.5386 40.0851L15.5557 34.9567C15.6149 34.8728 15.663 34.7865 15.6988 34.699L19.6816 39.8273C19.6471 39.9136 19.5977 40.0012 19.5386 40.0851Z" fill="#F4F4F4" stroke="#BAA69E" stroke-width="0.5" stroke-miterlimit="10" stroke-linejoin="round"/>
<path d="M19.6816 39.8286L15.6988 34.7002C15.7136 34.6644 15.7259 34.6274 15.7358 34.5917L19.7186 39.72C19.7088 39.7558 19.6964 39.7928 19.6816 39.8286Z" fill="#F4F4F4" stroke="#BAA69E" stroke-width="0.5" stroke-miterlimit="10" stroke-linejoin="round"/>
<path d="M19.7186 39.7201L15.7357 34.5917C15.7431 34.5658 15.7481 34.5411 15.7518 34.5165L19.7346 39.6448C19.7309 39.6695 19.7247 39.6954 19.7186 39.7201Z" fill="#F4F4F4" stroke="#BAA69E" stroke-width="0.5" stroke-miterlimit="10" stroke-linejoin="round"/>
<path d="M19.7346 39.6436L15.7518 34.5153C15.7555 34.4943 15.758 34.4734 15.7592 34.4524L19.742 39.5808C19.7408 39.6017 19.7383 39.6227 19.7346 39.6436Z" fill="#F4F4F4" stroke="#BAA69E" stroke-width="0.5" stroke-miterlimit="10" stroke-linejoin="round"/>
<path d="M19.742 39.5807L15.7592 34.4523C15.7604 34.4338 15.7617 34.4166 15.7617 34.3993L19.7445 39.5277C19.7445 39.5449 19.7445 39.5634 19.742 39.5807Z" fill="#F4F4F4" stroke="#BAA69E" stroke-width="0.5" stroke-miterlimit="10" stroke-linejoin="round"/>
<path d="M19.7445 39.5277L15.7617 34.3993C15.7617 34.3895 15.7617 34.3796 15.7617 34.3685C15.7567 34.2699 15.753 34.1651 15.7518 34.0541L19.7346 39.1824C19.7346 39.2934 19.7396 39.3982 19.7445 39.4969C19.7445 39.5067 19.7445 39.5166 19.7445 39.5277Z" fill="#F4F4F4" stroke="#BAA69E" stroke-width="0.5" stroke-miterlimit="10" stroke-linejoin="round"/>
<path d="M19.7334 39.1824L15.7505 34.054C15.7493 33.858 15.7555 33.6447 15.7727 33.4116L19.7556 38.54C19.7383 38.7718 19.7309 38.9864 19.7334 39.1824Z" fill="#F4F4F4" stroke="#BAA69E" stroke-width="0.5" stroke-miterlimit="10" stroke-linejoin="round"/>
<path d="M19.7556 38.54L15.7727 33.4117C15.7912 33.1675 15.8221 32.9024 15.8689 32.6176L19.8518 37.7459C19.8049 38.0308 19.7741 38.2946 19.7556 38.54Z" stroke="#BAA69E" stroke-width="0.5" stroke-miterlimit="10" stroke-linejoin="round"/>
<path d="M19.8518 37.7472L15.8689 32.6188C15.9219 32.2957 15.9959 31.9468 16.0946 31.5707L20.0774 36.699C19.9788 37.0739 19.9048 37.4229 19.8518 37.7472Z" stroke="#BAA69E" stroke-width="0.5" stroke-miterlimit="10" stroke-linejoin="round"/>
<path d="M20.0774 36.6991L16.0946 31.5707C16.2315 31.0516 16.4177 30.4831 16.6655 29.8641L20.6484 34.9925C20.4005 35.6115 20.2143 36.1799 20.0774 36.6991Z" stroke="#BAA69E" stroke-width="0.5" stroke-miterlimit="10" stroke-linejoin="round"/>
<path d="M23.4277 30.0576L19.4449 24.9293C19.9714 24.1857 20.5707 23.404 21.2501 22.5827C21.9332 21.7578 22.5349 20.9711 23.0627 20.2251L27.0455 25.3535C26.5165 26.0995 25.916 26.8849 25.2329 27.7111C24.5523 28.5323 23.9542 29.3153 23.4277 30.0576Z" fill="#BAA69E" stroke="#BAA69E" stroke-width="0.5" stroke-miterlimit="10" stroke-linejoin="round"/>
<path d="M29.8224 20.4188L25.8396 15.2904C26.085 14.6776 26.2687 14.114 26.4056 13.5999L30.3884 18.7282C30.2528 19.2424 30.0678 19.8059 29.8224 20.4188Z" fill="#BAA69E" stroke="#BAA69E" stroke-width="0.5" stroke-miterlimit="10" stroke-linejoin="round"/>
<path d="M30.3872 18.7283L26.4044 13.5999C26.5042 13.2238 26.577 12.8748 26.63 12.5505L30.6128 17.6789C30.5598 18.002 30.4858 18.3522 30.3872 18.7283Z" fill="#BAA69E" stroke="#BAA69E" stroke-width="0.5" stroke-miterlimit="10" stroke-linejoin="round"/>
<mask id="mask1_249_960" style="mask-type:luminance" maskUnits="userSpaceOnUse" x="19" y="34" width="5" height="7">
<path d="M23.26 40.0666L19.2772 34.9382C19.3857 35.0776 19.5867 35.1392 19.8394 35.1035L23.8223 40.2318C23.5695 40.2676 23.3685 40.2059 23.26 40.0666Z" fill="white"/>
</mask>
<g mask="url(#mask1_249_960)">
<path d="M23.26 40.0666L19.2772 34.9382C19.3857 35.0776 19.5867 35.1392 19.8394 35.1035L23.8223 40.2318C23.5695 40.2676 23.3685 40.2059 23.26 40.0666Z" stroke="#BAA69E" stroke-width="0.5" stroke-miterlimit="10" stroke-linejoin="round"/>
</g>
<path d="M23.26 40.0666L19.2772 34.9382C19.3857 35.0776 19.5867 35.1392 19.8394 35.1035L23.8223 40.2318C23.5695 40.2676 23.3685 40.2059 23.26 40.0666Z" stroke="#BAA69E" stroke-width="0.5" stroke-miterlimit="10" stroke-linejoin="round"/>
<path d="M34.8953 10.7416L38.8781 15.8699C40.4515 17.8959 40.5588 21.4891 38.8325 25.7987C36.0359 32.7766 29.4549 39.0826 23.8938 40.2195C23.8703 40.2244 23.8457 40.2281 23.8235 40.2318L19.8406 35.1035C19.8641 35.0998 19.8875 35.0961 19.9109 35.0911C25.4721 33.9542 32.0543 27.6495 34.8496 20.6703C36.5772 16.3607 36.4699 12.7675 34.8953 10.7416Z" stroke="#BAA69E" stroke-width="0.5" stroke-miterlimit="10" stroke-linejoin="round"/>
<path d="M23.8223 40.2318L19.8394 35.1035C19.8629 35.0998 19.8863 35.0961 19.9097 35.0911C19.9418 35.085 19.9726 35.0776 20.0047 35.0714L23.9875 40.1998C23.9555 40.2059 23.9246 40.2133 23.8926 40.2195C23.8691 40.2244 23.8445 40.2281 23.8223 40.2318Z" stroke="#BAA69E" stroke-width="0.5" stroke-miterlimit="10" stroke-linejoin="round"/>
<path d="M23.9887 40.1998L20.0059 35.0714C20.2747 35.0135 20.5472 34.9444 20.8197 34.863L24.8026 39.9914C24.5288 40.0728 24.2575 40.1418 23.9887 40.1998Z" stroke="#BAA69E" stroke-width="0.5" stroke-miterlimit="10" stroke-linejoin="round"/>
<path d="M24.8026 39.9914L20.8198 34.863C21.0368 34.7989 21.255 34.7261 21.4745 34.6484L25.4574 39.7768C25.2379 39.8557 25.0196 39.9272 24.8026 39.9914Z" stroke="#BAA69E" stroke-width="0.5" stroke-miterlimit="10" stroke-linejoin="round"/>
<path d="M25.4561 39.7755L21.4733 34.6472C21.6693 34.5769 21.8654 34.5005 22.0627 34.4191L26.0455 39.5474C25.8482 39.6288 25.6522 39.7053 25.4561 39.7755Z" stroke="#BAA69E" stroke-width="0.5" stroke-miterlimit="10" stroke-linejoin="round"/>
<path d="M26.0455 39.5475L22.0627 34.4191C22.2501 34.3414 22.4375 34.26 22.625 34.1725L26.6078 39.3008C26.4204 39.3884 26.2317 39.4698 26.0455 39.5475Z" stroke="#BAA69E" stroke-width="0.5" stroke-miterlimit="10" stroke-linejoin="round"/>
<path d="M26.609 39.3008L22.6262 34.1724C22.805 34.0898 22.985 34.0023 23.1638 33.911L27.1466 39.0394C26.9679 39.1306 26.7878 39.2182 26.609 39.3008Z" stroke="#BAA69E" stroke-width="0.5" stroke-miterlimit="10" stroke-linejoin="round"/>
<path d="M27.1466 39.0394L23.1638 33.911C23.3414 33.821 23.5189 33.7261 23.6965 33.6274L27.6793 38.7558C27.5017 38.8544 27.3242 38.9482 27.1466 39.0394Z" stroke="#BAA69E" stroke-width="0.5" stroke-miterlimit="10" stroke-linejoin="round"/>
<path d="M27.6794 38.757L23.6965 33.6287C23.8741 33.53 24.0504 33.4289 24.2268 33.3229L28.2096 38.4512C28.0333 38.5573 27.8557 38.6596 27.6794 38.757Z" stroke="#BAA69E" stroke-width="0.5" stroke-miterlimit="10" stroke-linejoin="round"/>
<path d="M28.2096 38.4512L24.2267 33.3228C24.408 33.2143 24.588 33.1021 24.7693 32.9862L28.7521 38.1146C28.5721 38.2305 28.3908 38.3427 28.2096 38.4512Z" stroke="#BAA69E" stroke-width="0.5" stroke-miterlimit="10" stroke-linejoin="round"/>
<path d="M28.7521 38.1146L24.7693 32.9863C24.9542 32.8666 25.1392 32.7446 25.3229 32.6163L29.3057 37.7447C29.122 37.8717 28.9371 37.995 28.7521 38.1146Z" stroke="#BAA69E" stroke-width="0.5" stroke-miterlimit="10" stroke-linejoin="round"/>
<path d="M29.3058 37.7447L25.3229 32.6164C25.5128 32.4857 25.7015 32.35 25.8902 32.2119L29.873 37.3403C29.6843 37.4796 29.4957 37.614 29.3058 37.7447Z" stroke="#BAA69E" stroke-width="0.5" stroke-miterlimit="10" stroke-linejoin="round"/>
<path d="M29.8742 37.3403L25.8914 32.2119C26.0948 32.0627 26.2971 31.9073 26.4981 31.7495L30.4809 36.8779C30.2799 37.0369 30.0777 37.1911 29.8742 37.3403Z" stroke="#BAA69E" stroke-width="0.5" stroke-miterlimit="10" stroke-linejoin="round"/>
<path d="M30.4809 36.8766L26.498 31.7483C26.7113 31.5793 26.9247 31.4067 27.1355 31.2279L31.1184 36.3563C30.9075 36.5338 30.6942 36.7077 30.4809 36.8766Z" stroke="#BAA69E" stroke-width="0.5" stroke-miterlimit="10" stroke-linejoin="round"/>
<path d="M31.1184 36.3575L27.1356 31.2291C27.3637 31.0368 27.5906 30.8382 27.8162 30.6335L31.7991 35.7619C31.5746 35.9654 31.3477 36.1639 31.1184 36.3575Z" stroke="#BAA69E" stroke-width="0.5" stroke-miterlimit="10" stroke-linejoin="round"/>
<path d="M31.7978 35.7619L27.815 30.6335C28.0665 30.4054 28.3144 30.1723 28.561 29.9319L32.5438 35.0603C32.2984 35.3007 32.0494 35.5338 31.7978 35.7619Z" stroke="#BAA69E" stroke-width="0.5" stroke-miterlimit="10" stroke-linejoin="round"/>
<path d="M32.5438 35.0603L28.561 29.9319C28.8495 29.6496 29.1332 29.3598 29.4131 29.0626L33.3959 34.191C33.116 34.4894 32.8324 34.7792 32.5438 35.0603Z" stroke="#BAA69E" stroke-width="0.5" stroke-miterlimit="10" stroke-linejoin="round"/>
<path d="M33.3959 34.1909L29.413 29.0626C29.7657 28.6865 30.1109 28.2993 30.4463 27.8998L34.4292 33.0281C34.0938 33.4264 33.7485 33.8148 33.3959 34.1909Z" stroke="#BAA69E" stroke-width="0.5" stroke-miterlimit="10" stroke-linejoin="round"/>
<path d="M34.428 33.0281L30.4451 27.8998C30.963 27.2832 31.46 26.642 31.9285 25.9786L35.9113 31.107C35.4428 31.7692 34.9471 32.4116 34.428 33.0281Z" stroke="#BAA69E" stroke-width="0.5" stroke-miterlimit="10" stroke-linejoin="round"/>
<path d="M38.8387 25.7827L34.8558 20.6543C35.1715 19.8651 35.4255 19.1006 35.6203 18.3657L39.6032 23.4941C39.4084 24.229 39.1543 24.9947 38.8387 25.7827Z" stroke="#BAA69E" stroke-width="0.5" stroke-miterlimit="10" stroke-linejoin="round"/>
<path d="M39.6032 23.494L35.6203 18.3657C35.7547 17.8577 35.8608 17.3632 35.9397 16.8848L39.9225 22.0131C39.8436 22.4916 39.7376 22.986 39.6032 23.494Z" stroke="#BAA69E" stroke-width="0.5" stroke-miterlimit="10" stroke-linejoin="round"/>
<path d="M39.9225 22.0131L35.9397 16.8847C36.0038 16.4976 36.0494 16.1202 36.0766 15.7552L40.0594 20.8836C40.031 21.2498 39.9854 21.6259 39.9225 22.0131Z" stroke="#BAA69E" stroke-width="0.5" stroke-miterlimit="10" stroke-linejoin="round"/>
<path d="M40.0607 20.8836L36.0779 15.7552C36.1025 15.4346 36.1136 15.1227 36.1111 14.8193L40.094 19.9477C40.0964 20.251 40.0853 20.563 40.0607 20.8836Z" stroke="#BAA69E" stroke-width="0.5" stroke-miterlimit="10" stroke-linejoin="round"/>
<path d="M40.094 19.9478L36.1111 14.8194C36.1087 14.5469 36.0963 14.2818 36.0729 14.024L40.0557 19.1524C40.0792 19.4101 40.0915 19.6752 40.094 19.9478Z" stroke="#BAA69E" stroke-width="0.5" stroke-miterlimit="10" stroke-linejoin="round"/>
<path d="M40.0557 19.1524L36.0729 14.024C36.0519 13.7873 36.0211 13.5579 35.9816 13.3347L39.9645 18.4631C40.0039 18.6863 40.0348 18.9156 40.0557 19.1524Z" stroke="#BAA69E" stroke-width="0.5" stroke-miterlimit="10" stroke-linejoin="round"/>
<path d="M39.9645 18.4631L35.9816 13.3347C35.9446 13.1263 35.9002 12.9241 35.8484 12.7292L39.8313 17.8576C39.8831 18.0537 39.9275 18.2547 39.9645 18.4631Z" stroke="#BAA69E" stroke-width="0.5" stroke-miterlimit="10" stroke-linejoin="round"/>
<path d="M39.8313 17.8576L35.8485 12.7293C35.7992 12.5443 35.7437 12.3643 35.6808 12.1917L39.6636 17.32C39.7265 17.4939 39.782 17.6727 39.8313 17.8576Z" stroke="#BAA69E" stroke-width="0.5" stroke-miterlimit="10" stroke-linejoin="round"/>
<path d="M39.6636 17.3187L35.6808 12.1904C35.6203 12.0239 35.555 11.8636 35.4822 11.7083L39.4651 16.8366C39.5378 16.992 39.6032 17.1523 39.6636 17.3187Z" stroke="#BAA69E" stroke-width="0.5" stroke-miterlimit="10" stroke-linejoin="round"/>
<path d="M39.4651 16.8367L35.4822 11.7084C35.4119 11.5579 35.3367 11.4124 35.2553 11.2731L39.2382 16.4014C39.3196 16.5408 39.3948 16.6863 39.4651 16.8367Z" stroke="#BAA69E" stroke-width="0.5" stroke-miterlimit="10" stroke-linejoin="round"/>
<path d="M39.237 16.4014L35.2541 11.273C35.174 11.1361 35.0889 11.0054 34.9989 10.8796L38.9817 16.008C39.0717 16.1338 39.1568 16.2645 39.237 16.4014Z" fill="#F4F4F4" stroke="#BAA69E" stroke-width="0.5" stroke-miterlimit="10" stroke-linejoin="round"/>
<path d="M38.9817 16.008L34.9989 10.8797C34.9656 10.8328 34.9311 10.7872 34.8953 10.7416L38.8782 15.8699C38.9139 15.9156 38.9484 15.9612 38.9817 16.008Z" fill="#F4F4F4" stroke="#BAA69E" stroke-width="0.5" stroke-miterlimit="10" stroke-linejoin="round"/>
<path d="M19.8395 35.1034C19.5065 35.1503 19.2611 35.0282 19.2032 34.7804C18.9048 33.5165 18.6002 29.3277 24.572 22.1154C29.5462 16.1079 30.1652 12.1991 30.0617 10.3297C30.0308 9.77606 30.7645 9.09294 31.4045 9.00292C31.4822 8.99182 31.5598 8.98936 31.6326 8.99799C35.9385 9.46779 37.4108 14.2805 34.8497 20.6715C32.0531 27.6495 25.4721 33.9555 19.911 35.0923C19.8875 35.0973 19.8629 35.101 19.8407 35.1047L19.8395 35.1034Z" fill="#F4F4F4" stroke="#BAA69E" stroke-width="0.5" stroke-miterlimit="10" stroke-linejoin="round"/>
</svg>
