<svg width="18" height="18" viewBox="0 0 18 18" fill="none" xmlns="http://www.w3.org/2000/svg">
<g clip-path="url(#clip0_249_668)">
<path d="M4.52801 17.4937C4.27488 17.4937 4.02176 17.4094 3.82489 17.2687C3.43113 16.9875 3.20613 16.4812 3.29051 16.0031L4.02176 11.475L0.87176 8.2406C0.53426 7.9031 0.42176 7.39685 0.562385 6.91873C0.70301 6.46873 1.09676 6.13123 1.54676 6.07498L5.90613 5.37185L7.87488 1.23748C8.09988 0.787476 8.52176 0.506226 8.99988 0.506226C9.47801 0.506226 9.92801 0.787476 10.1249 1.23748L12.0936 5.34373L16.4249 6.01873C16.8749 6.1031 17.2686 6.41248 17.4093 6.86248C17.578 7.3406 17.4374 7.84685 17.0999 8.18435L13.978 11.4469L14.7093 16.0031C14.7936 16.5094 14.5968 16.9875 14.1749 17.2687C13.7811 17.55 13.303 17.5781 12.8811 17.3531L8.99988 15.2437L5.11863 17.3531C4.94988 17.4656 4.72488 17.4937 4.52801 17.4937ZM1.77176 7.31248C1.77176 7.31248 1.77176 7.3406 1.77176 7.36873L5.06238 10.7437C5.25926 10.9406 5.34363 11.25 5.31551 11.5312L4.55614 16.2281C4.55614 16.2281 4.55614 16.2281 4.55614 16.2562L8.60613 14.0625C8.85926 13.9219 9.16863 13.9219 9.44988 14.0625L13.4999 16.2562C13.4999 16.2562 13.4999 16.2562 13.4999 16.2281L12.7405 11.5031C12.6843 11.2219 12.7968 10.9406 12.9936 10.7156L16.2843 7.3406C16.3124 7.31248 16.2843 7.28435 16.2843 7.28435L11.7561 6.58123C11.4749 6.52498 11.2218 6.35623 11.1093 6.07498L8.99988 1.79998L6.97488 6.1031C6.86238 6.35623 6.60926 6.5531 6.32801 6.60935L1.77176 7.31248Z" fill="#EB8052"/>
</g>
<defs>
<clipPath id="clip0_249_668">
<rect width="18" height="18" fill="white"/>
</clipPath>
</defs>
</svg>
