<svg width="103" height="152" viewBox="0 0 103 152" fill="none" xmlns="http://www.w3.org/2000/svg">
<path d="M72.017 125.035L79.7524 151.087H48.7256C48.6972 151.03 44.9416 113.188 47.4213 104.989C49.9474 96.6323 58.5334 70.2555 58.6185 69.99C58.7139 69.691 59.0206 69.5106 59.3325 69.575C59.531 69.6163 64.199 70.619 64.529 74.5498C64.7738 77.46 64.6553 87.6957 64.6011 91.4281C67.1736 89.2036 73.9063 82.9709 76.9583 76.3078C77.1 75.9959 77.466 75.8593 77.7779 76.0036C77.9558 76.0835 78.0666 76.2407 78.1104 76.416C78.1826 76.3774 78.2625 76.349 78.3476 76.3438C78.3631 76.3438 78.3785 76.349 78.394 76.349C77.8501 75.4778 77.2083 74.4751 76.5072 73.4311C75.007 71.1989 74.4786 69.1085 74.94 67.2139C75.5509 64.711 77.6774 63.5253 77.765 63.4764C77.7831 63.4661 77.8037 63.4661 77.8218 63.4583C77.7547 63.3784 77.6851 63.2908 77.6233 63.216C73.7852 58.584 78.3631 51.8719 78.5615 51.5884C78.6775 51.426 78.8605 51.3255 79.059 51.3229C79.2575 51.3177 79.4457 51.4105 79.5668 51.5703L83.972 57.4602C84.1086 55.7951 84.6834 49.7634 85.9026 47.8586C87.2945 45.6856 91.7564 44.0952 91.9445 44.0256C92.1327 43.9586 92.3441 43.987 92.509 44.1055C92.6714 44.2215 92.7694 44.4097 92.772 44.6082L92.8493 69.0646C92.8493 69.1368 92.8235 69.2013 92.8029 69.2657L95.6924 73.1321C95.7878 73.261 95.8316 73.4208 95.811 73.5781C95.811 73.5781 92.4601 100.78 92.3853 100.867L72.0195 125.033L72.017 125.035Z" fill="#481009"/>
<path d="M25.4315 125.035L21.516 151.087H48.7254C48.7538 151.03 52.5094 113.188 50.0297 104.989C47.5036 96.6323 38.9176 70.2555 38.8325 69.99C38.7371 69.691 38.4304 69.5106 38.1185 69.575C37.92 69.6163 33.252 70.619 32.922 74.5498C32.6771 77.46 32.7957 87.6957 32.8498 91.4281C30.2774 89.2036 23.5446 82.9709 20.4927 76.3078C20.351 75.9959 19.9849 75.8593 19.673 76.0036C19.4952 76.0835 19.3844 76.2407 19.3405 76.416C19.2684 76.3774 19.1885 76.349 19.1034 76.3438C19.0879 76.3438 19.0725 76.349 19.057 76.349C19.6009 75.4778 20.2427 74.4751 20.9438 73.4311C22.444 71.1989 22.9724 69.1085 22.511 67.2139C21.9001 64.711 19.7736 63.5253 19.6859 63.4764C19.6679 63.4661 19.6473 63.4661 19.6292 63.4583C19.6962 63.3784 19.7658 63.2908 19.8277 63.216C23.6658 58.584 19.0879 51.8719 18.8895 51.5884C18.7735 51.426 18.5904 51.3255 18.392 51.3229C18.1935 51.3177 18.0053 51.4105 17.8842 51.5703L13.479 57.4602C13.3424 55.7951 12.7676 49.7634 11.5484 47.8586C10.1565 45.6856 5.69461 44.0952 5.50644 44.0256C5.31828 43.9586 5.10691 43.987 4.94195 44.1055C4.77956 44.2215 4.6816 44.4097 4.67903 44.6082L4.6017 69.0646C4.6017 69.1368 4.62748 69.2013 4.6481 69.2657L1.75858 73.1321C1.66321 73.261 1.61939 73.4208 1.64001 73.5781C1.64001 73.5781 4.99092 100.78 5.06567 100.867L25.4315 125.033V125.035Z" fill="#481009"/>
<path d="M48.7256 150.578V101.094" stroke="#EB8052" stroke-linecap="round" stroke-linejoin="round"/>
<path d="M84.2891 26.851C79.7241 27.4541 75.8706 29.9647 73.4244 33.4729C66.6118 32.0526 57.3555 31.8335 47.3157 33.1584C27.5041 35.7721 12.1724 43.3967 13.0694 50.1887C13.9664 56.9808 25.0734 89.7913 54.2804 85.9378C71.6665 83.6437 79.5385 69.7967 82.8276 57.8262C84.6113 58.2361 86.4929 58.3443 88.4133 58.0917C97.0277 56.955 103.111 49.0211 101.974 40.4092C100.837 31.7948 92.9035 25.7116 84.2917 26.8484L84.2891 26.851ZM87.3255 49.8588C86.3434 49.9877 85.382 49.9155 84.4772 49.6784C85.0134 45.6238 85.0263 42.3631 84.8098 40.7263C84.6036 39.1565 83.5364 37.7698 81.7888 36.5944C82.7992 35.8082 84.0184 35.2669 85.3768 35.0865C89.4495 34.5503 93.1999 37.4244 93.7361 41.497C94.2722 45.5696 91.3982 49.3201 87.3255 49.8562V49.8588Z" fill="#F4F4F4" stroke="#481009" stroke-linecap="round" stroke-linejoin="round"/>
<path d="M84.4773 49.6784L83.7195 53.4314" stroke="#481009" stroke-linecap="round" stroke-linejoin="round"/>
<path d="M48.9928 53.431C65.9612 50.9132 79.1464 45.0286 78.4429 40.2873C77.7394 35.546 63.4135 33.7435 46.4451 36.2613C29.4768 38.7791 16.2915 44.6637 16.995 49.405C17.6985 54.1463 32.0244 55.9488 48.9928 53.431Z" fill="#EB8052"/>
<path d="M47.6284 44.2371C53.6876 43.3374 59.4034 42.9915 64.269 43.1345C68.6343 43.2629 72.2855 43.7852 74.8833 44.6345C72.6429 46.2011 69.3011 47.7615 65.1616 49.1521C60.5483 50.7019 54.981 52.0317 48.9233 52.9314C42.8642 53.8311 37.1483 54.177 32.2827 54.0339C27.9168 53.9056 24.2654 53.3824 21.6675 52.533C23.9079 50.9663 27.2505 49.4061 31.3901 48.0154C36.0034 46.4656 41.5708 45.1367 47.6284 44.2371Z" fill="#481009" stroke="#481009"/>
<path d="M76.4583 34.2023C80.3788 35.3777 81.7888 36.5944 81.7888 36.5944" stroke="#481009" stroke-linecap="round" stroke-linejoin="round"/>
<path d="M27.4627 86.2032C24.8903 83.4117 22.1477 79.9267 20.4903 76.3078C20.3485 75.9959 19.9825 75.8593 19.6706 76.0036C19.4927 76.0835 19.3819 76.2407 19.3381 76.416C19.2659 76.3774 19.186 76.349 19.1009 76.3438C19.0855 76.3438 19.07 76.349 19.0546 76.349C19.5984 75.4778 20.2403 74.4751 20.9414 73.4311C22.4415 71.1989 22.97 69.1085 22.5086 67.2139C21.8977 64.711 19.7711 63.5253 19.6835 63.4764C19.6654 63.4661 19.6448 63.4661 19.6268 63.4583C19.6938 63.3784 19.7634 63.2908 19.8253 63.216C23.6633 58.584 19.0855 51.8719 18.887 51.5884C18.771 51.426 18.588 51.3255 18.3895 51.3229C18.191 51.3177 18.0029 51.4105 17.8817 51.5703L13.4766 57.4602C13.34 55.7951 12.7652 49.7634 11.5459 47.8586C10.154 45.6856 5.69217 44.0952 5.504 44.0256C5.31584 43.9586 5.10447 43.987 4.9395 44.1055C4.77711 44.2215 4.67916 44.4097 4.67659 44.6082L4.59926 69.0646C4.59926 69.1368 4.62503 69.2013 4.64565 69.2657L1.75614 73.1321C1.66077 73.261 1.61695 73.4208 1.63757 73.5781C1.63757 73.5781 4.98848 100.78 5.06323 100.867L11.1464 108.085C18.3406 104.079 24.1943 96.1941 27.4602 86.2007L27.4627 86.2032Z" fill="#481009"/>
<path d="M13.3556 56.8699L4.31331 68.9615L1.42896 72.8202" stroke="#EB8052" stroke-linecap="round" stroke-linejoin="round"/>
<path d="M2.98071 83.9169C6.23367 79.5453 15.7038 66.8763 18.8872 63.2495" stroke="#EB8052" stroke-linecap="round" stroke-linejoin="round"/>
<path d="M8.11011 87.2626L19.6939 75.8154C19.6939 75.8154 22.7149 80.0247 21.4648 82.9915C20.2146 85.9584 15.1702 91.5699 15.1702 91.5699L16.9153 98.0087C16.9153 98.0087 25.625 99.2666 31.0484 106.734" stroke="#EB8052" stroke-linecap="round" stroke-linejoin="round"/>
<path d="M69.9883 86.2032C72.5607 83.4117 75.3033 79.9267 76.9607 76.3078C77.1025 75.9959 77.4685 75.8593 77.7804 76.0036C77.9583 76.0835 78.0691 76.2407 78.1129 76.416C78.1851 76.3774 78.265 76.349 78.3501 76.3438C78.3655 76.3438 78.381 76.349 78.3965 76.349C77.8526 75.4778 77.2108 74.4751 76.5097 73.4311C75.0095 71.1989 74.4811 69.1085 74.9425 67.2139C75.5534 64.711 77.6799 63.5253 77.7675 63.4764C77.7856 63.4661 77.8062 63.4661 77.8242 63.4583C77.7572 63.3784 77.6876 63.2908 77.6258 63.216C73.7877 58.584 78.3655 51.8719 78.564 51.5884C78.68 51.426 78.863 51.3255 79.0615 51.3229C79.26 51.3177 79.4481 51.4105 79.5693 51.5703L83.9744 57.4602C84.1111 55.7951 84.6859 49.7634 85.9051 47.8586C87.297 45.6856 91.7589 44.0952 91.947 44.0256C92.1352 43.9586 92.3466 43.987 92.5115 44.1055C92.6739 44.2215 92.7719 44.4097 92.7744 44.6082L92.8518 69.0646C92.8518 69.1368 92.826 69.2013 92.8054 69.2657L95.6949 73.1321C95.7903 73.261 95.8341 73.4208 95.8135 73.5781C95.8135 73.5781 92.4626 100.78 92.3878 100.867L86.3046 108.085C79.1105 104.079 73.2567 96.1941 69.9909 86.2007L69.9883 86.2032Z" fill="#481009"/>
<path d="M84.093 56.8699L93.1379 68.9615L96.0222 72.8202" stroke="#EB8052" stroke-linecap="round" stroke-linejoin="round"/>
<path d="M94.4707 83.9169C91.2177 79.5453 81.7476 66.8763 78.5642 63.2495" stroke="#EB8052" stroke-linecap="round" stroke-linejoin="round"/>
<path d="M89.3411 87.2626L77.7572 75.8154C77.7572 75.8154 74.7363 80.0247 75.9864 82.9915C77.2366 85.9584 82.281 91.5699 82.281 91.5699L80.5359 98.0087C80.5359 98.0087 71.8261 99.2666 66.4028 106.734" stroke="#EB8052" stroke-linecap="round" stroke-linejoin="round"/>
<path d="M39.2012 1C39.2012 8.95454 34.9558 8.95454 34.9558 16.9116C34.9558 24.8688 39.2012 24.8688 39.2012 32.8259C39.2012 40.783 34.9558 40.783 34.9558 48.7401" stroke="#481009" stroke-linecap="round" stroke-linejoin="round"/>
<path d="M50.8469 1.00001C50.8469 8.95454 46.6016 8.95454 46.6016 16.9117C46.6016 24.8688 50.8469 24.8688 50.8469 32.8259C50.8469 40.783 46.6016 40.783 46.6016 48.7401" stroke="#481009" stroke-linecap="round" stroke-linejoin="round"/>
<path d="M62.4953 1.00001C62.4953 8.95454 58.25 8.95454 58.25 16.9117C58.25 24.8688 62.4953 24.8688 62.4953 32.8259C62.4953 40.783 58.25 40.783 58.25 48.7401" stroke="#481009" stroke-linecap="round" stroke-linejoin="round"/>
</svg>
