<svg width="19" height="19" viewBox="0 0 19 19" fill="none" xmlns="http://www.w3.org/2000/svg">
<g clip-path="url(#clip0_257_2625)">
<path d="M2.9696 14H16.0304C16.9785 14 17.75 13.2424 17.75 12.3113V3.68875C17.75 2.75762 16.9785 2 16.0304 2H2.9696C2.02146 2 1.25 2.75762 1.25 3.68875V12.3113C1.25 13.2424 2.02146 14 2.9696 14ZM7.75898 7.8989H11.241V8.52316C11.241 9.46576 10.4598 10.2329 9.5 10.2329C8.54018 10.2329 7.75898 9.46624 7.75898 8.52316V7.8989ZM2.46681 3.68875C2.46681 3.41629 2.69217 3.19498 2.9696 3.19498H16.0304C16.3078 3.19498 16.5332 3.41629 16.5332 3.68875V12.3113C16.5332 12.5837 16.3078 12.805 16.0304 12.805H10.1084V11.3658C11.4484 11.0895 12.4578 9.91986 12.4578 8.52316V7.30141C12.4578 6.9716 12.1853 6.70392 11.8494 6.70392H11.2615V5.42338C11.2615 5.09357 10.9889 4.82589 10.6531 4.82589C10.3172 4.82589 10.0446 5.09357 10.0446 5.42338V6.70392H8.86872V5.42338C8.86872 5.09357 8.59615 4.82589 8.26031 4.82589C7.92447 4.82589 7.6519 5.09357 7.6519 5.42338V6.70392H7.15058C6.81473 6.70392 6.54217 6.9716 6.54217 7.30141V8.52316C6.54217 9.91986 7.55164 11.0895 8.89159 11.3658V12.805H2.9696C2.69217 12.805 2.46681 12.5837 2.46681 12.3113V3.68875Z" fill="#1D1D1B"/>
<path d="M18.4157 16.5469L17.7618 15.2531C17.6076 14.9474 17.2647 14.75 16.8878 14.75H2.11267C1.73628 14.75 1.39336 14.9474 1.23864 15.2531L0.58481 16.5469C0.45094 16.812 0.476647 17.1161 0.65417 17.36C0.831692 17.604 1.13242 17.75 1.45884 17.75H17.5412C17.8676 17.75 18.1683 17.6045 18.3458 17.36C18.5234 17.1161 18.5491 16.812 18.4152 16.5469H18.4157ZM1.85318 16.6704L2.27807 15.8296H16.7239L17.1488 16.6704H1.85318Z" fill="#1D1D1B"/>
</g>
<defs>
<clipPath id="clip0_257_2625">
<rect width="18" height="18" fill="white" transform="translate(0.5 0.5)"/>
</clipPath>
</defs>
</svg>
