<svg width="19" height="19" viewBox="0 0 19 19" fill="none" xmlns="http://www.w3.org/2000/svg">
<g clip-path="url(#clip0_257_2617)">
<path d="M15.125 7.13749C16.8407 5.44999 16.8125 1.76562 16.8125 1.59687C16.8125 1.25937 16.5313 0.978118 16.1938 0.978118C16.025 0.978118 12.2844 0.949993 10.5688 2.63749C10.0907 3.11562 9.75315 3.73437 9.50003 4.38124C9.2469 3.73437 8.9094 3.11562 8.43128 2.63749C6.71565 0.949993 2.97503 0.978118 2.80628 0.978118C2.46878 1.00624 2.18753 1.28749 2.18753 1.62499C2.18753 1.79374 2.1594 5.47812 3.87503 7.16562C5.16878 8.45937 7.6719 8.74062 8.85315 8.79687V10.3437H6.49065C5.95628 10.3437 5.47815 10.5687 5.11253 10.9906C4.77503 11.3844 4.6344 11.9187 4.71878 12.4531L5.39378 16.5594C5.5344 17.4312 6.29378 18.05 7.16565 18.05H11.8063C12.6782 18.05 13.4375 17.4312 13.5782 16.5594L14.2532 12.4531C14.3375 11.9469 14.1969 11.4125 13.8594 10.9906C13.5219 10.5969 13.0157 10.3437 12.4813 10.3437H10.1188V8.79687C11.3 8.71249 13.8032 8.43124 15.125 7.13749ZM12.9032 11.7781C12.9594 11.8344 13.0438 12.0031 13.0157 12.2L12.3407 16.3062C12.2844 16.5594 12.0875 16.7562 11.8344 16.7562H7.19378C6.94065 16.7562 6.71565 16.5594 6.68753 16.3062L6.01253 12.2C5.9844 12.0031 6.06878 11.8344 6.12503 11.7781C6.18128 11.7219 6.3219 11.5812 6.51878 11.5812H12.5094C12.7063 11.6094 12.8469 11.7219 12.9032 11.7781ZM11.4407 3.56562C12.3407 2.66562 14.3094 2.35624 15.5188 2.29999C15.4344 3.45312 15.125 5.36562 14.225 6.26562C13.325 7.16562 11.3563 7.47499 10.1469 7.53124C10.2313 6.34999 10.5407 4.43749 11.4407 3.56562ZM4.77503 6.23749C3.87503 5.36562 3.56565 3.45312 3.48128 2.27187C4.66253 2.35624 6.63128 2.63749 7.5594 3.53749C8.4594 4.40937 8.76878 6.32187 8.85315 7.50312C7.64378 7.44687 5.67503 7.13749 4.77503 6.23749Z" fill="#1D1D1B"/>
</g>
<defs>
<clipPath id="clip0_257_2617">
<rect width="18" height="18" fill="white" transform="translate(0.5 0.5)"/>
</clipPath>
</defs>
</svg>
