<svg width="20" height="20" viewBox="0 0 20 20" fill="none" xmlns="http://www.w3.org/2000/svg">
<circle cx="9.75031" cy="9.75031" r="9.75031" fill="#EB8052"/>
<path d="M16.439 8.3563C16.392 8.13094 16.192 7.96896 15.9614 7.96896H3.69391C3.46334 7.96896 3.26335 8.13094 3.2163 8.3563C3.12454 8.79763 3.07983 9.25304 3.07983 9.70846C3.07983 13.4105 6.10789 16.4223 9.82766 16.4223C13.5474 16.4223 16.5755 13.4105 16.5755 9.70846C16.5755 9.25304 16.5284 8.79763 16.439 8.3563Z" fill="#E7E4DE"/>
<path d="M14.1738 10.3348C13.2426 10.4716 11.7017 10.5597 9.83211 10.133C9.77495 10.1191 9.71779 10.1075 9.66063 10.0959C7.50524 9.64381 5.96432 10.0658 5.26888 10.3394C5.19029 10.3695 5.14265 10.453 5.15932 10.5342C5.19743 10.7266 5.24744 10.9167 5.30699 11.1022C5.94765 13.0707 7.79342 14.4943 9.97024 14.4943C12.3733 14.4943 14.3715 12.76 14.7931 10.4716C14.7931 10.4716 14.7931 10.4716 14.7931 10.4692C14.8145 10.3487 14.7049 10.2443 14.5811 10.2698C14.4573 10.2953 14.3263 10.3162 14.1738 10.3394V10.3348Z" fill="#45242D"/>
</svg>
