<svg width="178" height="51" viewBox="0 0 178 51" fill="none" xmlns="http://www.w3.org/2000/svg">
<g clip-path="url(#clip0_77_117)">
<path d="M42.0108 19.2033C41.8962 18.6618 41.4089 18.2727 40.8472 18.2727H10.9598C10.3981 18.2727 9.91085 18.6618 9.79621 19.2033C9.57266 20.2635 9.46375 21.3576 9.46375 22.4517C9.46375 31.3456 16.841 38.5813 25.9035 38.5813C34.966 38.5813 42.3433 31.3456 42.3433 22.4517C42.3433 21.3576 42.2286 20.2635 42.0108 19.2033Z" fill="#E7E4DE"/>
<path d="M40.5835 0H11.2522C5.03777 0 0 4.95655 0 11.0708V39.9292C0 46.0434 5.03777 51 11.2522 51H40.5835C46.7979 51 51.8357 46.0434 51.8357 39.9292V11.0708C51.8357 4.95655 46.7979 0 40.5835 0Z" fill="#EB8052"/>
<path d="M42.0108 19.2033C41.8962 18.6618 41.4089 18.2727 40.8472 18.2727H10.9598C10.3981 18.2727 9.91085 18.6618 9.79621 19.2033C9.57266 20.2635 9.46375 21.3576 9.46375 22.4517C9.46375 31.3456 16.841 38.5813 25.9035 38.5813C34.966 38.5813 42.3433 31.3456 42.3433 22.4517C42.3433 21.3576 42.2286 20.2635 42.0108 19.2033Z" fill="#E7E4DE"/>
<path d="M35.9863 23.9068C33.7451 24.2395 30.0364 24.4538 25.5367 23.4161C25.3991 23.3823 25.2615 23.3541 25.124 23.3259C19.9364 22.2261 16.2277 23.2526 14.5539 23.9181C14.3647 23.9914 14.2501 24.1944 14.2902 24.3918C14.3819 24.8599 14.5023 25.3224 14.6456 25.7735C16.1875 30.5617 20.63 34.0244 25.8691 34.0244C31.6529 34.0244 36.4621 29.8059 37.4767 24.2395C37.4767 24.2395 37.4767 24.2395 37.4767 24.2339C37.5283 23.9406 37.2646 23.6868 36.9665 23.7489C36.6685 23.8109 36.3532 23.8617 35.9863 23.9181V23.9068Z" fill="#45242D"/>
<path d="M66.6647 42.0441V10.6196H74.0764V27.911L80.5308 18.4532H88.08L81.6256 27.3696C80.8919 28.3904 80.525 29.2927 80.525 30.071C80.525 30.8493 80.783 31.4978 81.3046 32.0054C81.8205 32.5186 82.5255 32.8965 83.4083 33.1559C84.291 33.4097 85.2369 33.5394 86.2457 33.5394C87.1915 33.5394 88.1201 33.4041 89.0373 33.1334L85.6496 42.0498C85.1279 42.202 84.7324 42.3092 84.4573 42.3881C84.1821 42.4615 83.7408 42.5009 83.1274 42.5009C81.9982 42.5009 81.0352 42.3036 80.2442 41.9144C79.4531 41.5253 78.8169 41.0064 78.3468 40.3635C77.871 39.7206 77.5443 38.9818 77.3609 38.1584C77.1775 37.335 77.1144 36.5003 77.1775 35.66C77.2405 34.8196 77.401 34.0075 77.659 33.2292C77.9169 32.451 78.2608 31.7742 78.6907 31.2046L78.1405 30.979L74.0706 36.6074V42.0554H66.659L66.6647 42.0441Z" fill="#45242D"/>
<path d="M106.795 36.4157C106.916 37.4365 106.795 38.3275 106.429 39.0945C106.062 39.8615 105.557 40.4932 104.921 40.9839C104.285 41.4745 103.557 41.8524 102.749 42.1118C101.94 42.3656 101.138 42.4953 100.347 42.4953C98.4551 42.4953 96.7928 42.14 95.3598 41.435C93.9268 40.7301 92.7345 39.8051 91.7887 38.6659C90.8429 37.5267 90.1321 36.2127 89.6621 34.7238C89.1863 33.2405 88.9513 31.7291 88.9513 30.2007C88.9513 28.6723 89.1863 27.1665 89.6621 25.7002C90.1321 24.2282 90.8429 22.9255 91.7887 21.7806C92.7345 20.6414 93.921 19.7165 95.3598 19.0115C96.7928 18.3065 98.4551 17.9512 100.347 17.9512C102.238 17.9512 103.723 18.2219 104.898 18.7634C106.073 19.3048 107.053 19.9364 107.85 20.6527L108.309 18.4475H115.222V42.0385H108.269L107.397 36.41H106.801L106.795 36.4157ZM96.7298 30.2007C96.7298 31.0128 96.8616 31.7686 97.1196 32.4735C97.3775 33.1785 97.7444 33.7932 98.2201 34.3177C98.6902 34.8422 99.2748 35.2539 99.957 35.5584C100.645 35.8573 101.413 36.0096 102.267 36.0096C103.121 36.0096 103.929 35.8573 104.6 35.5584C105.271 35.2595 105.85 34.8478 106.337 34.3177C106.824 33.7932 107.191 33.1785 107.437 32.4735C107.684 31.7686 107.804 31.0128 107.804 30.2007C107.804 29.3886 107.684 28.6329 107.437 27.9279C107.191 27.2229 106.824 26.6082 106.337 26.0837C105.85 25.5592 105.271 25.1475 104.6 24.843C103.929 24.5441 103.15 24.3918 102.267 24.3918C101.384 24.3918 100.645 24.5441 99.957 24.843C99.2691 25.1419 98.6902 25.5536 98.2201 26.0837C97.7444 26.6082 97.3832 27.2229 97.1196 27.9279C96.8616 28.6329 96.7298 29.3886 96.7298 30.2007Z" fill="#45242D"/>
<path d="M126.382 20.8839H131.552V27.0086H126.382V42.0498H118.97V32.1464C118.97 31.1877 119.022 30.415 119.131 29.8285C119.24 29.242 119.383 28.7851 119.567 28.458C119.75 28.1309 119.962 27.9053 120.209 27.7813C120.455 27.6628 120.713 27.6008 120.988 27.6008V27.0143H116.551V20.8895H118.976V19.0002C118.976 17.6185 119.228 16.3721 119.733 15.2611C120.237 14.1501 120.925 13.2139 121.791 12.4469C122.662 11.6799 123.682 11.099 124.857 10.6929C126.032 10.2869 127.305 10.0838 128.681 10.0838H131.335V16.9699H130.326C129.839 16.9699 129.357 17.032 128.887 17.1504C128.411 17.2688 127.993 17.4493 127.626 17.6918C127.259 17.9343 126.961 18.2558 126.732 18.6618C126.502 19.0679 126.388 19.5698 126.388 20.1676V20.8895L126.382 20.8839Z" fill="#45242D"/>
<path d="M143.865 17.9569C145.969 17.9569 147.815 18.2896 149.402 18.9495C150.99 19.6093 152.291 20.5455 153.317 21.7637C154.338 22.9819 155.054 24.4426 155.467 26.1514C155.88 27.8602 155.948 29.7834 155.673 31.9152H138.832C138.987 32.7555 139.234 33.4605 139.589 34.0301C139.939 34.5997 140.351 35.0678 140.827 35.4287C141.297 35.7897 141.802 36.0435 142.335 36.1957C142.868 36.348 143.412 36.4213 143.957 36.4213C144.903 36.4213 145.74 36.2465 146.473 35.9025C147.207 35.5584 147.631 35.158 147.757 34.7069H155.306C154.819 36.1788 154.137 37.4083 153.272 38.4009C152.4 39.3935 151.454 40.1887 150.434 40.7865C149.414 41.3899 148.353 41.8242 147.253 42.0949C146.152 42.3656 145.149 42.5009 144.232 42.5009C142.524 42.5009 140.913 42.2584 139.406 41.7791C137.898 41.2997 136.574 40.5609 135.445 39.5739C134.315 38.5813 133.421 37.318 132.768 35.7671C132.109 34.2218 131.782 32.3664 131.782 30.2064C131.782 28.2268 132.086 26.4785 132.699 24.9614C133.307 23.4443 134.155 22.1698 135.238 21.132C136.322 20.0943 137.6 19.3104 139.085 18.769C140.563 18.2276 142.157 17.9569 143.865 17.9569ZM148.806 27.409V27.1383C148.806 25.9991 148.348 25.0968 147.431 24.4369C146.513 23.7771 145.447 23.4443 144.226 23.4443C141.36 23.4443 139.606 24.764 138.964 27.409H148.806Z" fill="#45242D"/>
<path d="M169.992 42.0441L166.559 35.9194H165.963L162.346 42.0441H154.338L161.979 29.4393L154.98 18.4532H162.988L166.1 23.7207H166.696L169.579 18.4532H177.587L170.451 30.2063L178 42.0498H169.992V42.0441Z" fill="#45242D"/>
</g>
<defs>
<clipPath id="clip0_77_117">
<rect width="178" height="51" fill="white"/>
</clipPath>
</defs>
</svg>
