<svg width="28" height="28" viewBox="0 0 28 28" fill="none" xmlns="http://www.w3.org/2000/svg">
<path d="M14 25.8125C13.4312 25.8125 12.8625 25.5937 12.425 25.2C11.4187 24.325 10.5 23.5375 9.66873 22.8375C7.17498 20.6938 4.98748 18.9 3.45623 17.0625C1.66248 14.875 0.787476 12.8188 0.787476 10.5C0.787476 8.26875 1.57498 6.16875 2.97498 4.6375C4.41873 3.0625 6.43123 2.1875 8.57498 2.1875C10.1937 2.1875 11.725 2.7125 13.0375 3.71875C13.3875 3.98125 13.6937 4.24375 14 4.59375C14.3062 4.2875 14.6125 3.98125 14.9625 3.71875C16.275 2.7125 17.7625 2.1875 19.425 2.1875C21.6125 2.1875 23.5812 3.0625 25.025 4.6375C26.4687 6.16875 27.2125 8.26875 27.2125 10.5C27.2125 12.8188 26.3812 14.875 24.5437 17.0625C23.0125 18.9 20.825 20.7375 18.3312 22.8375C17.5 23.5375 16.5375 24.3687 15.5312 25.2C15.1375 25.5937 14.5687 25.8125 14 25.8125ZM8.57498 4.15625C6.95623 4.15625 5.46873 4.8125 4.37498 5.95C3.32498 7.13125 2.75623 8.75 2.75623 10.5C2.75623 12.2937 3.45623 14 4.94373 15.7937C6.38748 17.5 8.48748 19.2937 10.8937 21.35C11.725 22.05 12.6875 22.8812 13.6937 23.7562C13.8687 23.8875 14.1312 23.8875 14.3062 23.7562C15.3125 22.8812 16.275 22.0937 17.1062 21.35C19.5562 19.25 21.6562 17.5 23.0562 15.7937C24.5437 14 25.2437 12.2937 25.2437 10.5C25.2437 8.75 24.6312 7.13125 23.5812 5.99375C22.4875 4.8125 21 4.15625 19.425 4.15625C18.2437 4.15625 17.15 4.55 16.1875 5.25C15.7937 5.55625 15.4437 5.90625 15.0937 6.3C14.8312 6.60625 14.4375 6.825 14 6.825C13.5625 6.825 13.2125 6.65 12.9062 6.3C12.5562 5.90625 12.2062 5.55625 11.8125 5.25C10.8937 4.55 9.79998 4.15625 8.57498 4.15625Z" fill="#A0A0A0"/>
</svg>
