<svg width="30" height="30" viewBox="0 0 30 30" fill="none" xmlns="http://www.w3.org/2000/svg">
<circle cx="15.0003" cy="14.7503" r="14.7503" fill="#EB8052"/>
<path d="M25.1188 12.6414C25.0476 12.3005 24.7451 12.0555 24.3962 12.0555H5.83792C5.48911 12.0555 5.18656 12.3005 5.11538 12.6414C4.97656 13.3091 4.90894 13.998 4.90894 14.687C4.90894 20.2874 9.48979 24.8437 15.1171 24.8437C20.7444 24.8437 25.3252 20.2874 25.3252 14.687C25.3252 13.998 25.254 13.3091 25.1188 12.6414Z" fill="#E7E4DE"/>
<path d="M21.692 15.6345C20.2833 15.8414 17.9522 15.9747 15.1238 15.3293C15.0374 15.3083 14.9509 15.2907 14.8644 15.2732C11.6037 14.5892 9.27262 15.2276 8.22056 15.6415C8.10166 15.6871 8.0296 15.8134 8.05482 15.9361C8.11247 16.2273 8.18813 16.5149 8.27821 16.7955C9.2474 19.7734 12.0397 21.9271 15.3328 21.9271C18.9682 21.9271 21.9911 19.3034 22.6288 15.8414C22.6288 15.8414 22.6288 15.8414 22.6288 15.8379C22.6612 15.6555 22.4955 15.4977 22.3081 15.5363C22.1208 15.5749 21.9226 15.6064 21.692 15.6415V15.6345Z" fill="#45242D"/>
</svg>
