<svg width="25" height="24" viewBox="0 0 25 24" fill="none" xmlns="http://www.w3.org/2000/svg">
<path d="M12.1875 0.675003C6.7125 0.675003 2.25 5.1 2.25 10.6125C2.25 17.325 11.3625 22.9875 11.7375 23.25C11.8875 23.325 12.0375 23.3625 12.1875 23.3625C12.3375 23.3625 12.4875 23.325 12.6375 23.25C13.0125 23.025 22.125 17.25 22.125 10.6125C22.125 5.1 17.6625 0.675003 12.1875 0.675003ZM12.1875 21.4875C10.425 20.2875 3.9375 15.6 3.9375 10.575C3.9375 6.0375 7.65 2.325 12.1875 2.325C16.725 2.325 20.4375 6.0375 20.4375 10.575C20.4375 15.525 13.95 20.2875 12.1875 21.4875Z" fill="#1D1D1B"/>
<path d="M14.7375 12.75C15.2625 12.0375 15.525 11.2125 15.525 10.35C15.525 9.2625 15.075 8.2125 14.2875 7.425C12.675 5.8125 10.0125 5.8125 8.3625 7.425C7.575 8.2125 7.125 9.225 7.125 10.35C7.125 11.475 7.575 12.4875 8.3625 13.275C9.1875 14.0625 10.2375 14.475 11.325 14.475C12.075 14.475 12.825 14.2875 13.4625 13.875L15.7875 16.1625C15.9375 16.3125 16.1625 16.3875 16.3875 16.3875C16.6125 16.3875 16.8375 16.3125 16.9875 16.125C17.325 15.7875 17.325 15.2625 16.9875 14.925L14.7375 12.75ZM9.5625 12.075C9.1125 11.625 8.85 10.9875 8.85 10.35C8.85 9.7125 9.1125 9.075 9.5625 8.625C10.05 8.1375 10.6875 7.9125 11.325 7.9125C11.9625 7.9125 12.6 8.1375 13.0875 8.625C13.5375 9.075 13.8 9.7125 13.8 10.35C13.8 10.9875 13.5375 11.625 13.0875 12.075C12.1125 13.0125 10.5375 13.0125 9.5625 12.075Z" fill="#1D1D1B"/>
</svg>
